<svg id="akoz" xmlns="http://www.w3.org/2000/svg" width="94.825" height="26.291" viewBox="0 0 94.825 26.291">
  <g id="Group_14763" data-name="Group 14763" transform="translate(0 0)">
    <g id="Group_14761" data-name="Group 14761" transform="translate(0.037)">
      <path id="Path_4946" data-name="Path 4946" d="M442.242,537.018h7.348a1.064,1.064,0,0,0,1.079-1.156v-.586a9.336,9.336,0,0,1-1.885.116h-2.418l4.206-8.08H442.3v1.6H446l-3.525,6.676a1.835,1.835,0,0,0-.236,1.43" transform="translate(-417.791 -523.427)" fill="#004586"/>
      <path id="Path_4947" data-name="Path 4947" d="M392.862,531.858l1.9,3.653c.532,1.053.766,1.507,1.966,1.507h2.71a3.213,3.213,0,0,1-.571-.862l-2.772-5.085,3.243-3.76h-2.886Z" transform="translate(-375.736 -523.427)" fill="#004586"/>
      <path id="Path_4948" data-name="Path 4948" d="M368.721,514.474h3.359v-11.6a1.948,1.948,0,0,0-2.1-1.986h-1.258Z" transform="translate(-355.151 -500.883)" fill="#004586"/>
      <path id="Path_4949" data-name="Path 4949" d="M288.68,519.481l-3.358-9.96c-.393-1.19-.805-1.736-2.456-1.736h-1.592L276.6,520.361h2.12l1.067-3.11h4.5l.642,2.013c.236.742.53,1.072,1.336,1.072h2.828A2.453,2.453,0,0,1,288.68,519.481Zm-8.368-3.752,1.806-5.262,1.684,5.262Z" transform="translate(-276.602 -506.771)" fill="#004586"/>
      <path id="Path_4950" data-name="Path 4950" d="M508.652,535.776a5.036,5.036,0,0,0,5.164-5.289,4.921,4.921,0,0,0-5.1-4.9,5.084,5.084,0,0,0-5.189,5.351,4.882,4.882,0,0,0,5.13,4.838m.037-1.793c-1.138,0-1.551-1.311-1.551-3.36,0-1.951.394-3.281,1.551-3.281,1.141,0,1.512,1.406,1.512,3.454,0,1.938-.37,3.187-1.512,3.187" transform="translate(-470.095 -521.956)" fill="#004586"/>
      <path id="Path_4951" data-name="Path 4951" d="M583.655,520.15h2.1v-8.019l5.339,6.4c.748.9,1.238,1.623,2.044,1.623h1.53V508.628a1.045,1.045,0,0,0-1.136-1.091h-.925v7.583l-5.134-6.1c-.765-.914-1.158-1.479-2.275-1.479h-1.544Z" transform="translate(-538.425 -506.559)" fill="#004586"/>
      <path id="Path_4952" data-name="Path 4952" d="M673.436,535.776a5.038,5.038,0,0,0,5.167-5.289,4.926,4.926,0,0,0-5.108-4.9,5.081,5.081,0,0,0-5.185,5.351,4.876,4.876,0,0,0,5.126,4.838m.04-1.793c-1.142,0-1.553-1.311-1.553-3.359,0-1.952.394-3.282,1.553-3.282,1.137,0,1.512,1.409,1.512,3.459,0,1.934-.375,3.182-1.512,3.182" transform="translate(-610.609 -521.956)" fill="#004586"/>
      <path id="Path_4953" data-name="Path 4953" d="M831.9,530.987a7.469,7.469,0,0,0,.079-1.13c0-2.3-1.709-4.139-4.634-4.139a4.843,4.843,0,0,0-5.03,5.115,4.681,4.681,0,0,0,4.91,5.055c3.045,0,4.143-1.58,4.206-3.1a4.832,4.832,0,0,1-2.772.742,2.717,2.717,0,0,1-2.96-2.539Zm-6.2-1.344c.109-1.427.661-2.325,1.606-2.325,1.3,0,1.552,2.325,1.552,2.325Z" transform="translate(-741.931 -522.067)" fill="#004586"/>
      <path id="Path_4954" data-name="Path 4954" d="M753.945,504.63a3.752,3.752,0,0,0-2.556.879v-2.635a1.933,1.933,0,0,0-2.08-1.991h-1.257v13.591h3.928c3.75,0,5.832-1.954,5.832-5.588A3.98,3.98,0,0,0,753.945,504.63Zm-2.046,8.221h-.51v-6.266a6,6,0,0,1,.727-.041,2.468,2.468,0,0,1,2.241,2.734C754.358,511.6,753.472,512.851,751.9,512.851Z" transform="translate(-678.605 -500.883)" fill="#004586"/>
      <path id="Path_4955" data-name="Path 4955" d="M897.418,514.474h3.339v-11.6a1.95,1.95,0,0,0-2.1-1.991h-1.237Z" transform="translate(-805.969 -500.883)" fill="#004586"/>
    </g>
    <g id="Group_14762" data-name="Group 14762" transform="translate(0 19.005)">
      <path id="Path_4956" data-name="Path 4956" d="M276.354,630.192h4.569v.465h-2.01v5.286h-.55v-5.286h-2.01Z" transform="translate(-276.354 -630.192)" fill="#0083c7"/>
      <path id="Path_4957" data-name="Path 4957" d="M307.16,642.395a1.982,1.982,0,1,1-1.971-2.2A1.994,1.994,0,0,1,307.16,642.395Zm-3.431,0a1.489,1.489,0,1,0,1.459-1.772A1.58,1.58,0,0,0,303.729,642.395Z" transform="translate(-299.262 -638.724)" fill="#0083c7"/>
      <path id="Path_4958" data-name="Path 4958" d="M335.434,640.316h.47v.7h.023a1.456,1.456,0,0,1,1.364-.825,1.159,1.159,0,0,1,1.195.815,1.414,1.414,0,0,1,1.325-.815c.912,0,1.38.474,1.38,1.459v2.822h-.508v-2.8c0-.685-.258-1.056-.986-1.056-.879,0-1.13.725-1.13,1.5v2.352h-.509v-2.822c.01-.564-.225-1.03-.871-1.03-.882,0-1.235.661-1.244,1.532v2.32h-.508Z" transform="translate(-326.731 -638.724)" fill="#0083c7"/>
      <path id="Path_4959" data-name="Path 4959" d="M382.839,642.395a1.981,1.981,0,1,1-1.969-2.2A1.993,1.993,0,0,1,382.839,642.395Zm-3.432,0a1.489,1.489,0,1,0,1.464-1.772A1.581,1.581,0,0,0,379.407,642.395Z" transform="translate(-363.795 -638.724)" fill="#0083c7"/>
      <path id="Path_4960" data-name="Path 4960" d="M411.12,640.686h.468v.975h.016a1.54,1.54,0,0,1,1.574-1.032v.508a1.434,1.434,0,0,0-1.549,1.491v2.217h-.508Z" transform="translate(-391.268 -639.093)" fill="#0083c7"/>
      <path id="Path_4961" data-name="Path 4961" d="M430.893,640.686h.468v.975h.016a1.541,1.541,0,0,1,1.576-1.032v.508a1.434,1.434,0,0,0-1.551,1.491v2.217h-.509Z" transform="translate(-408.129 -639.093)" fill="#0083c7"/>
      <path id="Path_4962" data-name="Path 4962" d="M450.023,642.395a1.982,1.982,0,1,1-1.97-2.2A1.994,1.994,0,0,1,450.023,642.395Zm-3.432,0a1.489,1.489,0,1,0,1.462-1.772A1.58,1.58,0,0,0,446.592,642.395Z" transform="translate(-421.081 -638.724)" fill="#0083c7"/>
      <path id="Path_4963" data-name="Path 4963" d="M475.465,641.027H476l1.066,3.56h.016l1.016-3.56h.575l1.017,3.56h.014l1.067-3.56h.54l-1.34,4.158h-.557l-1.026-3.5h-.015l-1.018,3.5H476.8Z" transform="translate(-446.135 -639.435)" fill="#0083c7"/>
      <path id="Path_4964" data-name="Path 4964" d="M519.633,630.192v.86a1.087,1.087,0,0,1-.717,1.1V631.8a.782.782,0,0,0,.379-.76h-.339v-.851Z" transform="translate(-483.185 -630.192)" fill="#0083c7"/>
      <path id="Path_4965" data-name="Path 4965" d="M525.474,641.535a.959.959,0,0,0-1.089-.913c-.453,0-.985.177-.985.718,0,.451.516.61.863.7l.678.15c.58.092,1.186.429,1.186,1.156,0,.9-.9,1.247-1.67,1.247a1.509,1.509,0,0,1-1.712-1.467h.509a1.1,1.1,0,0,0,1.227,1.038c.476,0,1.137-.21,1.137-.787,0-.482-.452-.648-.912-.76l-.654-.143c-.663-.178-1.162-.4-1.162-1.113,0-.844.831-1.169,1.566-1.169a1.367,1.367,0,0,1,1.526,1.341Z" transform="translate(-486.45 -638.724)" fill="#0083c7"/>
      <path id="Path_4966" data-name="Path 4966" d="M565.239,630.192h.614l2.259,5.751h-.588l-.7-1.789H564.2l-.7,1.789h-.589Zm-.873,3.493h2.269l-1.114-2.949Z" transform="translate(-520.702 -630.192)" fill="#0083c7"/>
      <path id="Path_4967" data-name="Path 4967" d="M602.472,640.316h.508v.717H603a1.415,1.415,0,0,1,1.331-.839c1.168,0,1.524.615,1.524,1.605v2.675h-.509v-2.594c0-.719-.235-1.258-1.056-1.258a1.311,1.311,0,0,0-1.307,1.426v2.427h-.508Z" transform="translate(-554.433 -638.724)" fill="#0083c7"/>
      <path id="Path_4968" data-name="Path 4968" d="M632.292,641.535a.958.958,0,0,0-1.09-.913c-.452,0-.984.177-.984.718,0,.451.516.61.864.7l.678.15c.58.092,1.187.429,1.187,1.156,0,.9-.9,1.247-1.671,1.247a1.509,1.509,0,0,1-1.712-1.467h.509a1.1,1.1,0,0,0,1.229,1.038c.475,0,1.137-.21,1.137-.787,0-.482-.452-.648-.911-.76l-.655-.143c-.662-.178-1.162-.4-1.162-1.113,0-.844.831-1.169,1.566-1.169a1.366,1.366,0,0,1,1.525,1.341Z" transform="translate(-577.534 -638.724)" fill="#0083c7"/>
      <path id="Path_4969" data-name="Path 4969" d="M654.991,641.027h.542l1.065,3.56h.014l1.017-3.56h.574l1.018,3.56h.016l1.066-3.56h.54l-1.339,4.158h-.557l-1.026-3.5H657.9l-1.016,3.5h-.558Z" transform="translate(-599.216 -639.435)" fill="#0083c7"/>
      <path id="Path_4970" data-name="Path 4970" d="M696.768,642.532a1.473,1.473,0,0,0,1.371,1.634,1.27,1.27,0,0,0,1.309-1.059h.507a1.7,1.7,0,0,1-1.816,1.488c-1.323,0-1.88-1.015-1.88-2.2a1.947,1.947,0,0,1,1.88-2.2c1.341,0,1.874,1.169,1.832,2.338Zm2.7-.427a1.4,1.4,0,0,0-1.325-1.483,1.476,1.476,0,0,0-1.371,1.483Z" transform="translate(-634.405 -638.724)" fill="#0083c7"/>
      <path id="Path_4971" data-name="Path 4971" d="M726.45,640.686h.468v.975h.016a1.542,1.542,0,0,1,1.575-1.032v.508a1.434,1.434,0,0,0-1.549,1.491v2.217h-.509Z" transform="translate(-660.148 -639.093)" fill="#0083c7"/>
      <path id="Path_4972" data-name="Path 4972" d="M745.18,641.535a.958.958,0,0,0-1.09-.913c-.452,0-.985.177-.985.718,0,.451.516.61.863.7l.678.15c.583.092,1.187.429,1.187,1.156,0,.9-.9,1.247-1.671,1.247a1.508,1.508,0,0,1-1.711-1.467h.509a1.1,1.1,0,0,0,1.227,1.038c.476,0,1.137-.21,1.137-.787,0-.482-.451-.648-.912-.76l-.653-.143c-.661-.178-1.162-.4-1.162-1.113,0-.844.831-1.169,1.565-1.169a1.367,1.367,0,0,1,1.526,1.341Z" transform="translate(-673.792 -638.724)" fill="#0083c7"/>
      <path id="Path_4973" data-name="Path 4973" d="M777.167,630.192h4.569v.465h-2.01v5.286h-.549v-5.286h-2.01Z" transform="translate(-703.395 -630.192)" fill="#0083c7"/>
      <path id="Path_4974" data-name="Path 4974" d="M809.055,642.395a1.982,1.982,0,1,1-1.97-2.2A1.992,1.992,0,0,1,809.055,642.395Zm-3.431,0a1.488,1.488,0,1,0,1.461-1.772A1.58,1.58,0,0,0,805.624,642.395Z" transform="translate(-727.227 -638.724)" fill="#0083c7"/>
      <path id="Path_4975" data-name="Path 4975" d="M839.976,635.943h-.47v-.792h-.015a1.655,1.655,0,0,1-1.487.911c-1.267,0-1.872-1.023-1.872-2.2s.6-2.2,1.872-2.2a1.489,1.489,0,0,1,1.446.914h.017v-2.384h.508ZM838,635.634c1.083,0,1.463-.909,1.463-1.771s-.38-1.772-1.463-1.772c-.968,0-1.363.913-1.363,1.772S837.037,635.634,838,635.634Z" transform="translate(-753.675 -630.192)" fill="#0083c7"/>
      <path id="Path_4976" data-name="Path 4976" d="M866.673,641.589c.048-.976.736-1.4,1.687-1.4.734,0,1.534.229,1.534,1.341v2.2a.27.27,0,0,0,.3.306.444.444,0,0,0,.161-.032v.427a1.313,1.313,0,0,1-.33.035c-.518,0-.6-.291-.6-.728h-.016a1.586,1.586,0,0,1-1.518.847c-.764,0-1.395-.379-1.395-1.215,0-1.167,1.139-1.212,2.235-1.338.419-.049.653-.1.653-.567,0-.683-.492-.852-1.09-.852-.628,0-1.1.288-1.115.967Zm2.711.612h-.015c-.065.122-.291.164-.427.188-.865.153-1.938.144-1.938.959a.864.864,0,0,0,.927.818,1.335,1.335,0,0,0,1.453-1.3Z" transform="translate(-779.565 -638.724)" fill="#0083c7"/>
      <path id="Path_4977" data-name="Path 4977" d="M894.711,641.027h.54l1.372,3.542,1.285-3.542h.508l-1.808,4.792c-.292.7-.462.9-1.1.9a1.223,1.223,0,0,1-.388-.04v-.425a2.084,2.084,0,0,0,.346.04c.452,0,.559-.268.727-.651l.177-.478Z" transform="translate(-803.624 -639.435)" fill="#0083c7"/>
    </g>
  </g>
</svg>
