<svg id="Group_21049" data-name="Group 21049" xmlns="http://www.w3.org/2000/svg" xmlns:xlink="http://www.w3.org/1999/xlink" width="100.922" height="18.868" viewBox="0 0 100.922 18.868">
  <defs>
    <clipPath id="clip-path">
      <rect id="Rectangle_4482" data-name="Rectangle 4482" width="100.922" height="18.868" fill="none"/>
    </clipPath>
  </defs>
  <g id="Group_21048" data-name="Group 21048" transform="translate(0 0)" clip-path="url(#clip-path)">
    <path id="Path_13085" data-name="Path 13085" d="M368.977,118.144a2.674,2.674,0,1,1,2.674,2.674,2.676,2.676,0,0,1-2.674-2.674" transform="translate(-273.404 -101.95)" fill="#85bc22"/>
    <path id="Path_13086" data-name="Path 13086" d="M89.031,82.8q0,4.629-2.49,7.134a9.425,9.425,0,0,1-7,2.505H73.7v-18.5h6.251a9.3,9.3,0,0,1,6.715,2.277Q89.031,78.5,89.031,82.8m-5.065.176a5.981,5.981,0,0,0-.983-3.77A3.592,3.592,0,0,0,80,77.977H78.58V88.337h1.087a3.89,3.89,0,0,0,3.262-1.322,6.5,6.5,0,0,0,1.038-4.042" transform="translate(-73.7 -73.863)"/>
    <rect id="Rectangle_4479" data-name="Rectangle 4479" width="4.649" height="18.573" transform="translate(31.516 0)"/>
    <path id="Path_13087" data-name="Path 13087" d="M204.475,94.819A7.405,7.405,0,0,1,202.7,100.1a6.492,6.492,0,0,1-4.976,1.894,6.365,6.365,0,0,1-4.881-1.937,8.539,8.539,0,0,1-.036-10.478,6.557,6.557,0,0,1,4.988-1.869,6.973,6.973,0,0,1,3.507.865,5.837,5.837,0,0,1,2.348,2.478,8.155,8.155,0,0,1,.826,3.769m-8.727,0a6.252,6.252,0,0,0,.464,2.708,1.606,1.606,0,0,0,1.557.932,1.562,1.562,0,0,0,1.529-.932,6.475,6.475,0,0,0,.445-2.708,6.146,6.146,0,0,0-.452-2.666,1.768,1.768,0,0,0-3.08-.006,6,6,0,0,0-.464,2.673" transform="translate(-153.051 -83.173)"/>
    <rect id="Rectangle_4480" data-name="Rectangle 4480" width="4.65" height="13.796" transform="translate(53.269 4.777)"/>
    <rect id="Rectangle_4481" data-name="Rectangle 4481" width="4.65" height="3.109" transform="translate(53.269)"/>
    <path id="Path_13088" data-name="Path 13088" d="M265.927,89.675a6.779,6.779,0,0,0,2.248-.476v3.471a9.064,9.064,0,0,1-1.79.59,9.866,9.866,0,0,1-1.992.177,4.3,4.3,0,0,1-3.377-1.175,5.353,5.353,0,0,1-1.033-3.609V82.965h-1.628V79.4h1.628V75.876l4.685-.815V79.4h2.967v3.567h-2.967v5.37q0,1.34,1.26,1.34" transform="translate(-198.587 -74.62)"/>
    <path id="Path_13089" data-name="Path 13089" d="M299.173,89.675a6.778,6.778,0,0,0,2.248-.476v3.471a9.036,9.036,0,0,1-1.789.59,9.868,9.868,0,0,1-1.992.177,4.291,4.291,0,0,1-3.376-1.175,5.348,5.348,0,0,1-1.034-3.609V82.965H291.6V79.4h1.63V75.823l4.685-.762V79.4h2.968v3.567h-2.968v5.37q0,1.34,1.26,1.34" transform="translate(-221.07 -74.62)"/>
    <path id="Path_13090" data-name="Path 13090" d="M336.614,89.334a6.434,6.434,0,0,0-4.7-1.626,6.366,6.366,0,0,0-4.924,1.869,7.634,7.634,0,0,0-1.724,5.364,7,7,0,0,0,1.861,5.218,7.134,7.134,0,0,0,5.226,1.832,15.284,15.284,0,0,0,2.782-.219,8.053,8.053,0,0,0,2.245-.784l-.714-3.109a9.186,9.186,0,0,1-3.755.728,3.184,3.184,0,0,1-2.123-.658,2.388,2.388,0,0,1-.826-1.815h8.311V94.016a6.263,6.263,0,0,0-1.659-4.682m-6.557,3.805a2.522,2.522,0,0,1,.648-1.663,1.912,1.912,0,0,1,1.373-.53,1.8,1.8,0,0,1,1.421.6,2.391,2.391,0,0,1,.553,1.595Z" transform="translate(-243.84 -83.174)"/>
    <path id="Path_13091" data-name="Path 13091" d="M136.676,89.334a6.437,6.437,0,0,0-4.7-1.626,6.36,6.36,0,0,0-4.922,1.869,7.631,7.631,0,0,0-1.725,5.364,7,7,0,0,0,1.862,5.218,7.131,7.131,0,0,0,5.226,1.832,15.287,15.287,0,0,0,2.782-.219,8.059,8.059,0,0,0,2.246-.784l-.714-3.109a9.18,9.18,0,0,1-3.755.728,3.186,3.186,0,0,1-2.123-.658,2.387,2.387,0,0,1-.826-1.815h8.311V94.016a6.262,6.262,0,0,0-1.659-4.682m-6.558,3.805a2.521,2.521,0,0,1,.648-1.663,1.909,1.909,0,0,1,1.374-.53,1.8,1.8,0,0,1,1.42.6,2.4,2.4,0,0,1,.553,1.595Z" transform="translate(-108.616 -83.174)"/>
  </g>
</svg>
