<svg id="logo" xmlns="http://www.w3.org/2000/svg" width="105.492" height="28.284" viewBox="0 0 105.492 28.284">
  <g id="Group_21160" data-name="Group 21160" transform="translate(5.444 0)">
    <path id="Path_13194" data-name="Path 13194" d="M-75.888-92.225a10.841,10.841,0,0,0-7.2,2.722h-3.69v2.721h1.461a10.824,10.824,0,0,0-1.117,2.722H-89.5v2.722h2.722v2.722h-5.443v2.721h10.886v-5.443a5.444,5.444,0,0,1,5.443-5.445h16.331v-5.443Z" transform="translate(92.217 92.225)" fill="#0f77bd"/>
  </g>
  <g id="Group_21161" data-name="Group 21161" transform="translate(21.773 10.888)">
    <path id="Path_13195" data-name="Path 13195" d="M0-78.464v3.374H9.431A10.881,10.881,0,0,1,0-69.647V-64.2A16.33,16.33,0,0,0,16.331-80.533H2.07A2.069,2.069,0,0,0,0-78.464" transform="translate(0 80.533)" fill="#0f77bd"/>
  </g>
  <g id="Group_21162" data-name="Group 21162" transform="translate(8.165 21.774)">
    <path id="Path_13196" data-name="Path 13196" d="M0-30.74v2.721H2.722V-25.3H8.165V-30.74Z" transform="translate(0 30.74)" fill="#0f77bd"/>
  </g>
  <g id="Group_21163" data-name="Group 21163" transform="translate(5.443 10.887) rotate(180)">
    <rect id="Rectangle_4597" data-name="Rectangle 4597" width="2.721" height="2.722" fill="#0f77bd"/>
  </g>
  <g id="Group_21164" data-name="Group 21164" transform="translate(2.722 16.331) rotate(180)">
    <rect id="Rectangle_4598" data-name="Rectangle 4598" width="2.722" height="2.721" fill="#0f77bd"/>
  </g>
  <g id="Group_21165" data-name="Group 21165" transform="translate(2.722 21.774)">
    <rect id="Rectangle_4599" data-name="Rectangle 4599" width="2.721" height="2.721" transform="translate(0 0)" fill="#0f77bd"/>
  </g>
  <g id="Group_21166" data-name="Group 21166" transform="translate(42.48 5.443)">
    <path id="Path_13197" data-name="Path 13197" d="M-17.7-65.02v2.991H-21.5v3.808H-17.7v5.4h4.172v-5.4c2.1,0,5.619-1.7,5.619-3.808h-5.619V-64.24a.813.813,0,0,1,.813-.813h6.052v-3.831h-7.175A3.864,3.864,0,0,0-17.7-65.02" transform="translate(21.505 68.883)" fill="#0f77bd"/>
  </g>
  <g id="Group_21167" data-name="Group 21167" transform="translate(46.864 23.642)">
    <path id="Path_13198" data-name="Path 13198" d="M1018.971,1043.042h.28v2.561h-.28Zm-.085-.787a.232.232,0,0,1,.465,0,.232.232,0,0,1-.465,0" transform="translate(-1018.886 -1042.028)" fill="#898786"/>
  </g>
  <g id="Group_21168" data-name="Group 21168" transform="translate(48.089 24.63)">
    <path id="Path_13199" data-name="Path 13199" d="M0-14.437H.28v.565H.29a1.076,1.076,0,0,1,.993-.592c.55,0,.9.354.9,1.056v1.531h-.28v-1.441c0-.655-.3-.887-.692-.887A.941.941,0,0,0,.28-13.149v1.272H0Z" transform="translate(0 14.464)" fill="#898786"/>
  </g>
  <g id="Group_21169" data-name="Group 21169" transform="translate(50.777 23.721)">
    <path id="Path_13200" data-name="Path 13200" d="M-1.571-1.461v-1.59H-1.91V-3.3h.338v-.9l.28-.032V-3.3h.935v.248h-.935v1.516c0,.354.063.555.375.555a.908.908,0,0,0,.481-.148l.074.254a1.107,1.107,0,0,1-.586.163c-.47,0-.623-.28-.623-.75" transform="translate(1.91 4.234)" fill="#898786"/>
  </g>
  <g id="Group_21170" data-name="Group 21170" transform="translate(52.647 24.63)">
    <path id="Path_13201" data-name="Path 13201" d="M-1.374-7.215H.442a.873.873,0,0,0-.871-.877.947.947,0,0,0-.945.877m2.091.232h-2.1A.961.961,0,0,0-.4-6a1,1,0,0,0,.824-.385l.2.169a1.212,1.212,0,0,1-1.029.481A1.236,1.236,0,0,1-1.67-7.046,1.236,1.236,0,0,1-.429-8.35,1.151,1.151,0,0,1,.722-7.11a.779.779,0,0,1,0,.127" transform="translate(1.67 8.35)" fill="#898786"/>
  </g>
  <g id="Group_21171" data-name="Group 21171" transform="translate(55.71 23.33)">
    <rect id="Rectangle_4600" data-name="Rectangle 4600" width="0.28" height="3.887" transform="translate(0)" fill="#898786"/>
  </g>
  <g id="Group_21172" data-name="Group 21172" transform="translate(56.877 23.33)">
    <rect id="Rectangle_4601" data-name="Rectangle 4601" width="0.28" height="3.887" transform="translate(0)" fill="#898786"/>
  </g>
  <g id="Group_21173" data-name="Group 21173" transform="translate(57.96 23.642)">
    <path id="Path_13202" data-name="Path 13202" d="M1081.633,1043.042h.28v2.561h-.28Zm-.084-.787a.232.232,0,0,1,.464,0,.232.232,0,1,1-.464,0" transform="translate(-1081.548 -1042.028)" fill="#898786"/>
  </g>
  <g id="Group_21174" data-name="Group 21174" transform="translate(59.011 24.63)">
    <path id="Path_13203" data-name="Path 13203" d="M-10.455-12.318a.95.95,0,0,0-.977-.993.954.954,0,0,0-.982.993.96.96,0,0,0,.982,1.014.95.95,0,0,0,.977-1.014m-2,2.118.074-.259a1.752,1.752,0,0,0,.967.285.845.845,0,0,0,.951-.887v-.549h-.005a1.085,1.085,0,0,1-.993.57A1.21,1.21,0,0,1-12.7-12.312a1.21,1.21,0,0,1,1.236-1.257,1.125,1.125,0,0,1,1,.555h.005v-.528h.28v2.435A1.092,1.092,0,0,1-11.4-9.915a1.964,1.964,0,0,1-1.051-.285" transform="translate(12.704 13.569)" fill="#898786"/>
  </g>
  <g id="Group_21175" data-name="Group 21175" transform="translate(62.147 24.63)">
    <path id="Path_13204" data-name="Path 13204" d="M-1.374-7.215H.442a.872.872,0,0,0-.871-.877.947.947,0,0,0-.945.877m2.092.232h-2.1A.96.96,0,0,0-.4-6a1,1,0,0,0,.824-.385l.2.169a1.214,1.214,0,0,1-1.03.481A1.236,1.236,0,0,1-1.67-7.046,1.236,1.236,0,0,1-.429-8.35,1.151,1.151,0,0,1,.723-7.11a.779.779,0,0,1,0,.127" transform="translate(1.67 8.35)" fill="#898786"/>
  </g>
  <g id="Group_21176" data-name="Group 21176" transform="translate(65.179 24.63)">
    <path id="Path_13205" data-name="Path 13205" d="M0-14.437H.28v.565H.29a1.076,1.076,0,0,1,.993-.592c.55,0,.9.354.9,1.056v1.531H1.907v-1.441c0-.655-.3-.887-.692-.887A.941.941,0,0,0,.28-13.149v1.272H0Z" transform="translate(0 14.464)" fill="#898786"/>
  </g>
  <g id="Group_21177" data-name="Group 21177" transform="translate(67.867 23.721)">
    <path id="Path_13206" data-name="Path 13206" d="M-1.571-1.461v-1.59H-1.91V-3.3h.338v-.9l.28-.032V-3.3h.935v.248h-.935v1.516c0,.354.063.555.375.555a.909.909,0,0,0,.481-.148l.074.254a1.108,1.108,0,0,1-.586.163c-.47,0-.623-.28-.623-.75" transform="translate(1.91 4.234)" fill="#898786"/>
  </g>
  <g id="Group_21178" data-name="Group 21178" transform="translate(71.432 23.642)">
    <path id="Path_13207" data-name="Path 13207" d="M1157.717,1043.042h.28v2.561h-.28Zm-.084-.787a.232.232,0,0,1,.465,0,.232.232,0,0,1-.465,0" transform="translate(-1157.632 -1042.028)" fill="#898786"/>
  </g>
  <g id="Group_21179" data-name="Group 21179" transform="translate(72.657 24.63)">
    <path id="Path_13208" data-name="Path 13208" d="M0-14.437H.28v.565H.29a1.076,1.076,0,0,1,.993-.592c.55,0,.9.354.9,1.056v1.531h-.28v-1.441c0-.655-.3-.887-.692-.887A.94.94,0,0,0,.28-13.149v1.272H0Z" transform="translate(0 14.464)" fill="#898786"/>
  </g>
  <g id="Group_21180" data-name="Group 21180" transform="translate(75.345 23.721)">
    <path id="Path_13209" data-name="Path 13209" d="M-1.571-1.461v-1.59H-1.91V-3.3h.338v-.9l.28-.032V-3.3h.935v.248h-.935v1.516c0,.354.063.555.375.555a.906.906,0,0,0,.48-.148l.074.254a1.111,1.111,0,0,1-.586.163c-.47,0-.623-.28-.623-.75" transform="translate(1.91 4.234)" fill="#898786"/>
  </g>
  <g id="Group_21181" data-name="Group 21181" transform="translate(77.215 24.63)">
    <path id="Path_13210" data-name="Path 13210" d="M-1.374-7.215H.443a.873.873,0,0,0-.871-.877.947.947,0,0,0-.945.877m2.092.232h-2.1A.96.96,0,0,0-.4-6a1,1,0,0,0,.824-.385l.2.169a1.214,1.214,0,0,1-1.03.481A1.236,1.236,0,0,1-1.67-7.046,1.236,1.236,0,0,1-.429-8.35,1.151,1.151,0,0,1,.723-7.11a.779.779,0,0,1,0,.127" transform="translate(1.67 8.35)" fill="#898786"/>
  </g>
  <g id="Group_21182" data-name="Group 21182" transform="translate(80.246 24.63)">
    <path id="Path_13211" data-name="Path 13211" d="M0-14.437H.28v.544H.29a.939.939,0,0,1,.871-.57H1.3v.312c-.058-.005-.116-.01-.164-.01-.523,0-.855.422-.855,1.029v1.257H0Z" transform="translate(0 14.464)" fill="#898786"/>
  </g>
  <g id="Group_21183" data-name="Group 21183" transform="translate(82.021 24.63)">
    <path id="Path_13212" data-name="Path 13212" d="M0-14.437H.28v.56H.285a1.026,1.026,0,0,1,.913-.586.8.8,0,0,1,.819.655h.01a1.032,1.032,0,0,1,.956-.655c.581,0,.871.412.871,1.114v1.473h-.28V-13.26c0-.628-.232-.945-.655-.945-.459,0-.835.412-.835,1.061v1.268h-.28V-13.26c0-.628-.248-.945-.671-.945-.481,0-.855.412-.855,1.061v1.268H0Z" transform="translate(0 14.464)" fill="#898786"/>
  </g>
  <g id="Group_21184" data-name="Group 21184" transform="translate(86.468 24.63)">
    <path id="Path_13213" data-name="Path 13213" d="M-1.374-7.215H.443a.873.873,0,0,0-.871-.877.947.947,0,0,0-.945.877m2.092.232h-2.1A.96.96,0,0,0-.4-6a1,1,0,0,0,.824-.385l.2.169a1.214,1.214,0,0,1-1.03.481A1.236,1.236,0,0,1-1.67-7.046,1.236,1.236,0,0,1-.429-8.35,1.151,1.151,0,0,1,.723-7.11a.779.779,0,0,1,0,.127" transform="translate(1.67 8.35)" fill="#898786"/>
  </g>
  <g id="Group_21185" data-name="Group 21185" transform="translate(89.331 23.331)">
    <path id="Path_13214" data-name="Path 13214" d="M-10.6-4.616a1,1,0,0,0-.987-1.072A1,1,0,0,0-12.6-4.616.979.979,0,0,0-11.59-3.6.975.975,0,0,0-10.6-4.616m-2.282-.005a1.258,1.258,0,0,1,1.262-1.326,1.1,1.1,0,0,1,1,.613h.01V-7.246h.275v3.887H-10.6v-.586h-.011a1.084,1.084,0,0,1-1.009.613,1.233,1.233,0,0,1-1.262-1.288" transform="translate(12.884 7.246)" fill="#898786"/>
  </g>
  <g id="Group_21186" data-name="Group 21186" transform="translate(92.652 23.642)">
    <path id="Path_13215" data-name="Path 13215" d="M1277.553,1043.042h.28v2.561h-.28Zm-.085-.787a.232.232,0,0,1,.465,0,.232.232,0,0,1-.465,0" transform="translate(-1277.468 -1042.028)" fill="#898786"/>
  </g>
  <g id="Group_21187" data-name="Group 21187" transform="translate(93.698 24.63)">
    <path id="Path_13216" data-name="Path 13216" d="M-10.578-5.915a1,1,0,0,0-.977-1.072,1,1,0,0,0-1.008,1.072.977.977,0,0,0,1,1.019.973.973,0,0,0,.983-1.019m-2.276-.005a1.261,1.261,0,0,1,1.262-1.326,1.093,1.093,0,0,1,1,.607h.005v-.581h.28v2.561h-.269v-.576l-.011-.005a1.088,1.088,0,0,1-1,.607A1.233,1.233,0,0,1-12.854-5.92" transform="translate(12.854 7.246)" fill="#898786"/>
  </g>
  <g id="Group_21188" data-name="Group 21188" transform="translate(96.767 23.721)">
    <path id="Path_13217" data-name="Path 13217" d="M-1.571-1.461v-1.59H-1.91V-3.3h.338v-.9l.28-.032V-3.3h.934v.248h-.934v1.516c0,.354.063.555.374.555a.908.908,0,0,0,.481-.148l.074.254a1.107,1.107,0,0,1-.586.163c-.47,0-.623-.28-.623-.75" transform="translate(1.91 4.234)" fill="#898786"/>
  </g>
  <g id="Group_21189" data-name="Group 21189" transform="translate(98.842 23.642)">
    <path id="Path_13218" data-name="Path 13218" d="M1312.509,1043.042h.28v2.561h-.28Zm-.084-.787a.232.232,0,0,1,.464,0,.232.232,0,1,1-.464,0" transform="translate(-1312.425 -1042.028)" fill="#898786"/>
  </g>
  <g id="Group_21190" data-name="Group 21190" transform="translate(99.898 24.63)">
    <path id="Path_13219" data-name="Path 13219" d="M-10.8-6.056a1,1,0,0,0-1.019-1.051,1,1,0,0,0-1.019,1.051,1,1,0,0,0,1.019,1.041A1,1,0,0,0-10.8-6.056m-2.324,0a1.269,1.269,0,0,1,1.3-1.31,1.264,1.264,0,0,1,1.3,1.31,1.266,1.266,0,0,1-1.3,1.3,1.265,1.265,0,0,1-1.3-1.3" transform="translate(13.122 7.366)" fill="#898786"/>
  </g>
  <g id="Group_21191" data-name="Group 21191" transform="translate(103.162 24.63)">
    <path id="Path_13220" data-name="Path 13220" d="M0-14.437H.28v.565H.29a1.076,1.076,0,0,1,.993-.592c.55,0,.9.354.9,1.056v1.531h-.28v-1.441c0-.655-.3-.887-.692-.887A.94.94,0,0,0,.28-13.149v1.272H0Z" transform="translate(0 14.464)" fill="#898786"/>
  </g>
  <g id="Group_21192" data-name="Group 21192" transform="translate(58.937 5.443)">
    <rect id="Rectangle_4602" data-name="Rectangle 4602" width="4.049" height="16.06" fill="#0f77bd"/>
  </g>
  <g id="Group_21193" data-name="Group 21193" transform="translate(64.593 9.967)">
    <path id="Path_13221" data-name="Path 13221" d="M-26.6-44.7a1.743,1.743,0,0,0-1.153.4,1.823,1.823,0,0,0-.611,1.1h3.438A1.6,1.6,0,0,0-26.6-44.7m5.587,2.6a6.66,6.66,0,0,1-.09,1.086h-7.261a1.691,1.691,0,0,0,.758,1.176,2.725,2.725,0,0,0,1.527.407,3.509,3.509,0,0,0,2.556-1.222l2.081,2.308A5.644,5.644,0,0,1-23.52-36.83a7.226,7.226,0,0,1-2.986.588,5.705,5.705,0,0,1-4.162-1.618A5.556,5.556,0,0,1-32.32-42.01,5.628,5.628,0,0,1-30.7-46.15a5.569,5.569,0,0,1,4.128-1.629,5.379,5.379,0,0,1,3.981,1.595A5.551,5.551,0,0,1-21.009-42.1" transform="translate(32.32 47.778)" fill="#0f77bd"/>
  </g>
  <g id="Group_21194" data-name="Group 21194" transform="translate(77.283 5.443)">
    <path id="Path_13222" data-name="Path 13222" d="M-37.934,16.06a8.313,8.313,0,0,1-5.852-2.123A7.567,7.567,0,0,1-46.1,8.074a8.128,8.128,0,0,1,2.145-5.786A7.622,7.622,0,0,1-38.11,0a8.879,8.879,0,0,1,3.542.759,7.592,7.592,0,0,1,2.9,2.145l-2.97,2.486A4.839,4.839,0,0,0-38.11,3.938a3.383,3.383,0,0,0-2.563,1.111,4.235,4.235,0,0,0-1.045,3.025,4.433,4.433,0,0,0,1.012,2.959,3.435,3.435,0,0,0,2.772,1.2,5.617,5.617,0,0,0,2.332-.506V10.275h-2.662V6.908h6.6v7.26a9.5,9.5,0,0,1-2.8,1.353,11.432,11.432,0,0,1-3.465.539" transform="translate(46.096)" fill="#0f77bd"/>
  </g>
  <g id="Group_21195" data-name="Group 21195" transform="translate(93.344 9.967)">
    <path id="Path_13223" data-name="Path 13223" d="M-21.6-16.206a1.878,1.878,0,0,0,1.437.622,1.844,1.844,0,0,0,1.425-.622,2.281,2.281,0,0,0,.566-1.6,2.267,2.267,0,0,0-.555-1.584A1.85,1.85,0,0,0-20.166-20a1.884,1.884,0,0,0-1.448.611,2.24,2.24,0,0,0-.566,1.584,2.255,2.255,0,0,0,.577,1.6m1.437,4.174a6.122,6.122,0,0,1-4.389-1.606,5.471,5.471,0,0,1-1.7-4.162,5.472,5.472,0,0,1,1.7-4.162,6.124,6.124,0,0,1,4.389-1.606A6.092,6.092,0,0,1-15.8-21.963,5.472,5.472,0,0,1-14.1-17.8a5.471,5.471,0,0,1-1.7,4.162,6.09,6.09,0,0,1-4.366,1.606" transform="translate(26.251 23.569)" fill="#0f77bd"/>
  </g>
</svg>
