<svg xmlns="http://www.w3.org/2000/svg" width="70.944" height="28.59" viewBox="0 0 70.944 28.59">
  <g id="Group_21094" data-name="Group 21094" transform="translate(0.134 0.134)">
    <rect id="Rectangle_4494" data-name="Rectangle 4494" width="2.414" height="8.798" transform="translate(30.122 9.4)" fill="#1a1818"/>
    <rect id="Rectangle_4495" data-name="Rectangle 4495" width="2.414" height="8.798" transform="translate(30.122 9.4)" fill="none" stroke="#1a1818" stroke-width="0.73"/>
    <path id="Path_13116" data-name="Path 13116" d="M81.865,618.35v6.98H79.452v-6.98H76.565v-1.818h8.188v1.818Z" transform="translate(-43.067 -607.132)" fill="#1a1818"/>
    <path id="Path_13117" data-name="Path 13117" d="M81.865,618.35v6.98H79.452v-6.98H76.565v-1.818h8.188v1.818Z" transform="translate(-43.067 -607.132)" fill="none" stroke="#1a1818" stroke-width="0.73"/>
    <path id="Path_13118" data-name="Path 13118" d="M91.607,620.9a3.886,3.886,0,0,1-.2,1.39,2.091,2.091,0,0,1-.54.836,2.112,2.112,0,0,1-.793.467,2.309,2.309,0,0,1-.75.111,2.135,2.135,0,0,1-1.543-.578,2.938,2.938,0,0,1-.738-2.187,3.658,3.658,0,0,1,.33-1.685,1.982,1.982,0,0,1,1.937-1.08,2.1,2.1,0,0,1,1.742.725,3.113,3.113,0,0,1,.553,2m2.453.014a4.491,4.491,0,0,0-1.134-3.207,4.8,4.8,0,0,0-3.64-1.315,4.72,4.72,0,0,0-3.533,1.278,4.589,4.589,0,0,0-1.161,3.281A4.483,4.483,0,0,0,85.7,624.12a5.543,5.543,0,0,0,7.239.037,4.537,4.537,0,0,0,1.121-3.244" transform="translate(-42.707 -607.139)" fill="#1a1818"/>
    <path id="Path_13119" data-name="Path 13119" d="M91.607,620.9a3.886,3.886,0,0,1-.2,1.39,2.091,2.091,0,0,1-.54.836,2.112,2.112,0,0,1-.793.467,2.309,2.309,0,0,1-.75.111,2.135,2.135,0,0,1-1.543-.578,2.938,2.938,0,0,1-.738-2.187,3.658,3.658,0,0,1,.33-1.685,1.982,1.982,0,0,1,1.937-1.08,2.1,2.1,0,0,1,1.742.725A3.113,3.113,0,0,1,91.607,620.9Zm2.453.014a4.491,4.491,0,0,0-1.134-3.207,4.8,4.8,0,0,0-3.64-1.315,4.72,4.72,0,0,0-3.533,1.278,4.589,4.589,0,0,0-1.161,3.281A4.483,4.483,0,0,0,85.7,624.12a5.543,5.543,0,0,0,7.239.037A4.537,4.537,0,0,0,94.06,620.913Z" transform="translate(-42.707 -607.139)" fill="none" stroke="#1a1818" stroke-width="0.73"/>
    <path id="Path_13120" data-name="Path 13120" d="M100.393,625.329v-3.7H96.925v3.7H94.512v-8.8h2.413v3.281h3.468v-3.281H102.8v8.8Z" transform="translate(-42.263 -607.132)" fill="#1a1818"/>
    <path id="Path_13121" data-name="Path 13121" d="M100.393,625.329v-3.7H96.925v3.7H94.512v-8.8h2.413v3.281h3.468v-3.281H102.8v8.8Z" transform="translate(-42.263 -607.132)" fill="none" stroke="#1a1818" stroke-width="0.73"/>
    <path id="Path_13122" data-name="Path 13122" d="M79.19,630.424a2.061,2.061,0,0,1-2.374,2.643H75.747v-5.334h.791a3.49,3.49,0,0,1,1.846.355,2.707,2.707,0,0,1,.806,2.335m2.452-.049a5.513,5.513,0,0,0-.395-2.149,3.552,3.552,0,0,0-1.266-1.55,3.2,3.2,0,0,0-1.24-.553,9.042,9.042,0,0,0-1.5-.122h-3.9v8.8H77.3a6.449,6.449,0,0,0,1.583-.184,3.426,3.426,0,0,0,1.239-.589,3.847,3.847,0,0,0,1.306-1.943,5.836,5.836,0,0,0,.211-1.708" transform="translate(-43.211 -606.709)" fill="#1a1818"/>
    <path id="Path_13123" data-name="Path 13123" d="M79.19,630.424a2.061,2.061,0,0,1-2.374,2.643H75.747v-5.334h.791a3.49,3.49,0,0,1,1.846.355A2.707,2.707,0,0,1,79.19,630.424Zm2.452-.049a5.513,5.513,0,0,0-.395-2.149,3.552,3.552,0,0,0-1.266-1.55,3.2,3.2,0,0,0-1.24-.553,9.042,9.042,0,0,0-1.5-.122h-3.9v8.8H77.3a6.449,6.449,0,0,0,1.583-.184,3.426,3.426,0,0,0,1.239-.589,3.847,3.847,0,0,0,1.306-1.943A5.836,5.836,0,0,0,81.642,630.374Z" transform="translate(-43.211 -606.709)" fill="none" stroke="#1a1818" stroke-width="0.73"/>
    <path id="Path_13124" data-name="Path 13124" d="M82.3,634.8V626h7.41v1.683h-5v1.685h4.643V631H84.708v2.065h5.156V634.8Z" transform="translate(-42.81 -606.709)" fill="#1a1818"/>
    <path id="Path_13125" data-name="Path 13125" d="M82.3,634.8V626h7.41v1.683h-5v1.685h4.643V631H84.708v2.065h5.156V634.8Z" transform="translate(-42.81 -606.709)" fill="none" stroke="#1a1818" stroke-width="0.73"/>
    <path id="Path_13126" data-name="Path 13126" d="M96.546,634.8l-3.639-5.285L92.88,634.8H90.625V626h2.282l3.692,5.372L96.625,626h2.254v8.8Z" transform="translate(-42.437 -606.709)" fill="#1a1818"/>
    <path id="Path_13127" data-name="Path 13127" d="M96.546,634.8l-3.639-5.285L92.88,634.8H90.625V626h2.282l3.692,5.372L96.625,626h2.254v8.8Z" transform="translate(-42.437 -606.709)" fill="none" stroke="#1a1818" stroke-width="0.73"/>
    <path id="Path_13128" data-name="Path 13128" d="M105.923,634.8l-2.348-3.969-1.463,1.462V634.8H99.7V626h2.413v3.736L105.238,626h3.125l-3.177,3.195,3.771,5.605Z" transform="translate(-42.031 -606.709)" fill="#1a1818"/>
    <path id="Path_13129" data-name="Path 13129" d="M105.923,634.8l-2.348-3.969-1.463,1.462V634.8H99.7V626h2.413v3.736L105.238,626h3.125l-3.177,3.195,3.771,5.605Z" transform="translate(-42.031 -606.709)" fill="none" stroke="#1a1818" stroke-width="0.73"/>
    <rect id="Rectangle_4496" data-name="Rectangle 4496" width="2.413" height="8.8" transform="translate(68.032 19.29)" fill="#1a1818"/>
    <rect id="Rectangle_4497" data-name="Rectangle 4497" width="2.413" height="8.8" transform="translate(68.032 19.29)" fill="none" stroke="#1a1818" stroke-width="0.73"/>
    <rect id="Rectangle_4498" data-name="Rectangle 4498" width="9.222" height="9.222" transform="translate(61.458 9.177)" fill="#ffc900"/>
    <rect id="Rectangle_4499" data-name="Rectangle 4499" width="28.389" height="28.287" transform="translate(0 0)" fill="#1a1818"/>
    <rect id="Rectangle_4500" data-name="Rectangle 4500" width="28.389" height="28.287" transform="translate(0 0)" fill="none" stroke="#1a1818" stroke-width="0.268"/>
    <path id="Path_13130" data-name="Path 13130" d="M52.288,625.535v.479h-.37v1.9H51.3v-1.9h-.364v-.479Z" transform="translate(-44.214 -606.729)" fill="#fff"/>
    <path id="Path_13131" data-name="Path 13131" d="M52.367,625.535H53.4v.479h-.411v.448h.383v.449h-.383v.52h.449v.477H52.367Z" transform="translate(-44.15 -606.729)" fill="#fff"/>
    <path id="Path_13132" data-name="Path 13132" d="M55,626.571h-.619v-.413a.764.764,0,0,0-.02-.225.088.088,0,0,0-.088-.044c-.052,0-.085.016-.1.053a.783.783,0,0,0-.021.234v1.1a.743.743,0,0,0,.021.227.089.089,0,0,0,.093.05.09.09,0,0,0,.092-.05.917.917,0,0,0,.021-.251v-.3H55v.091a1.783,1.783,0,0,1-.053.523.536.536,0,0,1-.23.272.8.8,0,0,1-.441.115.929.929,0,0,1-.449-.1.48.48,0,0,1-.234-.271,1.818,1.818,0,0,1-.055-.521v-.694a2.936,2.936,0,0,1,.017-.384.533.533,0,0,1,.106-.247.571.571,0,0,1,.242-.187.865.865,0,0,1,.356-.069.877.877,0,0,1,.451.106.511.511,0,0,1,.234.263,1.559,1.559,0,0,1,.056.489Z" transform="translate(-44.097 -606.731)" fill="#fff"/>
    <path id="Path_13133" data-name="Path 13133" d="M56.573,625.535v2.374h-.618v-1h-.184v1h-.617v-2.374h.617v.849h.184v-.849Z" transform="translate(-44.025 -606.729)" fill="#fff"/>
    <path id="Path_13134" data-name="Path 13134" d="M58.125,625.535v2.374h-.542l-.32-1.079v1.079h-.515v-2.374h.515l.346,1.069v-1.069Z" transform="translate(-43.954 -606.729)" fill="#fff"/>
    <path id="Path_13135" data-name="Path 13135" d="M59.1,627.237a1.194,1.194,0,0,1-.018.265.078.078,0,0,1-.083.054.076.076,0,0,1-.079-.047,1.149,1.149,0,0,1-.016-.254v-1.107a.543.543,0,0,1,.025-.221.087.087,0,0,1,.075-.038.077.077,0,0,1,.076.045.779.779,0,0,1,.019.214Zm.617-.717a5.058,5.058,0,0,0-.018-.512.557.557,0,0,0-.111-.272.533.533,0,0,0-.243-.185.959.959,0,0,0-.7,0,.558.558,0,0,0-.24.189.566.566,0,0,0-.107.273,5,5,0,0,0-.017.5v.405a5.1,5.1,0,0,0,.018.514.55.55,0,0,0,.11.27.561.561,0,0,0,.244.188.9.9,0,0,0,.344.062.867.867,0,0,0,.353-.067.561.561,0,0,0,.345-.459,5.074,5.074,0,0,0,.018-.508Z" transform="translate(-43.885 -606.731)" fill="#fff"/>
    <path id="Path_13136" data-name="Path 13136" d="M60.494,625.535v1.9h.373v.477h-.99v-2.374Z" transform="translate(-43.814 -606.729)" fill="#fff"/>
    <path id="Path_13137" data-name="Path 13137" d="M61.718,627.237a1.109,1.109,0,0,1-.019.265.076.076,0,0,1-.081.054.074.074,0,0,1-.078-.047,1.059,1.059,0,0,1-.017-.254v-1.107a.517.517,0,0,1,.026-.221.083.083,0,0,1,.073-.038.077.077,0,0,1,.077.045.738.738,0,0,1,.019.214Zm.617-.717a5.059,5.059,0,0,0-.018-.512.556.556,0,0,0-.11-.272.544.544,0,0,0-.246-.185.956.956,0,0,0-.695,0,.557.557,0,0,0-.24.189.565.565,0,0,0-.106.273,4.7,4.7,0,0,0-.017.5v.405a4.877,4.877,0,0,0,.017.514.542.542,0,0,0,.111.27.552.552,0,0,0,.243.188.9.9,0,0,0,.344.062.867.867,0,0,0,.353-.067.566.566,0,0,0,.239-.187.6.6,0,0,0,.107-.272c.01-.1.017-.269.017-.508Z" transform="translate(-43.768 -606.731)" fill="#fff"/>
    <path id="Path_13138" data-name="Path 13138" d="M63.911,626.411h-.617V626.2a1.06,1.06,0,0,0-.018-.255.078.078,0,0,0-.083-.051.079.079,0,0,0-.079.044.709.709,0,0,0-.021.226V627.3a.729.729,0,0,0,.02.211.081.081,0,0,0,.081.049.092.092,0,0,0,.092-.055.7.7,0,0,0,.023-.223V627H63.19v-.364h.721v1.275h-.39l-.057-.171a.432.432,0,0,1-.159.165.458.458,0,0,1-.228.053.57.57,0,0,1-.29-.075.544.544,0,0,1-.206-.186.584.584,0,0,1-.088-.234,2.857,2.857,0,0,1-.018-.368v-.7a2.383,2.383,0,0,1,.037-.493.518.518,0,0,1,.21-.282.749.749,0,0,1,.45-.129.852.852,0,0,1,.451.111.528.528,0,0,1,.233.266,1.377,1.377,0,0,1,.054.443Z" transform="translate(-43.697 -606.731)" fill="#fff"/>
    <path id="Path_13139" data-name="Path 13139" d="M65.4,625.535l-.451,1.514v.86H64.38v-.86l-.435-1.514h.567c.088.465.138.78.15.939q.058-.379.173-.939Z" transform="translate(-43.632 -606.729)" fill="#fff"/>
    <path id="Path_13140" data-name="Path 13140" d="M56.109,628.409H57.15v.477h-.422v.45H57.1v.448h-.374v1h-.618Z" transform="translate(-43.982 -606.601)" fill="#fff"/>
    <path id="Path_13141" data-name="Path 13141" d="M58.045,630.113a1.13,1.13,0,0,1-.017.263.077.077,0,0,1-.081.056.073.073,0,0,1-.079-.05,1.125,1.125,0,0,1-.017-.253v-1.109a.546.546,0,0,1,.025-.219.085.085,0,0,1,.075-.039.074.074,0,0,1,.076.045.8.8,0,0,1,.018.213Zm.62-.718a4.656,4.656,0,0,0-.019-.512.575.575,0,0,0-.354-.458.9.9,0,0,0-.344-.063.856.856,0,0,0-.352.066.57.57,0,0,0-.24.188.541.541,0,0,0-.1.272,4.646,4.646,0,0,0-.019.507v.405a4.7,4.7,0,0,0,.019.514.561.561,0,0,0,.11.269.571.571,0,0,0,.243.187.9.9,0,0,0,.344.064.868.868,0,0,0,.354-.069.557.557,0,0,0,.239-.189.534.534,0,0,0,.1-.27,4.646,4.646,0,0,0,.019-.507Z" transform="translate(-43.932 -606.603)" fill="#fff"/>
    <path id="Path_13142" data-name="Path 13142" d="M59.587,628.849a.21.21,0,0,1,.041.151v.132c0,.106-.015.166-.042.186a.272.272,0,0,1-.143.028v-.531a.243.243,0,0,1,.144.033m-.763,1.933h.618v-1.067c.083,0,.135.014.154.045a.523.523,0,0,1,.031.236v.786H60.2v-.624a2.234,2.234,0,0,0-.015-.351.354.354,0,0,0-.078-.138.454.454,0,0,0-.247-.122.358.358,0,0,0,.272-.115.707.707,0,0,0,.068-.373.787.787,0,0,0-.1-.443.4.4,0,0,0-.252-.173,3.4,3.4,0,0,0-.591-.033h-.437Z" transform="translate(-43.861 -606.601)" fill="#fff"/>
    <path id="Path_13143" data-name="Path 13143" d="M52.72,631.283v.477h-.369v1.9h-.617v-1.9h-.364v-.477Z" transform="translate(-44.195 -606.472)" fill="#fff"/>
    <path id="Path_13144" data-name="Path 13144" d="M53.592,632.986a1.167,1.167,0,0,1-.018.264.077.077,0,0,1-.083.056.07.07,0,0,1-.077-.05A.967.967,0,0,1,53.4,633V631.9a.539.539,0,0,1,.025-.221.088.088,0,0,1,.075-.039.077.077,0,0,1,.076.047.73.73,0,0,1,.019.213Zm.617-.717a4.988,4.988,0,0,0-.018-.511.567.567,0,0,0-.355-.46.887.887,0,0,0-.342-.063.86.86,0,0,0-.353.067.57.57,0,0,0-.347.462c-.01.1-.017.265-.017.5v.407a5.054,5.054,0,0,0,.018.511.558.558,0,0,0,.111.272.575.575,0,0,0,.244.186.91.91,0,0,0,.344.063.87.87,0,0,0,.351-.066.568.568,0,0,0,.241-.188.578.578,0,0,0,.106-.274c.01-.1.017-.266.017-.5Z" transform="translate(-44.132 -606.474)" fill="#fff"/>
    <path id="Path_13145" data-name="Path 13145" d="M56.271,631.283v2.374h-.542l0-1.6-.214,1.6h-.374l-.225-1.569,0,1.569H54.37v-2.374h.8c.021.145.045.313.073.506l.088.6.14-1.11Z" transform="translate(-44.06 -606.472)" fill="#fff"/>
    <path id="Path_13146" data-name="Path 13146" d="M57.222,632.986a1.167,1.167,0,0,1-.018.264.078.078,0,0,1-.081.056.073.073,0,0,1-.079-.05,1.131,1.131,0,0,1-.016-.253V631.9a.52.52,0,0,1,.025-.221.085.085,0,0,1,.075-.039.077.077,0,0,1,.075.047.73.73,0,0,1,.019.213Zm.617-.717c0-.243-.006-.416-.017-.511a.572.572,0,0,0-.355-.46.9.9,0,0,0-.344-.063.862.862,0,0,0-.352.067.565.565,0,0,0-.24.189.557.557,0,0,0-.106.273,4.929,4.929,0,0,0-.018.5v.407a4.676,4.676,0,0,0,.019.511.557.557,0,0,0,.11.272.581.581,0,0,0,.244.186.909.909,0,0,0,.343.063.88.88,0,0,0,.353-.066.572.572,0,0,0,.24-.188.578.578,0,0,0,.106-.274c.011-.1.017-.266.017-.5Z" transform="translate(-43.969 -606.474)" fill="#fff"/>
    <path id="Path_13147" data-name="Path 13147" d="M58.763,631.725a.205.205,0,0,1,.04.148v.133c0,.106-.014.167-.041.187a.274.274,0,0,1-.143.028v-.532a.216.216,0,0,1,.144.035M58,633.657h.617V632.59c.083,0,.135.014.155.044a.557.557,0,0,1,.029.237v.786h.574v-.625a2.207,2.207,0,0,0-.015-.35.352.352,0,0,0-.078-.139.461.461,0,0,0-.246-.122.348.348,0,0,0,.27-.115.684.684,0,0,0,.069-.372.8.8,0,0,0-.1-.444.4.4,0,0,0-.252-.172,3.388,3.388,0,0,0-.591-.034H58Z" transform="translate(-43.898 -606.472)" fill="#fff"/>
    <path id="Path_13148" data-name="Path 13148" d="M60.311,631.725a.2.2,0,0,1,.04.148v.133c0,.106-.015.167-.041.187a.273.273,0,0,1-.144.028v-.532a.218.218,0,0,1,.145.035m-.762,1.932h.616V632.59c.085,0,.136.014.155.044a.534.534,0,0,1,.03.237v.786h.575v-.625a2.15,2.15,0,0,0-.016-.35.365.365,0,0,0-.078-.139.457.457,0,0,0-.247-.122.354.354,0,0,0,.272-.115.7.7,0,0,0,.069-.372.778.778,0,0,0-.1-.444.4.4,0,0,0-.251-.172,3.388,3.388,0,0,0-.591-.034h-.436Z" transform="translate(-43.828 -606.472)" fill="#fff"/>
    <path id="Path_13149" data-name="Path 13149" d="M61.889,632.986a1.03,1.03,0,0,1-.019.264.076.076,0,0,1-.08.056.072.072,0,0,1-.079-.05,1.131,1.131,0,0,1-.016-.253V631.9a.52.52,0,0,1,.025-.221.087.087,0,0,1,.075-.039.076.076,0,0,1,.075.047.77.77,0,0,1,.019.213Zm.617-.717a4.7,4.7,0,0,0-.018-.511.548.548,0,0,0-.111-.273.558.558,0,0,0-.243-.187.894.894,0,0,0-.344-.063.855.855,0,0,0-.352.067.559.559,0,0,0-.24.189.58.58,0,0,0-.107.273q-.016.146-.016.5v.407c0,.243.006.412.017.511a.577.577,0,0,0,.11.272.591.591,0,0,0,.246.186.913.913,0,0,0,.343.063.88.88,0,0,0,.353-.066.567.567,0,0,0,.346-.462,5.038,5.038,0,0,0,.017-.5Z" transform="translate(-43.76 -606.474)" fill="#fff"/>
    <path id="Path_13150" data-name="Path 13150" d="M64.992,631.283l-.277,2.374h-.769c-.069-.364-.132-.781-.188-1.248q-.041.3-.174,1.248H62.82l-.278-2.374h.6l.065.83.063.8q.038-.622.172-1.631h.637c.006.07.027.332.064.784l.075.907q.053-.865.17-1.69Z" transform="translate(-43.694 -606.472)" fill="#fff"/>
    <rect id="Rectangle_4501" data-name="Rectangle 4501" width="5.729" height="10.523" transform="translate(2.083 6.639)" fill="#fff"/>
    <rect id="Rectangle_4502" data-name="Rectangle 4502" width="5.729" height="10.523" transform="translate(2.083 6.639)" fill="none" stroke="#1a1818" stroke-width="0.085"/>
    <path id="Path_13151" data-name="Path 13151" d="M65.532,618.985a2.865,2.865,0,0,1-1.3,2.6,3.9,3.9,0,0,1-2.115.54,4.372,4.372,0,0,1-2.046-.453,2.765,2.765,0,0,1-1.4-2.645,3.17,3.17,0,0,1,.854-2.34,3.557,3.557,0,0,1,2.591-.846,3.4,3.4,0,0,1,2.524.912,3.112,3.112,0,0,1,.886,2.23m5.7,5.638v-15.53H65.572v5.493a10.948,10.948,0,0,0-1.915-.955,10.449,10.449,0,0,0-3.342-.5,9.19,9.19,0,0,0-5.014,1.28,4.909,4.909,0,0,0-2.3,4.532,5.2,5.2,0,0,0,1.9,4.245,7.928,7.928,0,0,0,5.286,1.69,9.957,9.957,0,0,0,3.784-.695,3.057,3.057,0,0,0,1.59-1.212v1.648Z" transform="translate(-44.122 -607.465)" fill="#fff"/>
    <path id="Path_13152" data-name="Path 13152" d="M65.532,618.985a2.865,2.865,0,0,1-1.3,2.6,3.9,3.9,0,0,1-2.115.54,4.372,4.372,0,0,1-2.046-.453,2.765,2.765,0,0,1-1.4-2.645,3.17,3.17,0,0,1,.854-2.34,3.557,3.557,0,0,1,2.591-.846,3.4,3.4,0,0,1,2.524.912A3.112,3.112,0,0,1,65.532,618.985Zm5.7,5.638v-15.53H65.572v5.493a10.948,10.948,0,0,0-1.915-.955,10.449,10.449,0,0,0-3.342-.5,9.19,9.19,0,0,0-5.014,1.28,4.909,4.909,0,0,0-2.3,4.532,5.2,5.2,0,0,0,1.9,4.245,7.928,7.928,0,0,0,5.286,1.69,9.957,9.957,0,0,0,3.784-.695,3.057,3.057,0,0,0,1.59-1.212v1.648Z" transform="translate(-44.122 -607.465)" fill="none" stroke="#1a1818" stroke-width="0.085"/>
    <path id="Path_13153" data-name="Path 13153" d="M49.4,614.073l-4.077-4.994h8.4Z" transform="translate(-44.465 -607.466)" fill="#ffc900"/>
    <path id="Path_13154" data-name="Path 13154" d="M69.393,633.946a1.217,1.217,0,1,0-1-1.2,1.114,1.114,0,0,0,1,1.2m-.824-1.2a.838.838,0,1,1,.824.992.919.919,0,0,1-.824-.992" transform="translate(-43.433 -606.46)" fill="#fff"/>
    <path id="Path_13155" data-name="Path 13155" d="M68.958,632.013a3.626,3.626,0,0,1,.6-.005.346.346,0,0,1,.312.388.5.5,0,0,1-.2.39,1.1,1.1,0,0,1,.071.152c.016.062-.006.148.008.2a1.176,1.176,0,0,1,.085.27c.01.121-.146.112-.194.046a1.716,1.716,0,0,1-.081-.455c0-.037-.055-.177-.132-.177h-.377v.615c0,.075-.171.065-.171,0v-1.321c0-.044.026-.1.075-.1m.108.219v.352h.514c.1,0,.157-.352,0-.352Z" transform="translate(-43.411 -606.44)" fill="#fff"/>
  </g>
</svg>
