<svg xmlns="http://www.w3.org/2000/svg" xmlns:xlink="http://www.w3.org/1999/xlink" width="800" height="992.742" viewBox="0 0 800 992.742">
  <defs>
    <clipPath id="clip-path">
      <rect id="Rectangle_4678" data-name="Rectangle 4678" width="800" height="926" transform="translate(1120 229)" fill="#fff" stroke="#707070" stroke-width="1"/>
    </clipPath>
  </defs>
  <g id="Group_21363" data-name="Group 21363" transform="translate(-1135 -155.258)">
    <g id="Mask_Group_14156" data-name="Mask Group 14156" transform="translate(15 -7)" clip-path="url(#clip-path)">
      <circle id="Ellipse_980" data-name="Ellipse 980" cx="508" cy="508" r="508" transform="translate(1141 417)" fill="#fff7f3"/>
    </g>
    <g id="Group_21040" data-name="Group 21040" transform="translate(-424.943 -105.779)">
      <g id="Group_20960" data-name="Group 20960" transform="translate(1960.283 261.037)">
        <g id="Group_16639" data-name="Group 16639" transform="translate(136.494 57.991)">
          <path id="Path_8423" data-name="Path 8423" d="M252.678,98.879h-13.3v5.729h3.61v15.52h6.943v-15.52h2.747Z" transform="translate(-190.465 -98.879)" fill="#e0f1f2"/>
          <rect id="Rectangle_3527" data-name="Rectangle 3527" width="132.296" height="8.668" transform="translate(0 83.573)" fill="#fff"/>
          <path id="Path_8424" data-name="Path 8424" d="M293.947,107.948h-50.49l-38.081,70.146H332.028Z" transform="translate(-202.246 -94.319)" fill="#e4f2f3"/>
          <path id="Path_13083" data-name="Path 13083" d="M0,0H124.081V233.851H0Z" transform="translate(5.065 87.641)" fill="#e8f6f7"/>
          <path id="Path_8425" data-name="Path 8425" d="M314.989,178.014v-10.4h9.941l-.5-.918h-16.6V155.644h10.6l-.5-.918H302.06V143.674h9.872l-.5-.92H294.99V131.7h10.443l-.5-.918H302.06v-5.293l-.885-1.633v6.926H286.451V119.73h12.483l-.5-.918h-3.113v-5.735l-.886-1.631v7.367h-14.5V108.146h-.886v10.666h-14.5V108.146h-.886v10.666h-14.5V108.146h-.886v10.666h-12.2l-.5.918H239.4v11.054h-9.832l-.5.918h3.259v11.052h-9.258l-.5.92h2.045v11.052h-8.045l-.5.918h14.317V166.7H210.068l-.5.918h11.881v10.4h.886v-10.4h13.9v10.4h.886v-10.4h14.5v10.4h.886v-10.4h14.5v10.4h.886v-10.4h14.5v10.4h.886v-10.4h14.725v10.4h.886v-10.4h15.2v10.4Zm-13.814-34.34v11.052H286.451V143.674ZM294.1,131.7v11.052H279.379V131.7Zm-45.5,11.052V131.7h14.5v11.052Zm6.184.92v11.052h-14.5V143.674Zm.886,0h14.5v11.052h-14.5Zm8.319-.92V131.7h14.5v11.052Zm7.072.92h14.5v11.052h-14.5Zm0-23.944h14.5v11.054h-14.5Zm-15.39,0h14.5v11.054h-14.5Zm-15.389,0h14.5v11.054h-14.5ZM233.211,131.7h14.5v11.052h-14.5ZM225.5,154.726V143.674h13.9v11.052ZM245.17,166.7h-13.9V155.644h13.9Zm15.389,0h-14.5V155.644h14.5Zm15.389,0h-14.5V155.644h14.5Zm15.389,0h-14.5V155.644h14.5Zm15.611,0H292.223V155.644h14.725Z" transform="translate(-200.794 -95.214)" fill="#fff"/>
          <rect id="Rectangle_3529" data-name="Rectangle 3529" width="128.322" height="4.722" transform="translate(3.13 90.603)" fill="#fff"/>
          <ellipse id="Ellipse_627" data-name="Ellipse 627" cx="19.966" cy="20.693" rx="19.966" ry="20.693" transform="translate(45.83 105.257)" fill="#fff"/>
          <path id="Path_8426" data-name="Path 8426" d="M249.387,263.107V230.638a14.71,14.71,0,1,0-29.4,0v32.469Z" transform="translate(-197.184 -52.794)" fill="#f6fbfc"/>
          <path id="Path_8427" data-name="Path 8427" d="M293.126,263.107V230.638a14.71,14.71,0,1,0-29.4,0v32.469Z" transform="translate(-182.03 -52.794)" fill="#f6fbfc"/>
          <ellipse id="Ellipse_628" data-name="Ellipse 628" cx="16.214" cy="16.805" rx="16.214" ry="16.805" transform="translate(49.582 109.146)" fill="#e8f6f7"/>
          <g id="Group_16634" data-name="Group 16634" transform="translate(48.593 108.141)">
            <g id="Group_16632" data-name="Group 16632" transform="translate(16.835)">
              <rect id="Rectangle_3530" data-name="Rectangle 3530" width="1.266" height="36.208" fill="#fff"/>
            </g>
            <g id="Group_16633" data-name="Group 16633" transform="translate(0 17.448)">
              <rect id="Rectangle_3531" data-name="Rectangle 3531" width="34.936" height="1.312" fill="#fff"/>
            </g>
          </g>
          <g id="Group_16635" data-name="Group 16635" transform="translate(10.28 103.954)" opacity="0.35" style="mix-blend-mode: multiply;isolation: isolate">
            <rect id="Rectangle_3532" data-name="Rectangle 3532" width="16.342" height="6.053" rx="1.385" transform="translate(0.21 18.605)" fill="#dfebec"/>
            <rect id="Rectangle_3533" data-name="Rectangle 3533" width="10.876" height="6.053" rx="1.385" transform="translate(98.033 11.348)" fill="#dfebec"/>
            <rect id="Rectangle_3534" data-name="Rectangle 3534" width="16.342" height="6.054" rx="1.385" transform="translate(80.609)" fill="#dfebec"/>
            <rect id="Rectangle_3535" data-name="Rectangle 3535" width="16.342" height="6.053" rx="1.385" transform="translate(16.354 1.16)" fill="#dfebec"/>
            <rect id="Rectangle_3536" data-name="Rectangle 3536" width="16.342" height="6.054" rx="1.385" transform="translate(79.86 29.734)" fill="#dfebec"/>
            <path id="Rectangle_3537" data-name="Rectangle 3537" d="M2.471,0H14.29a2.472,2.472,0,0,1,2.472,2.472V4.807A2.471,2.471,0,0,1,14.29,7.278H2.471A2.471,2.471,0,0,1,0,4.807V2.471A2.471,2.471,0,0,1,2.471,0Z" transform="translate(58.467 113.072)" fill="#dfebec"/>
            <rect id="Rectangle_3538" data-name="Rectangle 3538" width="12.814" height="5.564" rx="1.385" transform="translate(0 124.554)" fill="#dfebec"/>
            <rect id="Rectangle_3539" data-name="Rectangle 3539" width="13.457" height="6.054" rx="1.385" transform="translate(99.285 47.478)" fill="#dfebec"/>
            <rect id="Rectangle_3540" data-name="Rectangle 3540" width="13.457" height="6.053" rx="1.385" transform="translate(97.011 117.324)" fill="#dfebec"/>
            <rect id="Rectangle_3541" data-name="Rectangle 3541" width="16.18" height="7.278" rx="1.385" transform="translate(92.416 178.862)" fill="#dfebec"/>
            <rect id="Rectangle_3542" data-name="Rectangle 3542" width="11.765" height="6.053" rx="1.385" transform="translate(18.643 33.3)" fill="#dfebec"/>
            <rect id="Rectangle_3543" data-name="Rectangle 3543" width="14.145" height="7.278" rx="1.385" transform="translate(65.593 168.76)" fill="#dfebec"/>
            <rect id="Rectangle_3544" data-name="Rectangle 3544" width="11.765" height="6.053" rx="1.385" transform="translate(42.002 54.123)" fill="#dfebec"/>
            <rect id="Rectangle_3545" data-name="Rectangle 3545" width="11.764" height="6.054" rx="1.385" transform="translate(2.773 49.857)" fill="#dfebec"/>
          </g>
          <path id="Path_8428" data-name="Path 8428" d="M244.859,261.227V230.153a11.105,11.105,0,1,0-22.2,0v31.074Z" transform="translate(-196.257 -51.51)" fill="#e0f1f2"/>
          <path id="Path_8429" data-name="Path 8429" d="M244.859,239.472H234.432V218.685c-.224-.013-.444-.035-.671-.035s-.447.022-.671.035v20.787H222.662v1.39H233.09v20.109h1.341V240.862h10.427Z" transform="translate(-196.257 -51.51)" fill="#fff"/>
          <path id="Path_8430" data-name="Path 8430" d="M288.6,261.227V230.153a11.105,11.105,0,1,0-22.2,0v31.074Z" transform="translate(-181.103 -51.51)" fill="#e0f1f2"/>
          <path id="Path_8431" data-name="Path 8431" d="M288.6,239.472H278.171V218.685c-.224-.013-.444-.035-.671-.035s-.447.022-.671.035v20.787H266.4v1.39h10.429v20.109h1.341V240.862H288.6Z" transform="translate(-181.103 -51.51)" fill="#fff"/>
          <g id="Group_16638" data-name="Group 16638" transform="translate(76.286 234.11)">
            <path id="Rectangle_3546" data-name="Rectangle 3546" d="M2.6,0H39.67a2.6,2.6,0,0,1,2.6,2.6V29.821a0,0,0,0,1,0,0H0a0,0,0,0,1,0,0V2.6A2.6,2.6,0,0,1,2.6,0Z" fill="#e8f6f7"/>
            <g id="Group_16636" data-name="Group 16636" transform="translate(20.909)">
              <rect id="Rectangle_3547" data-name="Rectangle 3547" width="1.341" height="30.011" fill="#fff"/>
            </g>
            <g id="Group_16637" data-name="Group 16637" transform="translate(0 15.637)">
              <rect id="Rectangle_3548" data-name="Rectangle 3548" width="42.143" height="1.39" fill="#fff"/>
            </g>
          </g>
          <path id="Path_8432" data-name="Path 8432" d="M260.746,331.749H223.4V279.532c0-10.688,8.36-19.354,18.674-19.354h0c10.313,0,18.673,8.666,18.673,19.354Z" transform="translate(-196.002 -35.086)" fill="#fff"/>
          <path id="Path_8433" data-name="Path 8433" d="M248.239,287.791a2.317,2.317,0,1,1-2.316-2.4A2.359,2.359,0,0,1,248.239,287.791Z" transform="translate(-189 -25.114)" fill="#e0f1f2"/>
          <rect id="Rectangle_3549" data-name="Rectangle 3549" width="35.719" height="6.231" rx="1.015" transform="translate(19.644 206.346)" fill="#fff"/>
          <rect id="Rectangle_3550" data-name="Rectangle 3550" width="35.718" height="6.231" rx="1.015" transform="translate(78.538 206.346)" fill="#fff"/>
          <rect id="Rectangle_3551" data-name="Rectangle 3551" width="48.385" height="5.346" rx="0.794" transform="translate(73.228 260.584)" fill="#fff"/>
          <rect id="Rectangle_3552" data-name="Rectangle 3552" width="42.92" height="11.416" transform="translate(24.611 288.778)" fill="#fff"/>
          <rect id="Rectangle_3553" data-name="Rectangle 3553" width="51.898" height="10.732" transform="translate(20.122 296.412)" fill="#fff"/>
        </g>
        <g id="Group_16682" data-name="Group 16682" transform="translate(0)">
          <path id="Path_13084" data-name="Path 13084" d="M0,0H127.032V233.937H0V0Z" transform="translate(15.888 136.938)" fill="#e4f2f3"/>
          <path id="Rectangle_3555" data-name="Rectangle 3555" d="M17.313,0H33.275A17.313,17.313,0,0,1,50.589,17.313V86.9a0,0,0,0,1,0,0H0a0,0,0,0,1,0,0V17.313A17.313,17.313,0,0,1,17.313,0Z" transform="translate(54.79 275.125)" fill="#fff"/>
          <g id="Group_16643" data-name="Group 16643" transform="translate(65.001 232.32)">
            <ellipse id="Ellipse_629" data-name="Ellipse 629" cx="15.083" cy="15.202" rx="15.083" ry="15.202" fill="#fff"/>
            <ellipse id="Ellipse_630" data-name="Ellipse 630" cx="11.838" cy="11.93" rx="11.838" ry="11.93" transform="translate(3.246 3.271)" fill="#e8f6f7"/>
            <g id="Group_16642" data-name="Group 16642" transform="translate(3.373 3.271)">
              <g id="Group_16640" data-name="Group 16640" transform="translate(11.133)">
                <rect id="Rectangle_3556" data-name="Rectangle 3556" width="1.155" height="23.861" fill="#fff"/>
              </g>
              <g id="Group_16641" data-name="Group 16641" transform="translate(0 11.349)">
                <rect id="Rectangle_3557" data-name="Rectangle 3557" width="23.42" height="1.164" fill="#fff"/>
              </g>
            </g>
          </g>
          <g id="Group_16644" data-name="Group 16644" transform="translate(57.948 278.231)">
            <path id="Rectangle_3558" data-name="Rectangle 3558" d="M15.151,0H29.12A15.151,15.151,0,0,1,44.272,15.151V81.429a0,0,0,0,1,0,0H0a0,0,0,0,1,0,0V15.151A15.151,15.151,0,0,1,15.151,0Z" fill="#e4f2f3"/>
            <path id="Path_8434" data-name="Path 8434" d="M176.458,281.519a2.078,2.078,0,1,1-2.078-2.095A2.086,2.086,0,0,1,176.458,281.519Z" transform="translate(-135.16 -247.714)" fill="#e4f2f3"/>
          </g>
          <path id="Path_8435" data-name="Path 8435" d="M239.928,175.094s-29.048-42.043-28.8-76.841c.364-.321.735-.631,1.116-.924a18.6,18.6,0,0,0,3.494-3.087c2.732-3.5,1.46-9.517-.759-12.963a7.931,7.931,0,0,0-5.709-3.821c-3.252-.23-5.425,1.541-6.652,4.475q-.545,1.3-1.008,2.642a10.607,10.607,0,0,1-1.167,2.608c-.793-.356-7.218-3.674-9.954-18.7a13.161,13.161,0,0,0-6.027-9.072c-8.162-4.964-19.742-.768-21.534,9.072-2.735,15.021-9.161,18.34-9.954,18.7a10.606,10.606,0,0,1-1.167-2.608q-.463-1.338-1.009-2.642c-1.227-2.935-3.4-4.706-6.652-4.475a7.933,7.933,0,0,0-5.709,3.821c-2.218,3.445-3.49,9.459-.758,12.963a18.589,18.589,0,0,0,3.493,3.087c.381.293.754.6,1.116.924.244,34.8-28.8,76.841-28.8,76.841l4.87,18.647,58.354-.4,58.352.4Z" transform="translate(-97.592 -57.323)" fill="#fff"/>
          <path id="Path_8436" data-name="Path 8436" d="M233.447,169.449c-1.007-.412-23.892-6.077-29.317-87.687H146.625c-5.426,81.61-28.31,87.276-29.317,87.687l4.981,9.788,53.089-1.306,53.088,1.306Z" transform="translate(-96.266 -47.657)" fill="#e8f6f7"/>
          <path id="Path_8437" data-name="Path 8437" d="M171.079,72.727a8.466,8.466,0,1,0-8.465,8.531A8.5,8.5,0,0,0,171.079,72.727Z" transform="translate(-83.502 -54.605)" fill="#e5f7f8"/>
          <g id="Group_16645" data-name="Group 16645" transform="translate(78.629 9.59)">
            <rect id="Rectangle_3559" data-name="Rectangle 3559" width="0.966" height="17.04" fill="#fff"/>
          </g>
          <g id="Group_16646" data-name="Group 16646" transform="translate(70.87 17.635)">
            <rect id="Rectangle_3560" data-name="Rectangle 3560" width="16.483" height="0.973" fill="#fff"/>
          </g>
          <rect id="Rectangle_3561" data-name="Rectangle 3561" width="40.721" height="52.738" transform="translate(58.751 51.395)" fill="#fff"/>
          <path id="Path_8438" data-name="Path 8438" d="M256.456,144.124c-1.074-3.775-5.012-7.625-8.873-8.15a10.013,10.013,0,0,0-4.561.451c-2.292.751-4.357,2.63-4.571,6.91-.018.357-.023.731-.013,1.122,0,0-10.562-2.343-10.49,9.325H130.96c.071-11.668-10.49-9.325-10.49-9.325.009-.391,0-.765-.013-1.122-.214-4.28-2.28-6.16-4.57-6.91a10.02,10.02,0,0,0-4.562-.451c-3.862.525-7.8,4.375-8.873,8.15-3.689,12.953,6.81,18.474,11.492,20.247h131.02C249.646,162.6,260.145,157.077,256.456,144.124Z" transform="translate(-101.68 -26.252)" fill="#e8f6f7"/>
          <rect id="Rectangle_3562" data-name="Rectangle 3562" width="37.281" height="49.714" transform="translate(60.471 53.763)" fill="#e4f2f3"/>
          <g id="Group_16649" data-name="Group 16649" transform="translate(60.427 53.917)">
            <g id="Group_16647" data-name="Group 16647" transform="translate(17.994)">
              <rect id="Rectangle_3563" data-name="Rectangle 3563" width="1.379" height="48.657" fill="#fff"/>
            </g>
            <g id="Group_16648" data-name="Group 16648" transform="translate(0 24.292)">
              <rect id="Rectangle_3564" data-name="Rectangle 3564" width="37.369" height="1.39" fill="#fff"/>
            </g>
          </g>
          <rect id="Rectangle_3565" data-name="Rectangle 3565" width="48.9" height="7.136" rx="1.391" transform="translate(54.661 100.565)" fill="#fff"/>
          <g id="Group_16668" data-name="Group 16668" transform="translate(24.117 152.54)">
            <g id="Group_16655" data-name="Group 16655">
              <g id="Group_16650" data-name="Group 16650" transform="translate(1.861 1.315)">
                <path id="Path_8439" data-name="Path 8439" d="M144.387,223.023H120.974V167.574h23.413Z" transform="translate(-120.974 -167.574)" fill="#e8f6f7"/>
              </g>
              <g id="Group_16654" data-name="Group 16654" transform="translate(1.955 1.528)">
                <g id="Group_16651" data-name="Group 16651" transform="translate(10.962)">
                  <rect id="Rectangle_3566" data-name="Rectangle 3566" width="1.302" height="54.493" fill="#fff"/>
                </g>
                <g id="Group_16652" data-name="Group 16652" transform="translate(0 18.208)">
                  <rect id="Rectangle_3567" data-name="Rectangle 3567" width="23.445" height="1.312" fill="#fff"/>
                </g>
                <g id="Group_16653" data-name="Group 16653" transform="translate(0 33.4)">
                  <rect id="Rectangle_3568" data-name="Rectangle 3568" width="23.445" height="1.312" fill="#fff"/>
                </g>
              </g>
              <rect id="Rectangle_3569" data-name="Rectangle 3569" width="27.135" height="5.122" fill="#fff"/>
              <path id="Path_13082" data-name="Path 13082" d="M0,0H27.135V5.123H0Z" transform="translate(0 53.46)" fill="#fff"/>
            </g>
            <g id="Group_16661" data-name="Group 16661" transform="translate(41.719)">
              <g id="Group_16656" data-name="Group 16656" transform="translate(1.861 1.315)">
                <path id="Path_8440" data-name="Path 8440" d="M175.371,223.023H151.958V167.574h23.413Z" transform="translate(-151.958 -167.574)" fill="#e8f6f7"/>
              </g>
              <g id="Group_16660" data-name="Group 16660" transform="translate(1.955 1.528)">
                <g id="Group_16657" data-name="Group 16657" transform="translate(10.962)">
                  <rect id="Rectangle_3571" data-name="Rectangle 3571" width="1.302" height="54.493" fill="#fff"/>
                </g>
                <g id="Group_16658" data-name="Group 16658" transform="translate(0 18.208)">
                  <rect id="Rectangle_3572" data-name="Rectangle 3572" width="23.445" height="1.312" fill="#fff"/>
                </g>
                <g id="Group_16659" data-name="Group 16659" transform="translate(0 33.4)">
                  <rect id="Rectangle_3573" data-name="Rectangle 3573" width="23.445" height="1.312" fill="#fff"/>
                </g>
              </g>
              <rect id="Rectangle_3574" data-name="Rectangle 3574" width="27.135" height="5.122" fill="#fff"/>
              <rect id="Rectangle_3575" data-name="Rectangle 3575" width="27.135" height="5.123" transform="translate(0 53.46)" fill="#fff"/>
            </g>
            <g id="Group_16667" data-name="Group 16667" transform="translate(83.439)">
              <g id="Group_16662" data-name="Group 16662" transform="translate(1.861 1.315)">
                <path id="Path_8441" data-name="Path 8441" d="M206.355,223.023H182.942V167.574h23.413Z" transform="translate(-182.942 -167.574)" fill="#e8f6f7"/>
              </g>
              <g id="Group_16666" data-name="Group 16666" transform="translate(1.955 1.528)">
                <g id="Group_16663" data-name="Group 16663" transform="translate(10.962)">
                  <rect id="Rectangle_3576" data-name="Rectangle 3576" width="1.302" height="54.493" fill="#fff"/>
                </g>
                <g id="Group_16664" data-name="Group 16664" transform="translate(0 18.208)">
                  <rect id="Rectangle_3577" data-name="Rectangle 3577" width="23.445" height="1.312" fill="#fff"/>
                </g>
                <g id="Group_16665" data-name="Group 16665" transform="translate(0 33.4)">
                  <rect id="Rectangle_3578" data-name="Rectangle 3578" width="23.445" height="1.312" fill="#fff"/>
                </g>
              </g>
              <rect id="Rectangle_3579" data-name="Rectangle 3579" width="27.135" height="5.122" fill="#fff"/>
              <rect id="Rectangle_3580" data-name="Rectangle 3580" width="27.135" height="5.123" transform="translate(0 53.46)" fill="#fff"/>
            </g>
          </g>
          <rect id="Rectangle_3581" data-name="Rectangle 3581" width="62.689" height="9.004" transform="translate(48.74 345.302)" fill="#fff"/>
          <rect id="Rectangle_3582" data-name="Rectangle 3582" width="68.713" height="9.004" transform="translate(45.728 353.021)" fill="#fff"/>
          <g id="Group_16674" data-name="Group 16674" transform="translate(24.117 224.615)">
            <g id="Group_16669" data-name="Group 16669" transform="translate(1.861 1.315)">
              <path id="Path_8442" data-name="Path 8442" d="M144.387,274.672H120.974V219.223h23.413Z" transform="translate(-120.974 -219.223)" fill="#e8f6f7"/>
            </g>
            <g id="Group_16673" data-name="Group 16673" transform="translate(1.955 1.528)">
              <g id="Group_16670" data-name="Group 16670" transform="translate(10.962)">
                <rect id="Rectangle_3583" data-name="Rectangle 3583" width="1.302" height="54.493" fill="#fff"/>
              </g>
              <g id="Group_16671" data-name="Group 16671" transform="translate(0 18.208)">
                <rect id="Rectangle_3584" data-name="Rectangle 3584" width="23.445" height="1.312" fill="#fff"/>
              </g>
              <g id="Group_16672" data-name="Group 16672" transform="translate(0 33.401)">
                <rect id="Rectangle_3585" data-name="Rectangle 3585" width="23.445" height="1.312" fill="#fff"/>
              </g>
            </g>
            <rect id="Rectangle_3586" data-name="Rectangle 3586" width="27.135" height="5.123" fill="#fff"/>
            <rect id="Rectangle_3587" data-name="Rectangle 3587" width="27.135" height="5.123" transform="translate(0 53.46)" fill="#fff"/>
          </g>
          <g id="Group_16680" data-name="Group 16680" transform="translate(108.207 224.615)">
            <g id="Group_16675" data-name="Group 16675" transform="translate(1.862 1.315)">
              <path id="Path_8443" data-name="Path 8443" d="M206.839,274.672H183.426V219.223h23.413Z" transform="translate(-183.426 -219.223)" fill="#e8f6f7"/>
            </g>
            <g id="Group_16679" data-name="Group 16679" transform="translate(1.955 1.528)">
              <g id="Group_16676" data-name="Group 16676" transform="translate(10.962)">
                <rect id="Rectangle_3588" data-name="Rectangle 3588" width="1.302" height="54.493" fill="#fff"/>
              </g>
              <g id="Group_16677" data-name="Group 16677" transform="translate(0 18.208)">
                <rect id="Rectangle_3589" data-name="Rectangle 3589" width="23.445" height="1.312" fill="#fff"/>
              </g>
              <g id="Group_16678" data-name="Group 16678" transform="translate(0 33.401)">
                <rect id="Rectangle_3590" data-name="Rectangle 3590" width="23.445" height="1.312" fill="#fff"/>
              </g>
            </g>
            <rect id="Rectangle_3591" data-name="Rectangle 3591" width="27.135" height="5.123" fill="#fff"/>
            <rect id="Rectangle_3592" data-name="Rectangle 3592" width="27.135" height="5.123" transform="translate(0 53.46)" fill="#fff"/>
          </g>
          <g id="Group_16681" data-name="Group 16681" transform="translate(24.117 142.332)">
            <rect id="Rectangle_3593" data-name="Rectangle 3593" width="12.842" height="4.53" transform="translate(35.433 74.584)" fill="#deeff1" opacity="0.32" style="mix-blend-mode: multiply;isolation: isolate"/>
            <rect id="Rectangle_3594" data-name="Rectangle 3594" width="12.842" height="4.53" transform="translate(1.955)" fill="#deeff1" opacity="0.32" style="mix-blend-mode: multiply;isolation: isolate"/>
            <rect id="Rectangle_3595" data-name="Rectangle 3595" width="12.842" height="4.53" transform="translate(0.725 149.732)" fill="#deeff1" opacity="0.32" style="mix-blend-mode: multiply;isolation: isolate"/>
            <rect id="Rectangle_3596" data-name="Rectangle 3596" width="12.842" height="4.53" transform="translate(97.006 190.664)" fill="#deeff1" opacity="0.32" style="mix-blend-mode: multiply;isolation: isolate"/>
            <rect id="Rectangle_3597" data-name="Rectangle 3597" width="10.996" height="4.53" transform="translate(66.993 123.707)" fill="#deeff1" opacity="0.32" style="mix-blend-mode: multiply;isolation: isolate"/>
            <rect id="Rectangle_3598" data-name="Rectangle 3598" width="10.996" height="4.53" transform="translate(14.219 166.257)" fill="#deeff1" opacity="0.32" style="mix-blend-mode: multiply;isolation: isolate"/>
            <rect id="Rectangle_3599" data-name="Rectangle 3599" width="10.996" height="4.53" transform="translate(65.553 85.141)" fill="#deeff1" opacity="0.32" style="mix-blend-mode: multiply;isolation: isolate"/>
            <rect id="Rectangle_3600" data-name="Rectangle 3600" width="10.996" height="4.53" transform="translate(66.993)" fill="#deeff1" opacity="0.32" style="mix-blend-mode: multiply;isolation: isolate"/>
            <rect id="Rectangle_3601" data-name="Rectangle 3601" width="10.996" height="4.53" transform="translate(86.045 171.713)" fill="#deeff1" opacity="0.32" style="mix-blend-mode: multiply;isolation: isolate"/>
            <rect id="Rectangle_3602" data-name="Rectangle 3602" width="10.996" height="4.53" transform="translate(97.041 151.997)" fill="#deeff1" opacity="0.32" style="mix-blend-mode: multiply;isolation: isolate"/>
            <rect id="Rectangle_3603" data-name="Rectangle 3603" width="10.996" height="4.53" transform="translate(0 187.613)" fill="#deeff1" opacity="0.32" style="mix-blend-mode: multiply;isolation: isolate"/>
          </g>
        </g>
        <g id="Group_16695" data-name="Group 16695" transform="translate(258.628 9.568)">
          <path id="Path_8444" data-name="Path 8444" d="M409.555,135.385a5.956,5.956,0,0,0,.591-4.551c-1.469-4.636-5.783-1.55-7.924.638-1.361,1.391-2.088,2.307-3.924,2.587-2.558.392-5.969,1-8.335-.41-2.787-1.663-1.655-6-1.625-8.863q.131-13.118.264-26.234a3.209,3.209,0,0,1,.31-1.64c.394-.652,1.18-.9,1.761-1.38,3.51-2.891-1.341-4.754-3.629-4.679,1.981-3.653.792-7.939-2.972-9.241a2.369,2.369,0,0,0-1.515-.17,2.493,2.493,0,0,0-1.171,1.236l-2.443,4.212a18.591,18.591,0,0,0-2.045-11.71c-8.068-14.653-32.241-14.686-40.327,0a18.591,18.591,0,0,0-2.045,11.71q-1.22-2.106-2.443-4.212a2.493,2.493,0,0,0-1.171-1.236,2.371,2.371,0,0,0-1.515.17c-3.763,1.3-4.951,5.588-2.972,9.241-2.288-.075-7.139,1.788-3.627,4.679.58.479,1.365.728,1.76,1.38a3.2,3.2,0,0,1,.31,1.64q.131,13.116.265,26.234c.028,2.866,1.161,7.2-1.627,8.863-2.366,1.412-5.776.8-8.335.41-1.834-.28-2.562-1.2-3.924-2.587-2.141-2.188-6.455-5.274-7.924-.638a5.957,5.957,0,0,0,.592,4.551c-2.751-.091-7.066.758-7.235,4.166-.176,3.535,2.651,6.375,6.024,5.487.245-.064.318,16.341.432,17.735a52.134,52.134,0,0,1-1.131,14.541H411.462a52.132,52.132,0,0,1-1.131-14.541c.115-1.394.187-17.8.432-17.735,3.373.888,6.2-1.952,6.026-5.487C416.62,136.143,412.305,135.295,409.555,135.385Z" transform="translate(-292.748 -64.179)" fill="#e8f6f7"/>
          <rect id="Rectangle_3604" data-name="Rectangle 3604" width="122.417" height="246.672" transform="translate(2.877 115.878)" fill="#e8f6f7"/>
          <path id="Path_13156" data-name="Path 13156" d="M8.888,0H32.744a8.888,8.888,0,0,1,8.888,8.888V77.063H0V8.888A8.888,8.888,0,0,1,8.888,0Z" transform="translate(58.877 275.832)" fill="#fff"/>
          <ellipse id="Ellipse_631" data-name="Ellipse 631" cx="1.854" cy="1.921" rx="1.854" ry="1.921" transform="translate(94.154 315.711)" fill="#deeff1"/>
          <path id="Rectangle_3606" data-name="Rectangle 3606" d="M9.812,0h8.256a9.812,9.812,0,0,1,9.812,9.812V46.443a0,0,0,0,1,0,0H0a0,0,0,0,1,0,0V9.812A9.812,9.812,0,0,1,9.812,0Z" transform="translate(20.096 278.334)" fill="#deeff1"/>
          <path id="Path_8445" data-name="Path 8445" d="M336.665,289.919H323.4V263.631h-1.341v26.288H308.383v1.39h13.673v18.765H323.4V291.309h13.268Z" transform="translate(-288.691 14.703)" fill="#fdfefe"/>
          <g id="Group_16683" data-name="Group 16683" transform="translate(6.093 125.989)" opacity="0.24" style="mix-blend-mode: multiply;isolation: isolate">
            <rect id="Rectangle_3607" data-name="Rectangle 3607" width="13.937" height="5.127" rx="1.251" transform="translate(93.439 143.713)" fill="#deeff1"/>
            <rect id="Rectangle_3608" data-name="Rectangle 3608" width="13.937" height="5.127" rx="1.251" transform="translate(48.503 73.977)" fill="#deeff1"/>
            <rect id="Rectangle_3609" data-name="Rectangle 3609" width="13.937" height="5.127" rx="1.251" transform="translate(92.016 1.382)" fill="#deeff1"/>
            <rect id="Rectangle_3610" data-name="Rectangle 3610" width="13.937" height="5.127" rx="1.251" transform="translate(23.265 209.966)" fill="#deeff1"/>
            <rect id="Rectangle_3611" data-name="Rectangle 3611" width="13.937" height="5.127" rx="1.251" transform="translate(47.288)" fill="#deeff1"/>
            <rect id="Rectangle_3612" data-name="Rectangle 3612" width="10.83" height="5.127" rx="1.251" transform="translate(39.691 137.416)" fill="#deeff1"/>
            <rect id="Rectangle_3613" data-name="Rectangle 3613" width="10.83" height="5.127" rx="1.251" transform="translate(103.087 188.155)" fill="#deeff1"/>
            <rect id="Rectangle_3614" data-name="Rectangle 3614" width="10.83" height="5.127" rx="1.251" transform="translate(0 151.161)" fill="#deeff1"/>
            <rect id="Rectangle_3615" data-name="Rectangle 3615" width="10.83" height="5.127" rx="1.251" transform="translate(7.357 220.314)" fill="#deeff1"/>
            <rect id="Rectangle_3616" data-name="Rectangle 3616" width="10.83" height="5.127" rx="1.251" transform="translate(5.324 67.682)" fill="#deeff1"/>
            <rect id="Rectangle_3617" data-name="Rectangle 3617" width="10.83" height="5.127" rx="1.251" transform="translate(80.145 66.515)" fill="#deeff1"/>
            <rect id="Rectangle_3618" data-name="Rectangle 3618" width="10.83" height="5.127" rx="1.251" transform="translate(100.537 73.977)" fill="#deeff1"/>
            <rect id="Rectangle_3619" data-name="Rectangle 3619" width="10.83" height="5.127" rx="1.251" transform="translate(52.384 41.715)" fill="#deeff1"/>
            <rect id="Rectangle_3620" data-name="Rectangle 3620" width="10.83" height="5.127" rx="1.251" transform="translate(57.799 20.577)" fill="#deeff1"/>
            <rect id="Rectangle_3621" data-name="Rectangle 3621" width="10.83" height="5.127" rx="1.251" transform="translate(4.789)" fill="#deeff1"/>
          </g>
          <path id="Path_8446" data-name="Path 8446" d="M381.9,129.317V88.027a4.577,4.577,0,0,0-4.493-4.657H331.194a4.577,4.577,0,0,0-4.493,4.658v41.288H308.358a4.751,4.751,0,0,0-4.663,4.833v35.083H404.91V134.149a4.75,4.75,0,0,0-4.663-4.833Z" transform="translate(-290.315 -56.589)" fill="#e0f1f2"/>
          <rect id="Rectangle_3622" data-name="Rectangle 3622" width="70.43" height="5.965" rx="1.669" transform="translate(28.773 97.527)" fill="#fff"/>
          <rect id="Rectangle_3623" data-name="Rectangle 3623" width="46.642" height="5.965" rx="1.669" transform="translate(40.667 88.017)" fill="#fff"/>
          <path id="Path_8452" data-name="Path 8452" d="M17.087,0A16.078,16.078,0,0,1,33.572,16.487,17.528,17.528,0,0,1,16.487,33.572,16.078,16.078,0,0,1,0,17.087,17.528,17.528,0,0,1,17.087,0Z" transform="translate(40.247 59.956) rotate(-45)" fill="#fff"/>
          <path id="Path_8453" data-name="Path 8453" d="M13.754,0a12.922,12.922,0,0,1,13.273,13.22,14.08,14.08,0,0,1-13.752,13.7A12.922,12.922,0,0,1,0,13.7,14.08,14.08,0,0,1,13.754,0Z" transform="matrix(0.667, -0.745, 0.745, 0.667, 44.943, 61.041)" fill="#e8f6f7"/>
          <g id="Group_16686" data-name="Group 16686" transform="translate(50.743 46.229)">
            <g id="Group_16684" data-name="Group 16684" transform="translate(12.574)">
              <rect id="Rectangle_3624" data-name="Rectangle 3624" width="1.341" height="27.454" fill="#fff"/>
            </g>
            <g id="Group_16685" data-name="Group 16685" transform="translate(0 13.032)">
              <rect id="Rectangle_3625" data-name="Rectangle 3625" width="26.49" height="1.39" fill="#fff"/>
            </g>
          </g>
          <rect id="Rectangle_3626" data-name="Rectangle 3626" width="22.472" height="6.13" rx="1.053" transform="translate(52.751 16.185)" fill="#fff"/>
          <rect id="Rectangle_3627" data-name="Rectangle 3627" width="16.443" height="6.13" rx="0.991" transform="translate(55.766 6.583)" fill="#fff"/>
          <rect id="Rectangle_3640" data-name="Rectangle 3640" width="34.303" height="6.489" rx="1.519" transform="translate(15.971 321.08)" fill="#fff"/>
          <rect id="Rectangle_3641" data-name="Rectangle 3641" width="53.516" height="12.987" transform="translate(51.957 342.56)" fill="#fff"/>
          <rect id="Rectangle_3642" data-name="Rectangle 3642" width="122.691" height="6.795" transform="translate(2.603 115.878)" fill="#e0f1f2"/>
          <path id="Path_8451" data-name="Path 8451" d="M422.368,154.227V141.171a2.532,2.532,0,0,0-2.484-2.576h-4.214a2.532,2.532,0,0,0-2.484,2.576v5.176H302.941v-5.176a2.532,2.532,0,0,0-2.484-2.576h-4.214a2.532,2.532,0,0,0-2.484,2.576v13.056Z" transform="translate(-293.758 -34.748)" fill="#e0f1f2"/>
        </g>
      </g>
      <g id="Group_21038" data-name="Group 21038" transform="translate(2228.792 413.577)">
        <g id="Group_16655-2" data-name="Group 16655">
          <g id="Group_16650-2" data-name="Group 16650" transform="translate(1.861 1.315)">
            <path id="Path_8439-2" data-name="Path 8439" d="M144.387,223.023H120.974V167.574h23.413Z" transform="translate(-120.974 -167.574)" fill="#e8f6f7"/>
          </g>
          <g id="Group_16654-2" data-name="Group 16654" transform="translate(1.955 1.528)">
            <g id="Group_16651-2" data-name="Group 16651" transform="translate(10.962)">
              <rect id="Rectangle_3566-2" data-name="Rectangle 3566" width="1.302" height="54.493" fill="#fff"/>
            </g>
            <g id="Group_16652-2" data-name="Group 16652" transform="translate(0 18.208)">
              <rect id="Rectangle_3567-2" data-name="Rectangle 3567" width="23.445" height="1.312" fill="#fff"/>
            </g>
            <g id="Group_16653-2" data-name="Group 16653" transform="translate(0 33.4)">
              <rect id="Rectangle_3568-2" data-name="Rectangle 3568" width="23.445" height="1.312" fill="#fff"/>
            </g>
          </g>
          <rect id="Rectangle_3569-2" data-name="Rectangle 3569" width="27.135" height="5.122" fill="#fff"/>
          <path id="Path_13082-2" data-name="Path 13082" d="M0,0H27.135V5.123H0Z" transform="translate(0 53.46)" fill="#fff"/>
        </g>
        <g id="Group_16661-2" data-name="Group 16661" transform="translate(41.719)">
          <g id="Group_16656-2" data-name="Group 16656" transform="translate(1.861 1.315)">
            <path id="Path_8440-2" data-name="Path 8440" d="M175.371,223.023H151.958V167.574h23.413Z" transform="translate(-151.958 -167.574)" fill="#e8f6f7"/>
          </g>
          <g id="Group_16660-2" data-name="Group 16660" transform="translate(1.955 1.528)">
            <g id="Group_16657-2" data-name="Group 16657" transform="translate(10.962)">
              <rect id="Rectangle_3571-2" data-name="Rectangle 3571" width="1.302" height="54.493" fill="#fff"/>
            </g>
            <g id="Group_16658-2" data-name="Group 16658" transform="translate(0 18.208)">
              <rect id="Rectangle_3572-2" data-name="Rectangle 3572" width="23.445" height="1.312" fill="#fff"/>
            </g>
            <g id="Group_16659-2" data-name="Group 16659" transform="translate(0 33.4)">
              <rect id="Rectangle_3573-2" data-name="Rectangle 3573" width="23.445" height="1.312" fill="#fff"/>
            </g>
          </g>
          <rect id="Rectangle_3574-2" data-name="Rectangle 3574" width="27.135" height="5.122" fill="#fff"/>
          <rect id="Rectangle_3575-2" data-name="Rectangle 3575" width="27.135" height="5.123" transform="translate(0 53.46)" fill="#fff"/>
        </g>
        <g id="Group_16667-2" data-name="Group 16667" transform="translate(83.439)">
          <g id="Group_16662-2" data-name="Group 16662" transform="translate(1.861 1.315)">
            <path id="Path_8441-2" data-name="Path 8441" d="M206.355,223.023H182.942V167.574h23.413Z" transform="translate(-182.942 -167.574)" fill="#e8f6f7"/>
          </g>
          <g id="Group_16666-2" data-name="Group 16666" transform="translate(1.955 1.528)">
            <g id="Group_16663-2" data-name="Group 16663" transform="translate(10.962)">
              <rect id="Rectangle_3576-2" data-name="Rectangle 3576" width="1.302" height="54.493" fill="#fff"/>
            </g>
            <g id="Group_16664-2" data-name="Group 16664" transform="translate(0 18.208)">
              <rect id="Rectangle_3577-2" data-name="Rectangle 3577" width="23.445" height="1.312" fill="#fff"/>
            </g>
            <g id="Group_16665-2" data-name="Group 16665" transform="translate(0 33.4)">
              <rect id="Rectangle_3578-2" data-name="Rectangle 3578" width="23.445" height="1.312" fill="#fff"/>
            </g>
          </g>
          <rect id="Rectangle_3579-2" data-name="Rectangle 3579" width="27.135" height="5.122" fill="#fff"/>
          <rect id="Rectangle_3580-2" data-name="Rectangle 3580" width="27.135" height="5.123" transform="translate(0 53.46)" fill="#fff"/>
        </g>
      </g>
      <g id="Group_21039" data-name="Group 21039" transform="translate(2228.792 479.787)">
        <g id="Group_16655-3" data-name="Group 16655">
          <g id="Group_16650-3" data-name="Group 16650" transform="translate(1.861 1.315)">
            <path id="Path_8439-3" data-name="Path 8439" d="M144.387,223.023H120.974V167.574h23.413Z" transform="translate(-120.974 -167.574)" fill="#e8f6f7"/>
          </g>
          <g id="Group_16654-3" data-name="Group 16654" transform="translate(1.955 1.528)">
            <g id="Group_16651-3" data-name="Group 16651" transform="translate(10.962)">
              <rect id="Rectangle_3566-3" data-name="Rectangle 3566" width="1.302" height="54.493" fill="#fff"/>
            </g>
            <g id="Group_16652-3" data-name="Group 16652" transform="translate(0 18.208)">
              <rect id="Rectangle_3567-3" data-name="Rectangle 3567" width="23.445" height="1.312" fill="#fff"/>
            </g>
            <g id="Group_16653-3" data-name="Group 16653" transform="translate(0 33.4)">
              <rect id="Rectangle_3568-3" data-name="Rectangle 3568" width="23.445" height="1.312" fill="#fff"/>
            </g>
          </g>
          <rect id="Rectangle_3569-3" data-name="Rectangle 3569" width="27.135" height="5.122" fill="#fff"/>
          <path id="Path_13082-3" data-name="Path 13082" d="M0,0H27.135V5.123H0Z" transform="translate(0 53.46)" fill="#fff"/>
        </g>
        <g id="Group_16661-3" data-name="Group 16661" transform="translate(41.719)">
          <g id="Group_16656-3" data-name="Group 16656" transform="translate(1.861 1.315)">
            <path id="Path_8440-3" data-name="Path 8440" d="M175.371,223.023H151.958V167.574h23.413Z" transform="translate(-151.958 -167.574)" fill="#e8f6f7"/>
          </g>
          <g id="Group_16660-3" data-name="Group 16660" transform="translate(1.955 1.528)">
            <g id="Group_16657-3" data-name="Group 16657" transform="translate(10.962)">
              <rect id="Rectangle_3571-3" data-name="Rectangle 3571" width="1.302" height="54.493" fill="#fff"/>
            </g>
            <g id="Group_16658-3" data-name="Group 16658" transform="translate(0 18.208)">
              <rect id="Rectangle_3572-3" data-name="Rectangle 3572" width="23.445" height="1.312" fill="#fff"/>
            </g>
            <g id="Group_16659-3" data-name="Group 16659" transform="translate(0 33.4)">
              <rect id="Rectangle_3573-3" data-name="Rectangle 3573" width="23.445" height="1.312" fill="#fff"/>
            </g>
          </g>
          <rect id="Rectangle_3574-3" data-name="Rectangle 3574" width="27.135" height="5.122" fill="#fff"/>
          <rect id="Rectangle_3575-3" data-name="Rectangle 3575" width="27.135" height="5.123" transform="translate(0 53.46)" fill="#fff"/>
        </g>
        <g id="Group_16667-3" data-name="Group 16667" transform="translate(83.439)">
          <g id="Group_16662-3" data-name="Group 16662" transform="translate(1.861 1.315)">
            <path id="Path_8441-3" data-name="Path 8441" d="M206.355,223.023H182.942V167.574h23.413Z" transform="translate(-182.942 -167.574)" fill="#e8f6f7"/>
          </g>
          <g id="Group_16666-3" data-name="Group 16666" transform="translate(1.955 1.528)">
            <g id="Group_16663-3" data-name="Group 16663" transform="translate(10.962)">
              <rect id="Rectangle_3576-3" data-name="Rectangle 3576" width="1.302" height="54.493" fill="#fff"/>
            </g>
            <g id="Group_16664-3" data-name="Group 16664" transform="translate(0 18.208)">
              <rect id="Rectangle_3577-3" data-name="Rectangle 3577" width="23.445" height="1.312" fill="#fff"/>
            </g>
            <g id="Group_16665-3" data-name="Group 16665" transform="translate(0 33.4)">
              <rect id="Rectangle_3578-3" data-name="Rectangle 3578" width="23.445" height="1.312" fill="#fff"/>
            </g>
          </g>
          <rect id="Rectangle_3579-3" data-name="Rectangle 3579" width="27.135" height="5.122" fill="#fff"/>
          <rect id="Rectangle_3580-3" data-name="Rectangle 3580" width="27.135" height="5.123" transform="translate(0 53.46)" fill="#fff"/>
        </g>
      </g>
    </g>
  </g>
</svg>
