<svg xmlns="http://www.w3.org/2000/svg" xmlns:xlink="http://www.w3.org/1999/xlink" width="427" height="826" viewBox="0 0 427 826">
  <defs>
    <clipPath id="clip-path">
      <rect id="Rectangle_4593" data-name="Rectangle 4593" width="427" height="826" transform="translate(0 2332)" fill="#fff" stroke="#707070" stroke-width="1"/>
    </clipPath>
    <clipPath id="clip-path-2">
      <rect id="Rectangle_4062" data-name="Rectangle 4062" width="540.472" height="770.624" fill="none"/>
    </clipPath>
    <clipPath id="clip-path-4">
      <rect id="Rectangle_4035" data-name="Rectangle 4035" width="190.657" height="476.161" fill="#eef9f9"/>
    </clipPath>
    <clipPath id="clip-path-6">
      <rect id="Rectangle_4038" data-name="Rectangle 4038" width="211.243" height="492.628" fill="#eef9f9"/>
    </clipPath>
    <clipPath id="clip-path-7">
      <path id="Path_9402" data-name="Path 9402" d="M22.222,262.254c29.77,92.586,193.01,300.111,193.01,300.111h13.279s-35.755-80.237-87.419-275.884C85.359,75.427,153.9,19.4,153.9,19.4,40.019,28.528-8.606,166.371,22.222,262.254" transform="translate(-13.144 -19.395)" fill="#e8f6f7"/>
    </clipPath>
    <clipPath id="clip-path-8">
      <path id="Path_9402-2" data-name="Path 9402" d="M219.433,262.254c-29.77,92.586-193.01,300.111-193.01,300.111H13.144S48.9,482.128,100.563,286.481C156.3,75.427,87.754,19.4,87.754,19.4c113.881,9.133,162.507,146.976,131.679,242.859" transform="translate(-13.144 -19.395)" fill="#e8f6f7"/>
    </clipPath>
    <clipPath id="clip-path-10">
      <path id="Path_9404" data-name="Path 9404" d="M67.609,157.608c-1.26,128.228,116.5,417.432,116.5,417.432h19.781s-18.847-334.831-17.241-458.708c1.276-98.391,21.13-113.973,21.13-113.973C132.831,4.094,68.932,23.115,67.609,157.608" transform="translate(-67.599 -2.358)" fill="#e8f6f7" stroke="#606980" stroke-width="1"/>
    </clipPath>
    <clipPath id="clip-path-12">
      <rect id="Rectangle_4043" data-name="Rectangle 4043" width="154.638" height="575.604" fill="#eef9f9"/>
    </clipPath>
    <clipPath id="clip-path-13">
      <rect id="Rectangle_4044" data-name="Rectangle 4044" width="83.571" height="577.456" fill="#eef9f9"/>
    </clipPath>
    <clipPath id="clip-path-14">
      <path id="Path_9409" data-name="Path 9409" d="M175.256,116.331c5.627,135.084-24.478,458.708-24.478,458.708h19.783s89.554-289.2,88.286-417.432C257.517,23.115,215.316,4.094,140.378,2.358c0,0,30.854,17.308,34.878,113.973" transform="translate(-140.378 -2.358)" fill="#e8f6f7" stroke="#606980" stroke-width="1"/>
    </clipPath>
    <clipPath id="clip-path-15">
      <path id="Path_9410" data-name="Path 9410" d="M107.021,303.233l18.817,30.574H218.2l18.814-30.574c6.964-11.314-21.474-22.436-65-22.436s-71.961,11.122-65,22.436" transform="translate(-105.974 -280.797)" fill="#e8f6f7"/>
    </clipPath>
    <clipPath id="clip-path-17">
      <path id="Path_9441" data-name="Path 9441" d="M182.591,318.645c-.288.093-.879,2.023-1.031,2.386-4.328,10.312-8.934,20.4-13.927,30.337-1.835,3.646-3.727,7.239-5.625,10.842-2.394,4.553-7.265,5.815-9,10.7-.316.687,3.733,3.923,6.018,4.229,4.2.563,7.869-.168,12.688,2.424,1.6.865,4.964,4.343,13.648,3.984.666-4.549.032-10.67.34-15.867.229-3.8-1.221-9.147-.162-12.789,1.31-4.517.741-8.616,1.618-13.244,1.3-6.874,2.09-11.268,2.163-18.237-.674-.032-1.27-2.619-1.926-2.765a10.059,10.059,0,0,1-1.547-.644q-1.3-.541-2.6-1.086a2.662,2.662,0,0,0-.624-.28l-.032,0" transform="translate(-152.991 -318.641)" fill="none"/>
    </clipPath>
    <clipPath id="clip-path-18">
      <rect id="Rectangle_4049" data-name="Rectangle 4049" width="21.024" height="20.709" transform="translate(0 20.912) rotate(-84.071)" fill="none"/>
    </clipPath>
    <clipPath id="clip-path-19">
      <path id="Path_9468" data-name="Path 9468" d="M160.811,338.394l3.522.367,1.019-9.807q-2.218,4.746-4.541,9.441" transform="translate(-160.811 -328.953)" fill="none"/>
    </clipPath>
    <clipPath id="clip-path-20">
      <path id="Path_9495" data-name="Path 9495" d="M166.208,336.014c-1.835,3.646-3.727,7.239-5.625,10.842-1.539,2.929-4.106,4.494-6.2,6.542l14.373,1.493,2.173-20.911-3.522-.367q-.6,1.2-1.2,2.4" transform="translate(-154.381 -333.614)" fill="none"/>
    </clipPath>
    <clipPath id="clip-path-21">
      <path id="Path_9522" data-name="Path 9522" d="M153.009,347.544c-.316.687,3.733,3.923,6.018,4.229,3.474.466,6.591.045,10.3,1.359l.857-8.258-14.373-1.493a10.757,10.757,0,0,0-2.8,4.162" transform="translate(-152.991 -343.382)" fill="none"/>
    </clipPath>
    <clipPath id="clip-path-22">
      <path id="Path_9549" data-name="Path 9549" d="M169.816,318.644c-.288.093-.879,2.023-1.031,2.386q-1.641,3.907-3.336,7.776l10.773,1.118c.188-2,.3-4.1.324-6.51-.674-.032-1.27-2.619-1.926-2.765a10.065,10.065,0,0,1-1.547-.644q-1.3-.541-2.6-1.086a2.623,2.623,0,0,0-.624-.277l-.032,0" transform="translate(-165.449 -318.642)" fill="none"/>
    </clipPath>
    <clipPath id="clip-path-23">
      <path id="Path_9576" data-name="Path 9576" d="M163.569,334.381l-1.019,9.807,13.964,1.45c.32-3,.237-5.941.843-9.133.853-4.5,1.485-7.936,1.839-11.727l-10.773-1.118q-2.367,5.4-4.853,10.721" transform="translate(-162.55 -323.66)" fill="none"/>
    </clipPath>
    <clipPath id="clip-path-24">
      <path id="Path_9603" data-name="Path 9603" d="M161.477,354.706l15.436,1.6c-.008-1.42.008-2.824.087-4.164.229-3.8-1.221-9.147-.162-12.789a23.667,23.667,0,0,0,.776-4.112L163.65,333.8Z" transform="translate(-161.477 -333.795)" fill="none"/>
    </clipPath>
    <clipPath id="clip-path-25">
      <path id="Path_9630" data-name="Path 9630" d="M161.054,352.377a17.017,17.017,0,0,1,2.392,1.065c1.6.865,4.964,4.343,13.648,3.984.494-3.374.273-7.616.253-11.7l-15.436-1.6Z" transform="translate(-161.054 -344.119)" fill="none"/>
    </clipPath>
  </defs>
  <g id="Mask_Group_14146" data-name="Mask Group 14146" transform="translate(0 -2332)" clip-path="url(#clip-path)">
    <g id="Component_71_2" data-name="Component 71 – 2" transform="translate(-156.472 2362)">
      <g id="Group_20067" data-name="Group 20067" clip-path="url(#clip-path-2)">
        <g id="Group_19995" data-name="Group 19995">
          <g id="Group_19994" data-name="Group 19994" clip-path="url(#clip-path-2)">
            <path id="Path_9379" data-name="Path 9379" d="M107.283,338.6c.01-.186.026-.373.051-.561a22.936,22.936,0,0,1,1.76-5.7c1.258-3.1,3.131-6.336,6.157-8,6.133-3.364,10.383-4.336,15.541-2.694s8.493,8.477,8.2,13.536-2.5,20.85-1.989,24.534a32.294,32.294,0,0,1,.46,4.158l-19.647,4.065s-.533-4.936-1.586-6.9c-2.566-4.766-4.488-9.951-6.7-14.891-1.11-2.485-2.4-4.792-2.248-7.549" transform="translate(110.002 329.041)" fill="#fff"/>
            <path id="Path_9380" data-name="Path 9380" d="M117.725,368.356l-.028-.263c-.006-.049-.539-4.912-1.56-6.812-1.742-3.243-3.21-6.718-4.628-10.081-.672-1.594-1.365-3.237-2.076-4.827-.152-.338-.306-.672-.458-1-1-2.167-1.944-4.213-1.811-6.656.01-.19.026-.385.051-.581a23.041,23.041,0,0,1,1.754-5.7l.022-.055c1.641-4.049,3.69-6.7,6.265-8.116,6.49-3.563,10.751-4.3,15.732-2.714,5.3,1.687,8.665,8.616,8.365,13.779-.1,1.762-.427,4.748-.8,8.205-.677,6.2-1.515,13.907-1.189,16.281a32.491,32.491,0,0,1,.464,4.219l-.018.174Zm6.024-46.9a27.1,27.1,0,0,0-8.262,3.225c-2.473,1.359-4.452,3.933-6.05,7.875l-.022.059a22.5,22.5,0,0,0-1.722,5.582c-.022.184-.04.367-.051.547-.126,2.323.794,4.316,1.768,6.427q.231.5.46,1.011c.713,1.594,1.41,3.243,2.082,4.835,1.414,3.354,2.876,6.82,4.608,10.042.938,1.74,1.456,5.663,1.584,6.725l19.2-3.972c-.016-.348-.1-1.337-.456-3.931-.336-2.433.474-9.854,1.187-16.4.375-3.451.7-6.433.8-8.183.29-4.987-2.937-11.673-8.031-13.293a14.461,14.461,0,0,0-7.093-.549" transform="translate(109.88 328.919)" fill="#1f222a"/>
            <path id="Path_9381" data-name="Path 9381" d="M119.922,314.284a54.849,54.849,0,0,0,.583,7.51c.512,2.4,1.2,4.863,1.2,4.863l-9.607,3.528-2.044-6.238,6.269-7.719Z" transform="translate(112.854 322.286)" fill="#fff"/>
            <path id="Path_9382" data-name="Path 9382" d="M112.081,330.7l-2.163-6.6,6.425-7.879,3.95-2.133,0,.4a55.065,55.065,0,0,0,.579,7.462c.506,2.364,1.187,4.827,1.2,4.849l.059.215Zm-1.624-6.5,1.926,5.876,9.167-3.364c-.178-.652-.721-2.692-1.144-4.663a49.9,49.9,0,0,1-.581-7.162l-3.21,1.734Z" transform="translate(112.717 322.084)" fill="#30394d"/>
            <path id="Path_9383" data-name="Path 9383" d="M108.988,314.216s-1.3,4.517-2.311,5.8-.6,1.406.318,1.831a5.46,5.46,0,0,1,1.424.924s-.934,4.908,2.611,5.854a10.014,10.014,0,0,0,6.917-.612,10.83,10.83,0,0,0,2.767-5.422c.225-2.445.231-8.039-.31-8.922s-1.272-2.834-2.866-3.4a18.567,18.567,0,0,0-6.251-.411c-1.009.174-2.2.834-2.3,4.363" transform="translate(108.786 317.642)" fill="#fff"/>
            <path id="Path_9384" data-name="Path 9384" d="M115.631,329.17a10.591,10.591,0,0,1-4.541-.192c-3.374-.9-2.927-5.175-2.807-6a5.634,5.634,0,0,0-1.268-.8l-.1-.043c-.472-.219-.845-.391-.934-.758-.079-.334.1-.727.626-1.4.932-1.177,2.147-5.3,2.26-5.686.115-3.682,1.4-4.373,2.5-4.563a18.563,18.563,0,0,1,6.37.423c1.375.49,2.117,1.884,2.657,2.9.122.227.231.433.334.6.62,1,.543,6.935.344,9.068a11.011,11.011,0,0,1-2.864,5.592,7.836,7.836,0,0,1-2.578.845m-4.181-18.96c-.928.16-2,.776-2.1,4.136l-.01.059c-.053.186-1.323,4.578-2.354,5.882-.393.5-.571.826-.535.984.034.142.314.271.666.433l.1.045a5.681,5.681,0,0,1,1.491.972l.091.089-.022.126c-.01.047-.851,4.7,2.437,5.578a9.763,9.763,0,0,0,6.712-.575,10.688,10.688,0,0,0,2.67-5.25c.245-2.657.2-7.995-.277-8.772-.105-.174-.221-.389-.346-.626-.5-.95-1.2-2.25-2.394-2.68a18.367,18.367,0,0,0-6.127-.4" transform="translate(108.664 317.519)" fill="#30394d"/>
            <path id="Path_9385" data-name="Path 9385" d="M118.1,318.877c-1.9-.622-4.667-1.221-6.569-1.825a28.49,28.49,0,0,1-3.557-1.108,4.411,4.411,0,0,1-2.254-3.4,6.73,6.73,0,0,1,.622-3.913c.788-1.562,2.4-1.971,4.065-1.8a9.794,9.794,0,0,1,3.168.96,23.807,23.807,0,0,1,2.129,1.223c.3.182.672.537,1,.492.186-.024.6-.464.814-.563a3.418,3.418,0,0,1,1.1-.275,4.411,4.411,0,0,1,4.237,1.969c1.1,1.873.061,3.449-.589,5.248l-.529,1.456a4.571,4.571,0,0,1,2.19.747,3.041,3.041,0,0,1,1.1,2.058,4.471,4.471,0,0,1-.577,1.827c-.464,1.2-.662,2.5-1.793,3.273l.377,2.925a2.365,2.365,0,0,1-2.175,2.459l-.7-4.821-1.882.391.883,4.723c-2.463,5.029-5.878,5.825-9.986,3.553-2-1.106-1.13-5.047-.666-6.7.275-.972.911-2.53,2.111-2.528a3.759,3.759,0,0,1,2.279,1.246c.211.195,1.772,1.616,1.665,1.908Z" transform="translate(108.335 314.602)" fill="#2b3035"/>
            <path id="Path_9386" data-name="Path 9386" d="M114.251,335.962a7.819,7.819,0,0,1-5.086-1.159c-2.143-1.187-1.262-5.27-.782-6.972.286-1.011.97-2.7,2.341-2.7a3.881,3.881,0,0,1,2.441,1.31l.036.034a13.941,13.941,0,0,1,1.434,1.46c.219-.6.67-1.809,1.582-4.256l1.687-4.527c-.932-.294-2.058-.583-3.15-.869-1.108-.288-2.254-.583-3.178-.879-.405-.128-.826-.239-1.234-.344a13.476,13.476,0,0,1-2.352-.774,4.612,4.612,0,0,1-2.39-3.581,6.98,6.98,0,0,1,.644-4.059c.745-1.477,2.232-2.145,4.3-1.936a9.962,9.962,0,0,1,3.247.982,20,20,0,0,1,1.809,1.025l.342.211c.077.047.16.105.245.166.2.14.446.314.6.294a2.14,2.14,0,0,0,.332-.249,2.312,2.312,0,0,1,.415-.294,3.628,3.628,0,0,1,1.175-.3,4.643,4.643,0,0,1,4.464,2.086c.97,1.649.371,3.115-.209,4.533-.124.3-.249.608-.361.92l-.433,1.2.188.034a3.616,3.616,0,0,1,1.837.713,3.245,3.245,0,0,1,1.179,2.226,3.093,3.093,0,0,1-.395,1.47c-.069.15-.14.3-.2.456-.1.251-.182.506-.267.76a4.827,4.827,0,0,1-1.493,2.538l.359,2.836a2.619,2.619,0,0,1-2.38,2.672l-.237.036-.7-4.8-1.4.292.857,4.569-.036.073c-1.236,2.522-2.771,4.085-4.561,4.648a5.022,5.022,0,0,1-.668.164m-3.711-10.338c-.978.17-1.507,1.671-1.693,2.337-.45,1.59-1.292,5.4.551,6.423a6.858,6.858,0,0,0,5.378.956c1.645-.517,3.071-1.975,4.239-4.333l-.913-4.875,2.364-.492.707,4.829c1.078-.229,1.6-.891,1.732-2.177l-.393-3.044.122-.083a4.2,4.2,0,0,0,1.43-2.378c.087-.261.174-.523.275-.782.063-.162.136-.322.211-.482a2.694,2.694,0,0,0,.35-1.248,2.761,2.761,0,0,0-1.015-1.886,3.175,3.175,0,0,0-1.608-.6c-.158-.03-.316-.059-.474-.093l-.267-.059.62-1.716c.115-.318.243-.632.369-.938.585-1.43,1.09-2.661.241-4.106a4.155,4.155,0,0,0-4.008-1.851,3.034,3.034,0,0,0-1.017.255,2.059,2.059,0,0,0-.31.229,1.31,1.31,0,0,1-.575.354,1.427,1.427,0,0,1-.938-.381c-.075-.053-.148-.105-.219-.146l-.344-.213a19.912,19.912,0,0,0-1.762-1,9.483,9.483,0,0,0-3.089-.938,3.572,3.572,0,0,0-3.826,1.675,6.47,6.47,0,0,0-.6,3.765,4.144,4.144,0,0,0,2.121,3.223,13.21,13.21,0,0,0,2.268.745c.413.107.841.219,1.258.352.911.288,2.052.585,3.154.871,1.193.31,2.429.63,3.417.952l.138.047.024.142c.01.063.01.063-1.788,4.887-.857,2.3-1.718,4.606-1.772,4.754l0,.008-.308.832-.154-.877c0-.016,0-.028.026-.118l-.014-.006a.123.123,0,0,0-.008.065c-.008-.032-.111-.348-1.556-1.677l-.038-.036a3.5,3.5,0,0,0-2.115-1.183,1.091,1.091,0,0,0-.184.016" transform="translate(108.214 314.479)" fill="#2b313f"/>
            <path id="Path_9387" data-name="Path 9387" d="M110.8,325.508a27.439,27.439,0,0,0,4.561-3.018A20.485,20.485,0,0,0,118.3,319.5l1.58-1.537,1.477,6.836c-.452.166-1.693.63-3.889,1.5A58.588,58.588,0,0,0,111.762,329Z" transform="translate(113.617 326.057)" fill="#d3c75f"/>
            <path id="Path_9388" data-name="Path 9388" d="M119.879,318.679l1.343,6.2c-.567.213-1.764.662-3.7,1.428a57.872,57.872,0,0,0-5.467,2.578l-.835-3.018a27.211,27.211,0,0,0,4.436-2.957,21.256,21.256,0,0,0,2.953-3l1.268-1.236m.288-.952-1.918,1.87a20.423,20.423,0,0,1-2.9,2.951,27.419,27.419,0,0,1-4.689,3.077l1.1,3.974a59.7,59.7,0,0,1,5.945-2.84c2.86-1.13,4.079-1.568,4.079-1.568Z" transform="translate(113.473 325.817)" fill="#30394d"/>
            <path id="Path_9389" data-name="Path 9389" d="M112.649,348.432s12.363-2.4,15.983-2.9,5.25-.78,5.25-.78l-1.554-2.645s-18.268,3.779-18.958,3.921a9.777,9.777,0,0,0-1.092.284Z" transform="translate(115.137 350.817)" fill="#1b003d"/>
            <path id="Path_9390" data-name="Path 9390" d="M115.055,346.426a.24.24,0,0,1-.277-.2l-.419-2.417a.24.24,0,0,1,.474-.081l.419,2.414a.244.244,0,0,1-.2.279" transform="translate(117.266 352.279)" fill="#d3c75f"/>
            <path id="Path_9391" data-name="Path 9391" d="M118.193,345.882a.24.24,0,0,1-.278-.2l-.419-2.416a.24.24,0,0,1,.474-.081l.419,2.414a.242.242,0,0,1-.2.28" transform="translate(120.484 351.722)" fill="#d3c75f"/>
            <path id="Path_9392" data-name="Path 9392" d="M121.021,345.2a.239.239,0,0,1-.277-.2l-.4-2.309a.241.241,0,1,1,.474-.083l.4,2.309a.243.243,0,0,1-.2.279" transform="translate(123.403 351.135)" fill="#d3c75f"/>
            <path id="Path_9393" data-name="Path 9393" d="M116.976,336.763c-.715-.687-1.013-1.819-2.254-3.755-1.14-1.774-2.643,0-.215,2.74-2.416-.028-4.3-1.56-4.764.383-.3,1.264.375,3.85,2.281,4.065a13.327,13.327,0,0,0,3.383.117l3.235-1.217Z" transform="translate(112.467 340.756)" fill="#fff"/>
            <path id="Path_9394" data-name="Path 9394" d="M114.336,340.892a13.561,13.561,0,0,1-2.2-.178,2.624,2.624,0,0,1-1.916-1.286,4.573,4.573,0,0,1-.628-3.206c.383-1.6,1.6-1.308,2.884-.995a12.965,12.965,0,0,0,1.444.3,3.3,3.3,0,0,1-.8-2.732.885.885,0,0,1,.7-.656c.45-.069.936.245,1.327.855.563.877.938,1.6,1.238,2.175a5.746,5.746,0,0,0,.966,1.515l.04.049,1.936,2.712-3.733,1.394q-.629.058-1.26.059m-3.312-5.22c-.462,0-.683.2-.808.719a3.822,3.822,0,0,0,.533,2.641,2.045,2.045,0,0,0,1.47.994,13.214,13.214,0,0,0,3.281.122l2.779-1.045-1.377-1.93a6.385,6.385,0,0,1-1.076-1.671c-.294-.565-.66-1.268-1.207-2.121-.288-.45-.567-.581-.711-.563-.083.014-.144.081-.184.2-.117.365,0,1.337,1.177,2.665l.527.6-.762-.01a10.225,10.225,0,0,1-2.329-.367,6.311,6.311,0,0,0-1.312-.231" transform="translate(112.306 340.581)" fill="#2b313f"/>
            <path id="Path_9395" data-name="Path 9395" d="M123.047,322.472c-2.42-3.144-5.25.956-4.507,3.8.918,3.51,4.9,5.556,6.714,8.464a24.7,24.7,0,0,1,3.978,10.356c.956,10.453-10.382,5.657-15.179,2.9l-1.543,3.563c20.163,14.745,34.544,2.121,10.536-29.075" transform="translate(115.376 329.521)" fill="#fff"/>
            <path id="Path_9396" data-name="Path 9396" d="M127.683,358.242c-4.191,0-9.528-2.125-15.146-6.232l-.227-.166,1.8-4.164.3.172c4.341,2.5,10.389,4.713,13.151,2.712,1.27-.915,1.793-2.688,1.556-5.266a24.03,24.03,0,0,0-3.923-10.2,17.328,17.328,0,0,0-2.834-3.166c-1.645-1.572-3.348-3.2-3.923-5.4a4.84,4.84,0,0,1,1.884-5.074c1.078-.614,2.236-.263,3.178.962,13.558,17.617,14.393,28.658,10.652,33.114a8.065,8.065,0,0,1-6.467,2.7M113.122,351.6c8.75,6.319,16.99,7.723,20.552,3.476s2.627-14.932-10.668-32.209c-.753-.978-1.578-1.252-2.388-.79a4.2,4.2,0,0,0-1.566,4.272c.527,2.005,2.155,3.563,3.733,5.068a18.153,18.153,0,0,1,2.941,3.3c2.418,3.887,3.737,7.326,4.029,10.516.261,2.854-.356,4.841-1.835,5.91-3.67,2.651-11.351-1.294-13.514-2.506Z" transform="translate(115.17 329.346)" fill="#1f222a"/>
            <path id="Path_9397" data-name="Path 9397" d="M173.411,507.317,166.4,525.708l6.911,5.594S300.6,379.148,343,296.866c43.762-84.909,32-185.514-20.814-241.725Z" transform="translate(170.636 56.545)" fill="#fff"/>
            <g id="Group_19993" data-name="Group 19993" transform="translate(337.035 111.686)" style="mix-blend-mode: multiply;isolation: isolate">
              <g id="Group_19992" data-name="Group 19992">
                <g id="Group_19991" data-name="Group 19991" clip-path="url(#clip-path-4)">
                  <path id="Path_9398" data-name="Path 9398" d="M173.411,507.317,166.4,525.708l6.911,5.594S276.625,375.5,319.032,293.222c43.762-84.911,55.976-181.87,3.158-238.081Z" transform="translate(-166.399 -55.141)" fill="#eef9f9"/>
                </g>
              </g>
            </g>
          </g>
        </g>
        <g id="Group_20002" data-name="Group 20002">
          <g id="Group_20001" data-name="Group 20001" clip-path="url(#clip-path-2)">
            <path id="Path_9400" data-name="Path 9400" d="M215.27,508.651l13.441,18.391-9.082,7.8S66.287,380.482,23.84,298.2C-19.965,213.29-2.366,90.082,68.1,53.84Z" transform="translate(0 55.211)" fill="#fff"/>
            <g id="Group_20000" data-name="Group 20000" transform="translate(17.612 89.625)" style="mix-blend-mode: multiply;isolation: isolate">
              <g id="Group_19999" data-name="Group 19999">
                <g id="Group_19998" data-name="Group 19998" clip-path="url(#clip-path-6)">
                  <path id="Path_9401" data-name="Path 9401" d="M219.938,530.5l-.144,6.378S87.942,386.669,45.535,304.388c-64.154-103.25-35.5-203.93,17.318-260.138Z" transform="translate(-8.695 -44.248)" fill="#eef9f9"/>
                </g>
              </g>
            </g>
          </g>
        </g>
        <g id="Group_20004" data-name="Group 20004" transform="translate(26.624 39.284)">
          <g id="Group_20003" data-name="Group 20003" clip-path="url(#clip-path-7)">
            <rect id="Rectangle_4040" data-name="Rectangle 4040" width="237.117" height="542.97" transform="translate(-21.75 0)" fill="#e8f6f7"/>
          </g>
        </g>
        <g id="Group_21280" data-name="Group 21280" transform="translate(318.473 39.284)">
          <g id="Group_20003-2" data-name="Group 20003" transform="translate(0 0)" clip-path="url(#clip-path-8)">
            <rect id="Rectangle_4040-2" data-name="Rectangle 4040" width="237.116" height="542.97" transform="translate(0 0)" fill="#e8f6f7"/>
          </g>
        </g>
        <g id="Group_20006" data-name="Group 20006">
          <g id="Group_20005" data-name="Group 20005" clip-path="url(#clip-path-2)">
            <path id="Path_9403" data-name="Path 9403" d="M210.008,3.283s-55.682,54.843-32.231,283.332c21.614,210.591,36.252,287.476,36.252,287.476l-11.434,4.8S43.085,323.928,38.645,197.492C33.987,64.924,101.7,22.44,210.008,3.283" transform="translate(39.398 3.367)" fill="#fff"/>
          </g>
        </g>
        <g id="Group_20008" data-name="Group 20008" transform="translate(136.919 4.776)">
          <g id="Group_20007" data-name="Group 20007" clip-path="url(#clip-path-10)">
            <rect id="Rectangle_4042" data-name="Rectangle 4042" width="141.426" height="572.681" transform="translate(-1.25 0)" fill="#e8f6f7" stroke="#606980" stroke-width="1"/>
          </g>
        </g>
        <g id="Group_20016" data-name="Group 20016">
          <g id="Group_20015" data-name="Group 20015" clip-path="url(#clip-path-2)">
            <path id="Path_9405" data-name="Path 9405" d="M154.046,3.283s55.475,54.843,31.164,283.332C162.8,497.206,156.545,574.091,156.545,574.091l9.24,4.8S303.839,323.928,308.38,197.492C313.14,64.924,262.283,22.44,154.046,3.283" transform="translate(157.968 3.367)" fill="#fff"/>
            <g id="Group_20011" data-name="Group 20011" transform="translate(312.014 6.65)" style="mix-blend-mode: multiply;isolation: isolate">
              <g id="Group_20010" data-name="Group 20010">
                <g id="Group_20009" data-name="Group 20009" clip-path="url(#clip-path-12)">
                  <path id="Path_9406" data-name="Path 9406" d="M154.046,3.283s168.9,6.532,122.927,243.153C254.566,457.027,156.545,574.091,156.545,574.091l9.24,4.8S303.839,323.928,308.38,197.492C313.14,64.924,262.283,22.44,154.046,3.283" transform="translate(-154.046 -3.283)" fill="#eef9f9"/>
                </g>
              </g>
            </g>
            <path id="Path_9407" data-name="Path 9407" d="M172.335,4.776s-11.766-11.9-31.654,1.874c-19.793,13.708-42.336,45.725-25.648,237.265,15.59,178.9,47.234,333.543,47.234,333.543h20.469s39.225-285.91,35.685-404.242C214.722,49.557,172.335,4.776,172.335,4.776" transform="translate(111.995 0)" fill="#fff"/>
            <g id="Group_20014" data-name="Group 20014" transform="translate(253.43 3.815)" style="mix-blend-mode: multiply;isolation: isolate">
              <g id="Group_20013" data-name="Group 20013" transform="translate(0)">
                <g id="Group_20012" data-name="Group 20012" clip-path="url(#clip-path-13)">
                  <path id="Path_9408" data-name="Path 9408" d="M159.241,4.776s-11.766-11.9-31.654,1.874c-19.793,13.708,17.911,16.459,34.6,208,15.588,178.9-13.016,362.807-13.016,362.807h20.469s39.225-285.91,35.685-404.242C201.628,49.557,159.241,4.776,159.241,4.776" transform="translate(-121.983 0)" fill="#eef9f9"/>
                </g>
              </g>
            </g>
          </g>
        </g>
        <g id="Group_20018" data-name="Group 20018" transform="translate(284.33 4.776)">
          <g id="Group_20017" data-name="Group 20017" clip-path="url(#clip-path-14)">
            <rect id="Rectangle_4046" data-name="Rectangle 4046" width="119.737" height="572.681" transform="translate(0 0)" fill="#e8f6f7" stroke="#606980" stroke-width="1"/>
          </g>
        </g>
        <g id="Group_20020" data-name="Group 20020" transform="translate(214.646 568.744)">
          <g id="Group_20019" data-name="Group 20019" clip-path="url(#clip-path-15)">
            <rect id="Rectangle_4047" data-name="Rectangle 4047" width="143.921" height="53.01" transform="translate(-5.916)" fill="#e8f6f7"/>
          </g>
        </g>
        <g id="Group_20022" data-name="Group 20022">
          <g id="Group_20021" data-name="Group 20021" clip-path="url(#clip-path-2)">
            <path id="Path_9411" data-name="Path 9411" d="M208.145,311c0,4.4-20.676,7.972-46.183,7.972S115.78,315.408,115.78,311s20.678-7.97,46.183-7.97,46.183,3.569,46.183,7.97" transform="translate(118.728 310.75)" fill="#eef9f9"/>
            <line id="Line_345" data-name="Line 345" x1="14.587" y2="81.9" transform="translate(227.443 619.331)" fill="none" stroke="#9ab0b9" stroke-miterlimit="10" stroke-width="0.478"/>
            <line id="Line_346" data-name="Line 346" x2="16.655" y2="81.9" transform="translate(317.284 619.331)" fill="none" stroke="#9ab0b9" stroke-miterlimit="10" stroke-width="0.478"/>
            <line id="Line_347" data-name="Line 347" x2="9.495" y2="75.355" transform="translate(293.19 613.654)" fill="none" stroke="#9ab0b9" stroke-miterlimit="10" stroke-width="0.478"/>
            <line id="Line_348" data-name="Line 348" x1="9.495" y2="75.355" transform="translate(257.701 613.654)" fill="none" stroke="#9ab0b9" stroke-miterlimit="10" stroke-width="0.478"/>
            <line id="Line_349" data-name="Line 349" x2="21.62" y2="75.355" transform="translate(296.89 613.654)" fill="none" stroke="#9ab0b9" stroke-miterlimit="10" stroke-width="0.548"/>
            <line id="Line_350" data-name="Line 350" x1="21.62" y2="75.355" transform="translate(241.084 613.654)" fill="none" stroke="#9ab0b9" stroke-miterlimit="10" stroke-width="0.548"/>
            <path id="Path_9412" data-name="Path 9412" d="M175.945,325.888c3.419,1.578,7.3-.593,9.155-3.526a8.665,8.665,0,0,0-.071-9.67,9.655,9.655,0,0,0-8.841-4.049,9.954,9.954,0,0,0-7.745,6.259,8,8,0,0,0-.144,6.005c.958,2.214,3.506,3.16,5.76,3.3" transform="translate(172.049 316.436)" fill="#f46d10"/>
            <path id="Path_9413" data-name="Path 9413" d="M189.32,323.414c-.071,6.97-.859,11.363-2.163,18.237-.877,4.628-.308,8.728-1.618,13.244-1.059,3.642.393,8.985.164,12.789-.308,5.2.326,11.318-.34,15.865-8.683.361-12.043-3.119-13.648-3.98-4.821-2.6-8.493-1.863-12.69-2.427-2.283-.306-6.332-3.545-6.016-4.229,1.732-4.892,6.6-6.153,9-10.707,1.9-3.6,3.79-7.192,5.623-10.84,4.993-9.937,9.6-20.026,13.927-30.339.152-.359.745-2.291,1.031-2.382.13-.043.543.227.656.273q1.3.544,2.6,1.084a10.049,10.049,0,0,0,1.547.646c.658.146,1.252,2.73,1.926,2.765" transform="translate(156.888 326.755)" fill="#dc2e22"/>
            <path id="Path_9414" data-name="Path 9414" d="M181.575,383.791a17.847,17.847,0,0,1-8.955-3.326c-.35-.239-.652-.444-.9-.577-3.425-1.843-6.21-1.981-9.157-2.127-1.116-.057-2.269-.111-3.453-.271a11.807,11.807,0,0,1-6.113-3.98.631.631,0,0,1-.081-.573c.946-2.674,2.862-4.316,4.713-5.906a16.656,16.656,0,0,0,4.292-4.81l.1-.188c1.829-3.476,3.721-7.067,5.521-10.65,4.881-9.714,9.435-19.633,13.921-30.323.034-.085.1-.257.17-.472.531-1.521.745-1.961,1-2.044.176-.055.389.051.695.219.053.026.1.053.12.063l2.6,1.086c.164.069.334.15.5.233a4.9,4.9,0,0,0,1,.4c.429.1.735.743,1.088,1.495.221.47.608,1.27.8,1.266l.221.012,0,.221c-.069,6.9-.828,11.225-2.165,18.278a43.563,43.563,0,0,0-.593,5.754,32.907,32.907,0,0,1-1.031,7.508c-.628,2.163-.352,4.969-.085,7.679a33.508,33.508,0,0,1,.259,5.064c-.13,2.181-.093,4.559-.057,6.86a59.023,59.023,0,0,1-.288,9.021l-.026.19-.192.008a26.873,26.873,0,0,1-3.913-.107m-16.311-6.309a17.259,17.259,0,0,1,6.676,2c.267.144.579.357.94.6,1.861,1.264,5.311,3.607,12.4,3.36a60.739,60.739,0,0,0,.255-8.758c-.036-2.311-.073-4.7.059-6.9a33.7,33.7,0,0,0-.257-4.989c-.273-2.755-.553-5.606.1-7.853a32.031,32.031,0,0,0,1.015-7.405,44.1,44.1,0,0,1,.6-5.817c1.321-6.966,2.076-11.262,2.157-18.025a3.281,3.281,0,0,1-.972-1.468c-.225-.476-.563-1.2-.772-1.242a5.363,5.363,0,0,1-1.1-.433c-.166-.079-.326-.158-.484-.223l-2.6-1.086a1.647,1.647,0,0,1-.166-.085,3.328,3.328,0,0,0-.33-.162,11.046,11.046,0,0,0-.709,1.736c-.079.227-.142.409-.18.5-4.49,10.7-9.048,20.631-13.933,30.354-1.8,3.587-3.7,7.182-5.528,10.66l-.1.184a17.045,17.045,0,0,1-4.4,4.948c-1.89,1.62-3.676,3.152-4.588,5.73-.059.547,3.559,3.617,5.829,3.921,1.165.156,2.307.215,3.413.267.879.045,1.768.089,2.678.182" transform="translate(156.771 326.638)" fill="#30394d"/>
          </g>
        </g>
        <g id="Group_20026" data-name="Group 20026" transform="translate(309.878 645.395)">
          <g id="Group_20025" data-name="Group 20025" clip-path="url(#clip-path-17)">
            <g id="Group_20024" data-name="Group 20024" transform="translate(0.934 -13.271)">
              <g id="Group_20023" data-name="Group 20023" transform="translate(0 0)" clip-path="url(#clip-path-18)">
                <path id="Path_9415" data-name="Path 9415" d="M159.369,326.1a2.1,2.1,0,1,1,2.277-1.878,2.086,2.086,0,0,1-2.277,1.878" transform="translate(-149.287 -302.024)" fill="#fff"/>
                <path id="Path_9416" data-name="Path 9416" d="M159.447,326.385a2.294,2.294,0,1,1,2.487-2.048,2.281,2.281,0,0,1-2.487,2.048m.433-4.183a1.911,1.911,0,1,0,1.671,2.094,1.9,1.9,0,0,0-1.671-2.094" transform="translate(-149.383 -302.121)"/>
                <path id="Path_9417" data-name="Path 9417" d="M154.285,325.569a2.1,2.1,0,1,1,2.277-1.878,2.089,2.089,0,0,1-2.277,1.878" transform="translate(-154.501 -302.566)" fill="#fff"/>
                <path id="Path_9418" data-name="Path 9418" d="M154.362,325.856a2.293,2.293,0,1,1,2.487-2.046,2.279,2.279,0,0,1-2.487,2.046m.433-4.183a1.911,1.911,0,1,0,1.671,2.1,1.9,1.9,0,0,0-1.671-2.1" transform="translate(-154.597 -302.662)"/>
                <path id="Path_9419" data-name="Path 9419" d="M159.9,320.934a2.1,2.1,0,1,1,2.277-1.878,2.087,2.087,0,0,1-2.277,1.878" transform="translate(-148.737 -307.317)" fill="#fff"/>
                <path id="Path_9420" data-name="Path 9420" d="M159.983,321.22a2.293,2.293,0,1,1,2.487-2.046,2.277,2.277,0,0,1-2.487,2.046m.433-4.181a1.911,1.911,0,1,0,1.671,2.094,1.9,1.9,0,0,0-1.671-2.094" transform="translate(-148.833 -307.415)"/>
                <path id="Path_9421" data-name="Path 9421" d="M154.821,320.405a2.1,2.1,0,1,1,2.277-1.878,2.086,2.086,0,0,1-2.277,1.878" transform="translate(-153.951 -307.859)" fill="#fff"/>
                <path id="Path_9422" data-name="Path 9422" d="M154.9,320.694a2.294,2.294,0,1,1,2.487-2.048,2.28,2.28,0,0,1-2.487,2.048m.433-4.183A1.911,1.911,0,1,0,157,318.606a1.9,1.9,0,0,0-1.671-2.094" transform="translate(-154.048 -307.956)"/>
                <path id="Path_9423" data-name="Path 9423" d="M157.1,323.252a2.1,2.1,0,1,1,2.279-1.878,2.089,2.089,0,0,1-2.279,1.878" transform="translate(-151.619 -304.942)" fill="#fff"/>
                <path id="Path_9424" data-name="Path 9424" d="M157.174,323.537a2.293,2.293,0,1,1,2.487-2.046,2.281,2.281,0,0,1-2.487,2.046m.433-4.182a1.911,1.911,0,1,0,1.671,2.1,1.9,1.9,0,0,0-1.671-2.1" transform="translate(-151.716 -305.039)"/>
                <path id="Path_9425" data-name="Path 9425" d="M162.18,323.78a2.1,2.1,0,1,1,2.277-1.878,2.089,2.089,0,0,1-2.277,1.878" transform="translate(-146.404 -304.401)" fill="#fff"/>
                <path id="Path_9426" data-name="Path 9426" d="M162.257,324.067a2.293,2.293,0,1,1,2.487-2.048,2.279,2.279,0,0,1-2.487,2.048m.433-4.183a1.911,1.911,0,1,0,1.671,2.094,1.9,1.9,0,0,0-1.671-2.094" transform="translate(-146.501 -304.497)"/>
                <path id="Path_9427" data-name="Path 9427" d="M157.631,318.088a2.1,2.1,0,1,1,2.277-1.878,2.086,2.086,0,0,1-2.277,1.878" transform="translate(-151.069 -310.235)" fill="#fff"/>
                <path id="Path_9428" data-name="Path 9428" d="M157.71,318.376a2.293,2.293,0,1,1,2.487-2.048,2.282,2.282,0,0,1-2.487,2.048m.433-4.183a1.911,1.911,0,1,0,1.671,2.094,1.9,1.9,0,0,0-1.671-2.094" transform="translate(-151.166 -310.332)"/>
                <path id="Path_9429" data-name="Path 9429" d="M162.716,318.616a2.1,2.1,0,1,1,2.277-1.878,2.086,2.086,0,0,1-2.277,1.878" transform="translate(-145.855 -309.694)" fill="#fff"/>
                <path id="Path_9430" data-name="Path 9430" d="M162.793,318.9a2.294,2.294,0,1,1,2.487-2.048,2.281,2.281,0,0,1-2.487,2.048m.433-4.183a1.911,1.911,0,1,0,1.671,2.094,1.9,1.9,0,0,0-1.671-2.094" transform="translate(-145.952 -309.792)"/>
                <path id="Path_9431" data-name="Path 9431" d="M164.453,326.625a2.1,2.1,0,1,1,2.277-1.878,2.087,2.087,0,0,1-2.277,1.878" transform="translate(-144.074 -301.483)" fill="#fff"/>
                <path id="Path_9432" data-name="Path 9432" d="M164.531,326.911a2.293,2.293,0,1,1,2.487-2.046,2.277,2.277,0,0,1-2.487,2.046m.433-4.181a1.911,1.911,0,1,0,1.671,2.094,1.9,1.9,0,0,0-1.671-2.094" transform="translate(-144.17 -301.58)"/>
                <path id="Path_9433" data-name="Path 9433" d="M164.99,321.463a2.1,2.1,0,1,1,2.277-1.878,2.089,2.089,0,0,1-2.277,1.878" transform="translate(-143.523 -306.776)" fill="#fff"/>
                <path id="Path_9434" data-name="Path 9434" d="M165.067,321.749a2.293,2.293,0,1,1,2.487-2.046,2.281,2.281,0,0,1-2.487,2.046m.435-4.181a1.91,1.91,0,1,0,1.671,2.094,1.9,1.9,0,0,0-1.671-2.094" transform="translate(-143.62 -306.873)"/>
                <path id="Path_9435" data-name="Path 9435" d="M160.441,315.772a2.1,2.1,0,1,1,2.277-1.878,2.089,2.089,0,0,1-2.277,1.878" transform="translate(-148.188 -312.613)" fill="#fff"/>
                <path id="Path_9436" data-name="Path 9436" d="M160.519,316.059a2.293,2.293,0,1,1,2.487-2.046,2.279,2.279,0,0,1-2.487,2.046m.433-4.183a1.911,1.911,0,1,0,1.671,2.1,1.9,1.9,0,0,0-1.671-2.1" transform="translate(-148.284 -312.708)"/>
                <path id="Path_9437" data-name="Path 9437" d="M155.357,315.244a2.1,2.1,0,1,1,2.277-1.878,2.087,2.087,0,0,1-2.277,1.878" transform="translate(-153.401 -313.154)" fill="#fff"/>
                <path id="Path_9438" data-name="Path 9438" d="M155.434,315.53a2.293,2.293,0,1,1,2.487-2.046,2.277,2.277,0,0,1-2.487,2.046m.433-4.181a1.91,1.91,0,1,0,1.671,2.094,1.9,1.9,0,0,0-1.671-2.094" transform="translate(-153.498 -313.251)"/>
                <path id="Path_9439" data-name="Path 9439" d="M165.526,316.3a2.1,2.1,0,1,1,2.279-1.878,2.086,2.086,0,0,1-2.279,1.878" transform="translate(-142.973 -312.07)" fill="#fff"/>
                <path id="Path_9440" data-name="Path 9440" d="M165.6,316.587a2.293,2.293,0,1,1,2.487-2.048,2.282,2.282,0,0,1-2.487,2.048m.436-4.183a1.911,1.911,0,1,0,1.671,2.094,1.9,1.9,0,0,0-1.671-2.094" transform="translate(-143.07 -312.167)"/>
              </g>
            </g>
          </g>
        </g>
        <g id="Group_20028" data-name="Group 20028" transform="translate(325.717 666.282)">
          <g id="Group_20027" data-name="Group 20027" clip-path="url(#clip-path-19)">
            <path id="Path_9442" data-name="Path 9442" d="M158.3,336.422a2.1,2.1,0,1,1,2.277-1.878,2.087,2.087,0,0,1-2.277,1.878" transform="translate(-165.291 -325.594)" fill="#fff"/>
            <path id="Path_9443" data-name="Path 9443" d="M158.374,336.709a2.294,2.294,0,1,1,2.487-2.048,2.28,2.28,0,0,1-2.487,2.048m.433-4.182a1.911,1.911,0,1,0,1.671,2.094,1.9,1.9,0,0,0-1.671-2.094" transform="translate(-165.388 -325.691)"/>
            <path id="Path_9444" data-name="Path 9444" d="M153.212,335.893a2.1,2.1,0,1,1,2.277-1.878,2.086,2.086,0,0,1-2.277,1.878" transform="translate(-170.505 -326.135)" fill="#fff"/>
            <path id="Path_9445" data-name="Path 9445" d="M153.29,336.182a2.294,2.294,0,1,1,2.487-2.048,2.279,2.279,0,0,1-2.487,2.048m.433-4.183a1.911,1.911,0,1,0,1.671,2.094A1.9,1.9,0,0,0,153.723,332" transform="translate(-170.601 -326.232)"/>
            <path id="Path_9446" data-name="Path 9446" d="M158.833,331.26a2.1,2.1,0,1,1,2.277-1.878,2.089,2.089,0,0,1-2.277,1.878" transform="translate(-164.741 -330.887)" fill="#fff"/>
            <path id="Path_9447" data-name="Path 9447" d="M158.91,331.546A2.293,2.293,0,1,1,161.4,329.5a2.279,2.279,0,0,1-2.487,2.046m.433-4.181a1.91,1.91,0,1,0,1.671,2.094,1.9,1.9,0,0,0-1.671-2.094" transform="translate(-164.838 -330.984)"/>
            <path id="Path_9448" data-name="Path 9448" d="M153.748,330.73a2.1,2.1,0,1,1,2.277-1.878,2.087,2.087,0,0,1-2.277,1.878" transform="translate(-169.956 -331.429)" fill="#fff"/>
            <path id="Path_9449" data-name="Path 9449" d="M153.826,331.018a2.293,2.293,0,1,1,2.487-2.046,2.277,2.277,0,0,1-2.487,2.046m.433-4.181a1.911,1.911,0,1,0,1.671,2.094,1.9,1.9,0,0,0-1.671-2.094" transform="translate(-170.052 -331.526)"/>
            <path id="Path_9450" data-name="Path 9450" d="M156.022,333.577a2.1,2.1,0,1,1,2.277-1.88,2.089,2.089,0,0,1-2.277,1.88" transform="translate(-167.624 -328.512)" fill="#fff"/>
            <path id="Path_9451" data-name="Path 9451" d="M156.1,333.863a2.294,2.294,0,1,1,2.487-2.048,2.281,2.281,0,0,1-2.487,2.048m.435-4.182a1.911,1.911,0,1,0,1.671,2.094,1.9,1.9,0,0,0-1.671-2.094" transform="translate(-167.721 -328.609)"/>
            <path id="Path_9452" data-name="Path 9452" d="M161.107,334.1a2.1,2.1,0,1,1,2.277-1.878,2.086,2.086,0,0,1-2.277,1.878" transform="translate(-162.409 -327.97)" fill="#fff"/>
            <path id="Path_9453" data-name="Path 9453" d="M161.186,334.392a2.294,2.294,0,1,1,2.487-2.048,2.283,2.283,0,0,1-2.487,2.048m.433-4.183a1.911,1.911,0,1,0,1.671,2.094,1.9,1.9,0,0,0-1.671-2.094" transform="translate(-162.506 -328.067)"/>
            <path id="Path_9454" data-name="Path 9454" d="M156.559,328.413a2.1,2.1,0,1,1,2.279-1.878,2.084,2.084,0,0,1-2.279,1.878" transform="translate(-167.073 -333.805)" fill="#fff"/>
            <path id="Path_9455" data-name="Path 9455" d="M156.636,328.7a2.294,2.294,0,1,1,2.487-2.048,2.283,2.283,0,0,1-2.487,2.048m.435-4.183a1.911,1.911,0,1,0,1.671,2.094,1.9,1.9,0,0,0-1.671-2.094" transform="translate(-167.17 -333.903)"/>
            <path id="Path_9456" data-name="Path 9456" d="M161.643,328.942a2.1,2.1,0,1,1,2.277-1.878,2.087,2.087,0,0,1-2.277,1.878" transform="translate(-161.86 -333.264)" fill="#fff"/>
            <path id="Path_9457" data-name="Path 9457" d="M161.721,329.228a2.293,2.293,0,1,1,2.487-2.046,2.277,2.277,0,0,1-2.487,2.046m.433-4.18a1.911,1.911,0,1,0,1.671,2.094,1.9,1.9,0,0,0-1.671-2.094" transform="translate(-161.956 -333.361)"/>
            <path id="Path_9458" data-name="Path 9458" d="M163.381,336.95a2.1,2.1,0,1,1,2.277-1.878,2.089,2.089,0,0,1-2.277,1.878" transform="translate(-160.077 -325.053)" fill="#fff"/>
            <path id="Path_9459" data-name="Path 9459" d="M163.459,337.236a2.293,2.293,0,1,1,2.487-2.046,2.278,2.278,0,0,1-2.487,2.046m.433-4.181a1.911,1.911,0,1,0,1.671,2.094,1.9,1.9,0,0,0-1.671-2.094" transform="translate(-160.173 -325.15)"/>
            <path id="Path_9460" data-name="Path 9460" d="M163.917,331.786a2.1,2.1,0,1,1,2.277-1.878,2.086,2.086,0,0,1-2.277,1.878" transform="translate(-159.528 -330.346)" fill="#fff"/>
            <path id="Path_9461" data-name="Path 9461" d="M163.995,332.074a2.293,2.293,0,1,1,2.487-2.048,2.279,2.279,0,0,1-2.487,2.048m.433-4.183a1.911,1.911,0,1,0,1.671,2.094,1.9,1.9,0,0,0-1.671-2.094" transform="translate(-159.624 -330.443)"/>
            <path id="Path_9462" data-name="Path 9462" d="M159.369,326.1a2.1,2.1,0,1,1,2.277-1.878,2.086,2.086,0,0,1-2.277,1.878" transform="translate(-164.192 -336.181)" fill="#fff"/>
            <path id="Path_9463" data-name="Path 9463" d="M159.447,326.385a2.294,2.294,0,1,1,2.487-2.048,2.281,2.281,0,0,1-2.487,2.048m.433-4.183a1.911,1.911,0,1,0,1.671,2.094,1.9,1.9,0,0,0-1.671-2.094" transform="translate(-164.288 -336.279)"/>
            <path id="Path_9464" data-name="Path 9464" d="M154.285,325.569a2.1,2.1,0,1,1,2.277-1.878,2.089,2.089,0,0,1-2.277,1.878" transform="translate(-169.405 -336.724)" fill="#fff"/>
            <path id="Path_9465" data-name="Path 9465" d="M154.362,325.856a2.293,2.293,0,1,1,2.487-2.046,2.279,2.279,0,0,1-2.487,2.046m.433-4.183a1.911,1.911,0,1,0,1.671,2.1,1.9,1.9,0,0,0-1.671-2.1" transform="translate(-169.502 -336.819)"/>
            <path id="Path_9466" data-name="Path 9466" d="M164.453,326.625a2.1,2.1,0,1,1,2.277-1.878,2.087,2.087,0,0,1-2.277,1.878" transform="translate(-158.978 -335.64)" fill="#fff"/>
            <path id="Path_9467" data-name="Path 9467" d="M164.531,326.911a2.293,2.293,0,1,1,2.487-2.046,2.277,2.277,0,0,1-2.487,2.046m.433-4.181a1.911,1.911,0,1,0,1.671,2.094,1.9,1.9,0,0,0-1.671-2.094" transform="translate(-159.074 -335.737)"/>
          </g>
        </g>
        <g id="Group_20030" data-name="Group 20030" transform="translate(312.693 675.723)">
          <g id="Group_20029" data-name="Group 20029" clip-path="url(#clip-path-20)">
            <path id="Path_9469" data-name="Path 9469" d="M157.225,346.747a2.1,2.1,0,1,1,2.277-1.878,2.086,2.086,0,0,1-2.277,1.878" transform="translate(-153.367 -324.447)" fill="#fff"/>
            <path id="Path_9470" data-name="Path 9470" d="M157.3,347.033a2.293,2.293,0,1,1,2.487-2.046,2.278,2.278,0,0,1-2.487,2.046m.433-4.181a1.911,1.911,0,1,0,1.671,2.094,1.9,1.9,0,0,0-1.671-2.094" transform="translate(-153.463 -324.544)"/>
            <path id="Path_9471" data-name="Path 9471" d="M152.141,346.219a2.1,2.1,0,1,1,2.279-1.878,2.088,2.088,0,0,1-2.279,1.878" transform="translate(-158.582 -324.988)" fill="#fff"/>
            <path id="Path_9472" data-name="Path 9472" d="M152.217,346.5a2.293,2.293,0,1,1,2.487-2.046,2.28,2.28,0,0,1-2.487,2.046m.436-4.181a1.911,1.911,0,1,0,1.671,2.094,1.9,1.9,0,0,0-1.671-2.094" transform="translate(-158.678 -325.085)"/>
            <path id="Path_9473" data-name="Path 9473" d="M157.761,341.583a2.1,2.1,0,1,1,2.277-1.878,2.086,2.086,0,0,1-2.277,1.878" transform="translate(-152.817 -329.74)" fill="#fff"/>
            <path id="Path_9474" data-name="Path 9474" d="M157.838,341.871a2.293,2.293,0,1,1,2.487-2.048,2.279,2.279,0,0,1-2.487,2.048m.433-4.183a1.911,1.911,0,1,0,1.671,2.094,1.9,1.9,0,0,0-1.671-2.094" transform="translate(-152.914 -329.837)"/>
            <path id="Path_9475" data-name="Path 9475" d="M152.676,341.057a2.1,2.1,0,1,1,2.277-1.878,2.089,2.089,0,0,1-2.277,1.878" transform="translate(-158.031 -330.282)" fill="#fff"/>
            <path id="Path_9476" data-name="Path 9476" d="M152.754,341.342a2.293,2.293,0,1,1,2.487-2.046,2.279,2.279,0,0,1-2.487,2.046m.433-4.181a1.91,1.91,0,1,0,1.671,2.094,1.9,1.9,0,0,0-1.671-2.094" transform="translate(-158.127 -330.379)"/>
            <path id="Path_9477" data-name="Path 9477" d="M154.95,343.9a2.1,2.1,0,1,1,2.277-1.878,2.086,2.086,0,0,1-2.277,1.878" transform="translate(-155.699 -327.364)" fill="#fff"/>
            <path id="Path_9478" data-name="Path 9478" d="M155.028,344.189a2.294,2.294,0,1,1,2.487-2.048,2.28,2.28,0,0,1-2.487,2.048m.433-4.182a1.911,1.911,0,1,0,1.673,2.094,1.9,1.9,0,0,0-1.673-2.094" transform="translate(-155.795 -327.461)"/>
            <path id="Path_9479" data-name="Path 9479" d="M160.035,344.43a2.1,2.1,0,1,1,2.279-1.878,2.087,2.087,0,0,1-2.279,1.878" transform="translate(-150.485 -326.823)" fill="#fff"/>
            <path id="Path_9480" data-name="Path 9480" d="M160.112,344.716a2.293,2.293,0,1,1,2.487-2.046,2.28,2.28,0,0,1-2.487,2.046m.435-4.181a1.911,1.911,0,1,0,1.671,2.094,1.9,1.9,0,0,0-1.671-2.094" transform="translate(-150.582 -326.92)"/>
            <path id="Path_9481" data-name="Path 9481" d="M155.486,338.739a2.1,2.1,0,1,1,2.277-1.878,2.087,2.087,0,0,1-2.277,1.878" transform="translate(-155.15 -332.659)" fill="#fff"/>
            <path id="Path_9482" data-name="Path 9482" d="M155.563,339.026a2.293,2.293,0,1,1,2.487-2.046,2.279,2.279,0,0,1-2.487,2.046m.435-4.181a1.911,1.911,0,1,0,1.671,2.094A1.9,1.9,0,0,0,156,334.845" transform="translate(-155.247 -332.755)"/>
            <path id="Path_9483" data-name="Path 9483" d="M160.571,339.268a2.1,2.1,0,1,1,2.279-1.878,2.089,2.089,0,0,1-2.279,1.878" transform="translate(-149.935 -332.116)" fill="#fff"/>
            <path id="Path_9484" data-name="Path 9484" d="M160.65,339.554a2.293,2.293,0,1,1,2.487-2.046,2.282,2.282,0,0,1-2.487,2.046m.433-4.181a1.91,1.91,0,1,0,1.671,2.094,1.9,1.9,0,0,0-1.671-2.094" transform="translate(-150.032 -332.213)"/>
            <path id="Path_9485" data-name="Path 9485" d="M162.309,347.275a2.1,2.1,0,1,1,2.277-1.88,2.089,2.089,0,0,1-2.277,1.88" transform="translate(-148.153 -323.905)" fill="#fff"/>
            <path id="Path_9486" data-name="Path 9486" d="M162.387,347.562a2.293,2.293,0,1,1,2.487-2.046,2.279,2.279,0,0,1-2.487,2.046m.433-4.183a1.911,1.911,0,1,0,1.671,2.1,1.9,1.9,0,0,0-1.671-2.1" transform="translate(-148.249 -324.002)"/>
            <path id="Path_9487" data-name="Path 9487" d="M162.845,342.111a2.1,2.1,0,1,1,2.277-1.878,2.087,2.087,0,0,1-2.277,1.878" transform="translate(-147.603 -329.199)" fill="#fff"/>
            <path id="Path_9488" data-name="Path 9488" d="M162.923,342.4a2.294,2.294,0,1,1,2.487-2.048,2.28,2.28,0,0,1-2.487,2.048m.433-4.183a1.911,1.911,0,1,0,1.671,2.094,1.9,1.9,0,0,0-1.671-2.094" transform="translate(-147.699 -329.296)"/>
            <path id="Path_9489" data-name="Path 9489" d="M158.3,336.422a2.1,2.1,0,1,1,2.277-1.878,2.087,2.087,0,0,1-2.277,1.878" transform="translate(-152.267 -335.035)" fill="#fff"/>
            <path id="Path_9490" data-name="Path 9490" d="M158.374,336.709a2.294,2.294,0,1,1,2.487-2.048,2.28,2.28,0,0,1-2.487,2.048m.433-4.182a1.911,1.911,0,1,0,1.671,2.094,1.9,1.9,0,0,0-1.671-2.094" transform="translate(-152.364 -335.132)"/>
            <path id="Path_9491" data-name="Path 9491" d="M153.212,335.893a2.1,2.1,0,1,1,2.277-1.878,2.086,2.086,0,0,1-2.277,1.878" transform="translate(-157.482 -335.575)" fill="#fff"/>
            <path id="Path_9492" data-name="Path 9492" d="M153.29,336.182a2.294,2.294,0,1,1,2.487-2.048,2.279,2.279,0,0,1-2.487,2.048m.433-4.183a1.911,1.911,0,1,0,1.671,2.094A1.9,1.9,0,0,0,153.723,332" transform="translate(-157.578 -335.673)"/>
            <path id="Path_9493" data-name="Path 9493" d="M163.381,336.95a2.1,2.1,0,1,1,2.277-1.878,2.089,2.089,0,0,1-2.277,1.878" transform="translate(-147.054 -334.494)" fill="#fff"/>
            <path id="Path_9494" data-name="Path 9494" d="M163.459,337.236a2.293,2.293,0,1,1,2.487-2.046,2.278,2.278,0,0,1-2.487,2.046m.433-4.181a1.911,1.911,0,1,0,1.671,2.094,1.9,1.9,0,0,0-1.671-2.094" transform="translate(-147.15 -334.59)"/>
          </g>
        </g>
        <g id="Group_20032" data-name="Group 20032" transform="translate(309.878 695.507)">
          <g id="Group_20031" data-name="Group 20031" clip-path="url(#clip-path-21)">
            <path id="Path_9496" data-name="Path 9496" d="M156.152,357.072a2.1,2.1,0,1,1,2.277-1.88,2.089,2.089,0,0,1-2.277,1.88" transform="translate(-151.652 -333.644)" fill="#fff"/>
            <path id="Path_9497" data-name="Path 9497" d="M156.23,357.359a2.293,2.293,0,1,1,2.487-2.048,2.279,2.279,0,0,1-2.487,2.048m.433-4.183a1.911,1.911,0,1,0,1.671,2.094,1.9,1.9,0,0,0-1.671-2.094" transform="translate(-151.748 -333.74)"/>
            <path id="Path_9498" data-name="Path 9498" d="M151.067,356.544a2.1,2.1,0,1,1,2.277-1.878,2.089,2.089,0,0,1-2.277,1.878" transform="translate(-156.867 -334.185)" fill="#fff"/>
            <path id="Path_9499" data-name="Path 9499" d="M151.144,356.83a2.293,2.293,0,1,1,2.487-2.046,2.281,2.281,0,0,1-2.487,2.046m.435-4.183a1.911,1.911,0,1,0,1.671,2.1,1.9,1.9,0,0,0-1.671-2.1" transform="translate(-156.963 -334.282)"/>
            <path id="Path_9500" data-name="Path 9500" d="M156.688,351.908a2.1,2.1,0,1,1,2.277-1.878,2.087,2.087,0,0,1-2.277,1.878" transform="translate(-151.103 -338.937)" fill="#fff"/>
            <path id="Path_9501" data-name="Path 9501" d="M156.766,352.194a2.293,2.293,0,1,1,2.487-2.046,2.277,2.277,0,0,1-2.487,2.046m.433-4.181a1.911,1.911,0,1,0,1.671,2.094,1.9,1.9,0,0,0-1.671-2.094" transform="translate(-151.199 -339.035)"/>
            <path id="Path_9502" data-name="Path 9502" d="M151.6,351.38a2.1,2.1,0,1,1,2.279-1.878,2.086,2.086,0,0,1-2.279,1.878" transform="translate(-156.317 -339.479)" fill="#fff"/>
            <path id="Path_9503" data-name="Path 9503" d="M151.68,351.668a2.293,2.293,0,1,1,2.487-2.048,2.282,2.282,0,0,1-2.487,2.048m.438-4.183a1.912,1.912,0,1,0,1.671,2.094,1.9,1.9,0,0,0-1.671-2.094" transform="translate(-156.414 -339.576)"/>
            <path id="Path_9504" data-name="Path 9504" d="M153.878,354.227a2.1,2.1,0,1,1,2.277-1.878,2.087,2.087,0,0,1-2.277,1.878" transform="translate(-153.984 -336.561)" fill="#fff"/>
            <path id="Path_9505" data-name="Path 9505" d="M153.955,354.513a2.293,2.293,0,1,1,2.487-2.046,2.278,2.278,0,0,1-2.487,2.046m.433-4.181a1.911,1.911,0,1,0,1.671,2.094,1.894,1.894,0,0,0-1.671-2.094" transform="translate(-154.081 -336.658)"/>
            <path id="Path_9506" data-name="Path 9506" d="M158.962,354.755a2.1,2.1,0,1,1,2.277-1.878,2.089,2.089,0,0,1-2.277,1.878" transform="translate(-148.771 -336.02)" fill="#fff"/>
            <path id="Path_9507" data-name="Path 9507" d="M159.039,355.041a2.293,2.293,0,1,1,2.487-2.046,2.281,2.281,0,0,1-2.487,2.046m.435-4.183a1.911,1.911,0,1,0,1.671,2.1,1.9,1.9,0,0,0-1.671-2.1" transform="translate(-148.867 -336.117)"/>
            <path id="Path_9508" data-name="Path 9508" d="M154.414,349.064a2.1,2.1,0,1,1,2.277-1.878,2.089,2.089,0,0,1-2.277,1.878" transform="translate(-153.434 -341.856)" fill="#fff"/>
            <path id="Path_9509" data-name="Path 9509" d="M154.491,349.351a2.293,2.293,0,1,1,2.487-2.046,2.279,2.279,0,0,1-2.487,2.046m.435-4.183a1.911,1.911,0,1,0,1.671,2.1,1.9,1.9,0,0,0-1.671-2.1" transform="translate(-153.531 -341.951)"/>
            <path id="Path_9510" data-name="Path 9510" d="M159.5,349.591a2.1,2.1,0,1,1,2.277-1.878,2.086,2.086,0,0,1-2.277,1.878" transform="translate(-148.221 -341.313)" fill="#fff"/>
            <path id="Path_9511" data-name="Path 9511" d="M159.575,349.879a2.293,2.293,0,1,1,2.487-2.048,2.281,2.281,0,0,1-2.487,2.048m.436-4.183a1.911,1.911,0,1,0,1.671,2.094,1.9,1.9,0,0,0-1.671-2.094" transform="translate(-148.318 -341.41)"/>
            <path id="Path_9512" data-name="Path 9512" d="M161.237,357.6a2.1,2.1,0,1,1,2.277-1.878,2.086,2.086,0,0,1-2.277,1.878" transform="translate(-146.438 -333.101)" fill="#fff"/>
            <path id="Path_9513" data-name="Path 9513" d="M161.314,357.888a2.294,2.294,0,1,1,2.487-2.048,2.279,2.279,0,0,1-2.487,2.048m.433-4.183a1.911,1.911,0,1,0,1.671,2.094,1.9,1.9,0,0,0-1.671-2.094" transform="translate(-146.535 -333.199)"/>
            <path id="Path_9514" data-name="Path 9514" d="M161.773,352.437a2.1,2.1,0,1,1,2.277-1.878,2.087,2.087,0,0,1-2.277,1.878" transform="translate(-145.888 -338.397)" fill="#fff"/>
            <path id="Path_9515" data-name="Path 9515" d="M161.85,352.723a2.293,2.293,0,1,1,2.487-2.046,2.278,2.278,0,0,1-2.487,2.046m.433-4.181a1.911,1.911,0,1,0,1.671,2.094,1.9,1.9,0,0,0-1.671-2.094" transform="translate(-145.985 -338.493)"/>
            <path id="Path_9516" data-name="Path 9516" d="M157.225,346.747a2.1,2.1,0,1,1,2.277-1.878,2.086,2.086,0,0,1-2.277,1.878" transform="translate(-150.552 -344.232)" fill="#fff"/>
            <path id="Path_9517" data-name="Path 9517" d="M157.3,347.033a2.293,2.293,0,1,1,2.487-2.046,2.278,2.278,0,0,1-2.487,2.046m.433-4.181a1.911,1.911,0,1,0,1.671,2.094,1.9,1.9,0,0,0-1.671-2.094" transform="translate(-150.649 -344.328)"/>
            <path id="Path_9518" data-name="Path 9518" d="M152.141,346.219a2.1,2.1,0,1,1,2.279-1.878,2.088,2.088,0,0,1-2.279,1.878" transform="translate(-155.767 -344.773)" fill="#fff"/>
            <path id="Path_9519" data-name="Path 9519" d="M152.217,346.5a2.293,2.293,0,1,1,2.487-2.046,2.28,2.28,0,0,1-2.487,2.046m.436-4.181a1.911,1.911,0,1,0,1.671,2.094,1.9,1.9,0,0,0-1.671-2.094" transform="translate(-155.863 -344.87)"/>
            <path id="Path_9520" data-name="Path 9520" d="M162.309,347.275a2.1,2.1,0,1,1,2.277-1.88,2.089,2.089,0,0,1-2.277,1.88" transform="translate(-145.338 -343.69)" fill="#fff"/>
            <path id="Path_9521" data-name="Path 9521" d="M162.387,347.562a2.293,2.293,0,1,1,2.487-2.046,2.279,2.279,0,0,1-2.487,2.046m.433-4.183a1.911,1.911,0,1,0,1.671,2.1,1.9,1.9,0,0,0-1.671-2.1" transform="translate(-145.434 -343.786)"/>
          </g>
        </g>
        <g id="Group_20034" data-name="Group 20034" transform="translate(335.111 645.397)">
          <g id="Group_20033" data-name="Group 20033" clip-path="url(#clip-path-22)">
            <path id="Path_9523" data-name="Path 9523" d="M169.538,327.153a2.1,2.1,0,1,1,2.279-1.878,2.087,2.087,0,0,1-2.279,1.878" transform="translate(-163.158 -314.214)" fill="#fff"/>
            <path id="Path_9524" data-name="Path 9524" d="M169.615,327.439a2.293,2.293,0,1,1,2.487-2.046,2.28,2.28,0,0,1-2.487,2.046m.435-4.181a1.91,1.91,0,1,0,1.671,2.094,1.9,1.9,0,0,0-1.671-2.094" transform="translate(-163.255 -314.31)"/>
            <path id="Path_9525" data-name="Path 9525" d="M164.453,326.625a2.1,2.1,0,1,1,2.277-1.878,2.087,2.087,0,0,1-2.277,1.878" transform="translate(-168.372 -314.756)" fill="#fff"/>
            <path id="Path_9526" data-name="Path 9526" d="M164.531,326.911a2.293,2.293,0,1,1,2.487-2.046,2.277,2.277,0,0,1-2.487,2.046m.433-4.181a1.911,1.911,0,1,0,1.671,2.094,1.9,1.9,0,0,0-1.671-2.094" transform="translate(-168.468 -314.853)"/>
            <path id="Path_9527" data-name="Path 9527" d="M170.075,321.991a2.1,2.1,0,1,1,2.277-1.88,2.089,2.089,0,0,1-2.277,1.88" transform="translate(-162.607 -319.508)" fill="#fff"/>
            <path id="Path_9528" data-name="Path 9528" d="M170.152,322.278a2.293,2.293,0,1,1,2.487-2.048,2.279,2.279,0,0,1-2.487,2.048m.433-4.183a1.911,1.911,0,1,0,1.671,2.094,1.9,1.9,0,0,0-1.671-2.094" transform="translate(-162.704 -319.604)"/>
            <path id="Path_9529" data-name="Path 9529" d="M164.99,321.463a2.1,2.1,0,1,1,2.277-1.878,2.089,2.089,0,0,1-2.277,1.878" transform="translate(-167.822 -320.049)" fill="#fff"/>
            <path id="Path_9530" data-name="Path 9530" d="M165.067,321.749a2.293,2.293,0,1,1,2.487-2.046,2.281,2.281,0,0,1-2.487,2.046m.435-4.181a1.91,1.91,0,1,0,1.671,2.094,1.9,1.9,0,0,0-1.671-2.094" transform="translate(-167.918 -320.146)"/>
            <path id="Path_9531" data-name="Path 9531" d="M167.264,324.307a2.1,2.1,0,1,1,2.277-1.878,2.086,2.086,0,0,1-2.277,1.878" transform="translate(-165.49 -317.131)" fill="#fff"/>
            <path id="Path_9532" data-name="Path 9532" d="M167.342,324.6a2.294,2.294,0,1,1,2.487-2.048,2.28,2.28,0,0,1-2.487,2.048m.433-4.183a1.911,1.911,0,1,0,1.671,2.094,1.9,1.9,0,0,0-1.671-2.094" transform="translate(-165.586 -317.229)"/>
            <path id="Path_9533" data-name="Path 9533" d="M172.35,324.836a2.1,2.1,0,1,1,2.275-1.878,2.087,2.087,0,0,1-2.275,1.878" transform="translate(-160.276 -316.59)" fill="#fff"/>
            <path id="Path_9534" data-name="Path 9534" d="M172.426,325.122a2.293,2.293,0,1,1,2.487-2.046,2.277,2.277,0,0,1-2.487,2.046m.433-4.181a1.911,1.911,0,1,0,1.671,2.094,1.9,1.9,0,0,0-1.671-2.094" transform="translate(-160.372 -316.688)"/>
            <path id="Path_9535" data-name="Path 9535" d="M167.8,319.144a2.1,2.1,0,1,1,2.277-1.878,2.087,2.087,0,0,1-2.277,1.878" transform="translate(-164.94 -322.425)" fill="#fff"/>
            <path id="Path_9536" data-name="Path 9536" d="M167.878,319.432a2.293,2.293,0,1,1,2.487-2.046,2.277,2.277,0,0,1-2.487,2.046m.433-4.181a1.911,1.911,0,1,0,1.671,2.094,1.9,1.9,0,0,0-1.671-2.094" transform="translate(-165.036 -322.522)"/>
            <path id="Path_9537" data-name="Path 9537" d="M172.885,319.674a2.1,2.1,0,1,1,2.277-1.878,2.089,2.089,0,0,1-2.277,1.878" transform="translate(-159.726 -321.884)" fill="#fff"/>
            <path id="Path_9538" data-name="Path 9538" d="M172.962,319.96a2.293,2.293,0,1,1,2.487-2.046,2.278,2.278,0,0,1-2.487,2.046m.433-4.181a1.91,1.91,0,1,0,1.673,2.094,1.9,1.9,0,0,0-1.673-2.094" transform="translate(-159.823 -321.981)"/>
            <path id="Path_9539" data-name="Path 9539" d="M174.623,327.682A2.1,2.1,0,1,1,176.9,325.8a2.089,2.089,0,0,1-2.277,1.878" transform="translate(-157.943 -313.672)" fill="#fff"/>
            <path id="Path_9540" data-name="Path 9540" d="M174.7,327.968a2.293,2.293,0,1,1,2.487-2.046,2.279,2.279,0,0,1-2.487,2.046m.436-4.183a1.911,1.911,0,1,0,1.671,2.1,1.9,1.9,0,0,0-1.671-2.1" transform="translate(-158.04 -313.769)"/>
            <path id="Path_9541" data-name="Path 9541" d="M175.159,322.518a2.1,2.1,0,1,1,2.277-1.878,2.086,2.086,0,0,1-2.277,1.878" transform="translate(-157.394 -318.966)" fill="#fff"/>
            <path id="Path_9542" data-name="Path 9542" d="M175.237,322.806a2.294,2.294,0,1,1,2.487-2.048,2.28,2.28,0,0,1-2.487,2.048m.433-4.183a1.911,1.911,0,1,0,1.671,2.094,1.9,1.9,0,0,0-1.671-2.094" transform="translate(-157.49 -319.063)"/>
            <path id="Path_9543" data-name="Path 9543" d="M170.611,316.827a2.1,2.1,0,1,1,2.277-1.878,2.087,2.087,0,0,1-2.277,1.878" transform="translate(-162.057 -324.802)" fill="#fff"/>
            <path id="Path_9544" data-name="Path 9544" d="M170.688,317.114a2.293,2.293,0,1,1,2.487-2.046,2.277,2.277,0,0,1-2.487,2.046m.433-4.181a1.911,1.911,0,1,0,1.671,2.094,1.9,1.9,0,0,0-1.671-2.094" transform="translate(-162.154 -324.899)"/>
            <path id="Path_9545" data-name="Path 9545" d="M165.526,316.3a2.1,2.1,0,1,1,2.279-1.878,2.086,2.086,0,0,1-2.279,1.878" transform="translate(-167.272 -325.343)" fill="#fff"/>
            <path id="Path_9546" data-name="Path 9546" d="M165.6,316.587a2.293,2.293,0,1,1,2.487-2.048,2.282,2.282,0,0,1-2.487,2.048m.436-4.183a1.911,1.911,0,1,0,1.671,2.094,1.9,1.9,0,0,0-1.671-2.094" transform="translate(-167.369 -325.44)"/>
            <path id="Path_9547" data-name="Path 9547" d="M175.695,317.356a2.1,2.1,0,1,1,2.277-1.878,2.087,2.087,0,0,1-2.277,1.878" transform="translate(-156.844 -324.261)" fill="#fff"/>
            <path id="Path_9548" data-name="Path 9548" d="M175.773,317.642a2.293,2.293,0,1,1,2.487-2.046,2.277,2.277,0,0,1-2.487,2.046m.433-4.181a1.911,1.911,0,1,0,1.671,2.094,1.9,1.9,0,0,0-1.671-2.094" transform="translate(-156.94 -324.357)"/>
          </g>
        </g>
        <g id="Group_20036" data-name="Group 20036" transform="translate(329.239 655.561)">
          <g id="Group_20035" data-name="Group 20035" clip-path="url(#clip-path-23)">
            <path id="Path_9550" data-name="Path 9550" d="M168.466,337.478a2.1,2.1,0,1,1,2.277-1.878,2.089,2.089,0,0,1-2.277,1.878" transform="translate(-158.385 -313.79)" fill="#fff"/>
            <path id="Path_9551" data-name="Path 9551" d="M168.543,337.765a2.293,2.293,0,1,1,2.487-2.046,2.282,2.282,0,0,1-2.487,2.046m.435-4.183a1.911,1.911,0,1,0,1.671,2.1,1.9,1.9,0,0,0-1.671-2.1" transform="translate(-158.482 -313.886)"/>
            <path id="Path_9552" data-name="Path 9552" d="M163.381,336.95a2.1,2.1,0,1,1,2.277-1.878,2.089,2.089,0,0,1-2.277,1.878" transform="translate(-163.6 -314.332)" fill="#fff"/>
            <path id="Path_9553" data-name="Path 9553" d="M163.459,337.236a2.293,2.293,0,1,1,2.487-2.046,2.278,2.278,0,0,1-2.487,2.046m.433-4.181a1.911,1.911,0,1,0,1.671,2.094,1.9,1.9,0,0,0-1.671-2.094" transform="translate(-163.696 -314.429)"/>
            <path id="Path_9554" data-name="Path 9554" d="M169,332.314a2.1,2.1,0,1,1,2.279-1.878A2.086,2.086,0,0,1,169,332.314" transform="translate(-157.836 -319.084)" fill="#fff"/>
            <path id="Path_9555" data-name="Path 9555" d="M169.079,332.6a2.294,2.294,0,1,1,2.487-2.048,2.283,2.283,0,0,1-2.487,2.048m.435-4.182a1.911,1.911,0,1,0,1.671,2.094,1.9,1.9,0,0,0-1.671-2.094" transform="translate(-157.932 -319.181)"/>
            <path id="Path_9556" data-name="Path 9556" d="M163.917,331.786a2.1,2.1,0,1,1,2.277-1.878,2.086,2.086,0,0,1-2.277,1.878" transform="translate(-163.05 -319.625)" fill="#fff"/>
            <path id="Path_9557" data-name="Path 9557" d="M163.995,332.074a2.293,2.293,0,1,1,2.487-2.048,2.279,2.279,0,0,1-2.487,2.048m.433-4.183a1.911,1.911,0,1,0,1.671,2.094,1.9,1.9,0,0,0-1.671-2.094" transform="translate(-163.146 -319.722)"/>
            <path id="Path_9558" data-name="Path 9558" d="M166.192,334.633a2.1,2.1,0,1,1,2.277-1.878,2.087,2.087,0,0,1-2.277,1.878" transform="translate(-160.717 -316.708)" fill="#fff"/>
            <path id="Path_9559" data-name="Path 9559" d="M166.269,334.919a2.293,2.293,0,1,1,2.487-2.046,2.277,2.277,0,0,1-2.487,2.046m.433-4.181a1.911,1.911,0,1,0,1.671,2.094,1.9,1.9,0,0,0-1.671-2.094" transform="translate(-160.814 -316.805)"/>
            <path id="Path_9560" data-name="Path 9560" d="M171.276,335.161a2.1,2.1,0,1,1,2.277-1.878,2.089,2.089,0,0,1-2.277,1.878" transform="translate(-155.504 -316.167)" fill="#fff"/>
            <path id="Path_9561" data-name="Path 9561" d="M171.354,335.447a2.293,2.293,0,1,1,2.487-2.046,2.279,2.279,0,0,1-2.487,2.046m.433-4.183a1.911,1.911,0,1,0,1.671,2.1,1.9,1.9,0,0,0-1.671-2.1" transform="translate(-155.6 -316.263)"/>
            <path id="Path_9562" data-name="Path 9562" d="M166.728,329.471A2.1,2.1,0,1,1,169,327.593a2.089,2.089,0,0,1-2.277,1.878" transform="translate(-160.168 -322.001)" fill="#fff"/>
            <path id="Path_9563" data-name="Path 9563" d="M166.8,329.757a2.293,2.293,0,1,1,2.487-2.046,2.279,2.279,0,0,1-2.487,2.046m.433-4.181a1.91,1.91,0,1,0,1.671,2.094,1.9,1.9,0,0,0-1.671-2.094" transform="translate(-160.265 -322.098)"/>
            <path id="Path_9564" data-name="Path 9564" d="M171.812,330a2.1,2.1,0,1,1,2.277-1.878A2.086,2.086,0,0,1,171.812,330" transform="translate(-154.954 -321.46)" fill="#fff"/>
            <path id="Path_9565" data-name="Path 9565" d="M171.89,330.285a2.293,2.293,0,1,1,2.487-2.048,2.279,2.279,0,0,1-2.487,2.048m.433-4.183a1.911,1.911,0,1,0,1.671,2.094,1.9,1.9,0,0,0-1.671-2.094" transform="translate(-155.05 -321.557)"/>
            <path id="Path_9566" data-name="Path 9566" d="M173.55,338.005a2.1,2.1,0,1,1,2.279-1.878,2.087,2.087,0,0,1-2.279,1.878" transform="translate(-153.172 -313.248)" fill="#fff"/>
            <path id="Path_9567" data-name="Path 9567" d="M173.626,338.293a2.294,2.294,0,1,1,2.487-2.048,2.279,2.279,0,0,1-2.487,2.048m.435-4.183a1.911,1.911,0,1,0,1.671,2.094,1.9,1.9,0,0,0-1.671-2.094" transform="translate(-153.268 -313.346)"/>
            <path id="Path_9568" data-name="Path 9568" d="M174.087,332.843a2.1,2.1,0,1,1,2.277-1.878,2.087,2.087,0,0,1-2.277,1.878" transform="translate(-152.621 -318.542)" fill="#fff"/>
            <path id="Path_9569" data-name="Path 9569" d="M174.164,333.129a2.293,2.293,0,1,1,2.487-2.046,2.277,2.277,0,0,1-2.487,2.046m.433-4.181a1.911,1.911,0,1,0,1.671,2.094,1.9,1.9,0,0,0-1.671-2.094" transform="translate(-152.718 -318.639)"/>
            <path id="Path_9570" data-name="Path 9570" d="M169.538,327.153a2.1,2.1,0,1,1,2.279-1.878,2.087,2.087,0,0,1-2.279,1.878" transform="translate(-157.286 -324.378)" fill="#fff"/>
            <path id="Path_9571" data-name="Path 9571" d="M169.615,327.439a2.293,2.293,0,1,1,2.487-2.046,2.28,2.28,0,0,1-2.487,2.046m.435-4.181a1.91,1.91,0,1,0,1.671,2.094,1.9,1.9,0,0,0-1.671-2.094" transform="translate(-157.383 -324.474)"/>
            <path id="Path_9572" data-name="Path 9572" d="M164.453,326.625a2.1,2.1,0,1,1,2.277-1.878,2.087,2.087,0,0,1-2.277,1.878" transform="translate(-162.5 -324.92)" fill="#fff"/>
            <path id="Path_9573" data-name="Path 9573" d="M164.531,326.911a2.293,2.293,0,1,1,2.487-2.046,2.277,2.277,0,0,1-2.487,2.046m.433-4.181a1.911,1.911,0,1,0,1.671,2.094,1.9,1.9,0,0,0-1.671-2.094" transform="translate(-162.596 -325.017)"/>
            <path id="Path_9574" data-name="Path 9574" d="M174.623,327.682A2.1,2.1,0,1,1,176.9,325.8a2.089,2.089,0,0,1-2.277,1.878" transform="translate(-152.072 -323.836)" fill="#fff"/>
            <path id="Path_9575" data-name="Path 9575" d="M174.7,327.968a2.293,2.293,0,1,1,2.487-2.046,2.279,2.279,0,0,1-2.487,2.046m.436-4.183a1.911,1.911,0,1,0,1.671,2.1,1.9,1.9,0,0,0-1.671-2.1" transform="translate(-152.169 -323.933)"/>
          </g>
        </g>
        <g id="Group_20038" data-name="Group 20038" transform="translate(327.066 676.089)">
          <g id="Group_20037" data-name="Group 20037" clip-path="url(#clip-path-24)">
            <path id="Path_9577" data-name="Path 9577" d="M167.393,347.8a2.1,2.1,0,1,1,2.277-1.878,2.086,2.086,0,0,1-2.277,1.878" transform="translate(-157.312 -323.73)" fill="#fff"/>
            <path id="Path_9578" data-name="Path 9578" d="M167.471,348.09a2.294,2.294,0,1,1,2.487-2.048,2.279,2.279,0,0,1-2.487,2.048m.433-4.182A1.911,1.911,0,1,0,169.575,346a1.9,1.9,0,0,0-1.671-2.094" transform="translate(-157.408 -323.828)"/>
            <path id="Path_9579" data-name="Path 9579" d="M162.309,347.275a2.1,2.1,0,1,1,2.277-1.88,2.089,2.089,0,0,1-2.277,1.88" transform="translate(-162.526 -324.272)" fill="#fff"/>
            <path id="Path_9580" data-name="Path 9580" d="M162.387,347.562a2.293,2.293,0,1,1,2.487-2.046,2.279,2.279,0,0,1-2.487,2.046m.433-4.183a1.911,1.911,0,1,0,1.671,2.1,1.9,1.9,0,0,0-1.671-2.1" transform="translate(-162.622 -324.368)"/>
            <path id="Path_9581" data-name="Path 9581" d="M167.93,342.64a2.1,2.1,0,1,1,2.277-1.878,2.087,2.087,0,0,1-2.277,1.878" transform="translate(-156.762 -329.023)" fill="#fff"/>
            <path id="Path_9582" data-name="Path 9582" d="M168.007,342.926a2.293,2.293,0,1,1,2.487-2.046,2.277,2.277,0,0,1-2.487,2.046m.433-4.181a1.911,1.911,0,1,0,1.671,2.094,1.9,1.9,0,0,0-1.671-2.094" transform="translate(-156.859 -329.121)"/>
            <path id="Path_9583" data-name="Path 9583" d="M162.845,342.111a2.1,2.1,0,1,1,2.277-1.878,2.087,2.087,0,0,1-2.277,1.878" transform="translate(-161.976 -329.566)" fill="#fff"/>
            <path id="Path_9584" data-name="Path 9584" d="M162.923,342.4a2.294,2.294,0,1,1,2.487-2.048,2.28,2.28,0,0,1-2.487,2.048m.433-4.183a1.911,1.911,0,1,0,1.671,2.094,1.9,1.9,0,0,0-1.671-2.094" transform="translate(-162.072 -329.662)"/>
            <path id="Path_9585" data-name="Path 9585" d="M165.119,344.958a2.1,2.1,0,1,1,2.277-1.878,2.089,2.089,0,0,1-2.277,1.878" transform="translate(-159.644 -326.648)" fill="#fff"/>
            <path id="Path_9586" data-name="Path 9586" d="M165.2,345.243a2.293,2.293,0,1,1,2.489-2.046,2.282,2.282,0,0,1-2.489,2.046m.435-4.183a1.911,1.911,0,1,0,1.671,2.1,1.9,1.9,0,0,0-1.671-2.1" transform="translate(-159.741 -326.745)"/>
            <path id="Path_9587" data-name="Path 9587" d="M170.2,345.486a2.1,2.1,0,1,1,2.277-1.88,2.089,2.089,0,0,1-2.277,1.88" transform="translate(-154.43 -326.107)" fill="#fff"/>
            <path id="Path_9588" data-name="Path 9588" d="M170.282,345.773a2.294,2.294,0,1,1,2.487-2.048,2.279,2.279,0,0,1-2.487,2.048m.433-4.183a1.911,1.911,0,1,0,1.671,2.094,1.9,1.9,0,0,0-1.671-2.094" transform="translate(-154.526 -326.203)"/>
            <path id="Path_9589" data-name="Path 9589" d="M165.656,339.794a2.1,2.1,0,1,1,2.277-1.878,2.086,2.086,0,0,1-2.277,1.878" transform="translate(-159.094 -331.942)" fill="#fff"/>
            <path id="Path_9590" data-name="Path 9590" d="M165.733,340.082a2.293,2.293,0,1,1,2.487-2.048,2.279,2.279,0,0,1-2.487,2.048m.433-4.183a1.911,1.911,0,1,0,1.671,2.094,1.9,1.9,0,0,0-1.671-2.094" transform="translate(-159.191 -332.039)"/>
            <path id="Path_9591" data-name="Path 9591" d="M170.74,340.322a2.1,2.1,0,1,1,2.277-1.878,2.087,2.087,0,0,1-2.277,1.878" transform="translate(-153.88 -331.4)" fill="#fff"/>
            <path id="Path_9592" data-name="Path 9592" d="M170.818,340.612a2.294,2.294,0,1,1,2.487-2.048,2.281,2.281,0,0,1-2.487,2.048m.433-4.183a1.911,1.911,0,1,0,1.671,2.094,1.9,1.9,0,0,0-1.671-2.094" transform="translate(-153.976 -331.497)"/>
            <path id="Path_9593" data-name="Path 9593" d="M172.478,348.331a2.1,2.1,0,1,1,2.277-1.878,2.087,2.087,0,0,1-2.277,1.878" transform="translate(-152.098 -323.189)" fill="#fff"/>
            <path id="Path_9594" data-name="Path 9594" d="M172.555,348.616a2.293,2.293,0,1,1,2.487-2.046,2.28,2.28,0,0,1-2.487,2.046m.435-4.181a1.911,1.911,0,1,0,1.671,2.094,1.9,1.9,0,0,0-1.671-2.094" transform="translate(-152.195 -323.286)"/>
            <path id="Path_9595" data-name="Path 9595" d="M173.014,343.169a2.1,2.1,0,1,1,2.279-1.878,2.089,2.089,0,0,1-2.279,1.878" transform="translate(-151.548 -328.483)" fill="#fff"/>
            <path id="Path_9596" data-name="Path 9596" d="M173.091,343.454a2.293,2.293,0,1,1,2.487-2.046,2.282,2.282,0,0,1-2.487,2.046m.435-4.181a1.91,1.91,0,1,0,1.671,2.094,1.9,1.9,0,0,0-1.671-2.094" transform="translate(-151.645 -328.579)"/>
            <path id="Path_9597" data-name="Path 9597" d="M168.466,337.478a2.1,2.1,0,1,1,2.277-1.878,2.089,2.089,0,0,1-2.277,1.878" transform="translate(-156.212 -334.319)" fill="#fff"/>
            <path id="Path_9598" data-name="Path 9598" d="M168.543,337.765a2.293,2.293,0,1,1,2.487-2.046,2.282,2.282,0,0,1-2.487,2.046m.435-4.183a1.911,1.911,0,1,0,1.671,2.1,1.9,1.9,0,0,0-1.671-2.1" transform="translate(-156.309 -334.414)"/>
            <path id="Path_9599" data-name="Path 9599" d="M163.381,336.95a2.1,2.1,0,1,1,2.277-1.878,2.089,2.089,0,0,1-2.277,1.878" transform="translate(-161.426 -334.86)" fill="#fff"/>
            <path id="Path_9600" data-name="Path 9600" d="M163.459,337.236a2.293,2.293,0,1,1,2.487-2.046,2.278,2.278,0,0,1-2.487,2.046m.433-4.181a1.911,1.911,0,1,0,1.671,2.094,1.9,1.9,0,0,0-1.671-2.094" transform="translate(-161.522 -334.957)"/>
            <path id="Path_9601" data-name="Path 9601" d="M173.55,338.005a2.1,2.1,0,1,1,2.279-1.878,2.087,2.087,0,0,1-2.279,1.878" transform="translate(-150.998 -333.776)" fill="#fff"/>
            <path id="Path_9602" data-name="Path 9602" d="M173.626,338.293a2.294,2.294,0,1,1,2.487-2.048,2.279,2.279,0,0,1-2.487,2.048m.435-4.183a1.911,1.911,0,1,0,1.671,2.094,1.9,1.9,0,0,0-1.671-2.094" transform="translate(-151.094 -333.874)"/>
          </g>
        </g>
        <g id="Group_20040" data-name="Group 20040" transform="translate(326.209 697)">
          <g id="Group_20039" data-name="Group 20039" clip-path="url(#clip-path-25)">
            <path id="Path_9604" data-name="Path 9604" d="M166.321,358.128a2.1,2.1,0,1,1,2.277-1.878,2.087,2.087,0,0,1-2.277,1.878" transform="translate(-157.555 -334.053)" fill="#fff"/>
            <path id="Path_9605" data-name="Path 9605" d="M166.4,358.413a2.293,2.293,0,1,1,2.487-2.046,2.277,2.277,0,0,1-2.487,2.046m.433-4.181a1.911,1.911,0,1,0,1.671,2.094,1.9,1.9,0,0,0-1.671-2.094" transform="translate(-157.651 -334.15)"/>
            <path id="Path_9606" data-name="Path 9606" d="M161.237,357.6a2.1,2.1,0,1,1,2.277-1.878,2.086,2.086,0,0,1-2.277,1.878" transform="translate(-162.768 -334.594)" fill="#fff"/>
            <path id="Path_9607" data-name="Path 9607" d="M161.314,357.888a2.294,2.294,0,1,1,2.487-2.048,2.279,2.279,0,0,1-2.487,2.048m.433-4.183a1.911,1.911,0,1,0,1.671,2.094,1.9,1.9,0,0,0-1.671-2.094" transform="translate(-162.865 -334.692)"/>
            <path id="Path_9608" data-name="Path 9608" d="M166.857,352.966a2.1,2.1,0,1,1,2.277-1.878,2.089,2.089,0,0,1-2.277,1.878" transform="translate(-157.005 -339.347)" fill="#fff"/>
            <path id="Path_9609" data-name="Path 9609" d="M166.935,353.251a2.293,2.293,0,1,1,2.487-2.046,2.279,2.279,0,0,1-2.487,2.046m.433-4.183a1.911,1.911,0,1,0,1.671,2.1,1.9,1.9,0,0,0-1.671-2.1" transform="translate(-157.101 -339.444)"/>
            <path id="Path_9610" data-name="Path 9610" d="M161.773,352.437a2.1,2.1,0,1,1,2.277-1.878,2.087,2.087,0,0,1-2.277,1.878" transform="translate(-162.219 -339.889)" fill="#fff"/>
            <path id="Path_9611" data-name="Path 9611" d="M161.85,352.723a2.293,2.293,0,1,1,2.487-2.046,2.278,2.278,0,0,1-2.487,2.046m.433-4.181a1.911,1.911,0,1,0,1.671,2.094,1.9,1.9,0,0,0-1.671-2.094" transform="translate(-162.316 -339.985)"/>
            <path id="Path_9612" data-name="Path 9612" d="M164.047,355.281a2.1,2.1,0,1,1,2.279-1.878,2.086,2.086,0,0,1-2.279,1.878" transform="translate(-159.887 -336.971)" fill="#fff"/>
            <path id="Path_9613" data-name="Path 9613" d="M164.124,355.57a2.294,2.294,0,1,1,2.489-2.048,2.282,2.282,0,0,1-2.489,2.048m.435-4.183a1.911,1.911,0,1,0,1.671,2.094,1.9,1.9,0,0,0-1.671-2.094" transform="translate(-159.984 -337.068)"/>
            <path id="Path_9614" data-name="Path 9614" d="M169.132,355.81a2.1,2.1,0,1,1,2.277-1.878,2.086,2.086,0,0,1-2.277,1.878" transform="translate(-154.672 -336.429)" fill="#fff"/>
            <path id="Path_9615" data-name="Path 9615" d="M169.209,356.1a2.293,2.293,0,1,1,2.487-2.046,2.278,2.278,0,0,1-2.487,2.046m.433-4.181a1.911,1.911,0,1,0,1.671,2.094,1.9,1.9,0,0,0-1.671-2.094" transform="translate(-154.769 -336.526)"/>
            <path id="Path_9616" data-name="Path 9616" d="M164.583,350.119a2.1,2.1,0,1,1,2.279-1.878,2.088,2.088,0,0,1-2.279,1.878" transform="translate(-159.337 -342.264)" fill="#fff"/>
            <path id="Path_9617" data-name="Path 9617" d="M164.66,350.405a2.293,2.293,0,1,1,2.489-2.046,2.28,2.28,0,0,1-2.489,2.046m.435-4.18a1.911,1.911,0,1,0,1.671,2.094,1.9,1.9,0,0,0-1.671-2.094" transform="translate(-159.434 -342.362)"/>
            <path id="Path_9618" data-name="Path 9618" d="M169.668,350.648a2.1,2.1,0,1,1,2.277-1.878,2.089,2.089,0,0,1-2.277,1.878" transform="translate(-154.123 -341.724)" fill="#fff"/>
            <path id="Path_9619" data-name="Path 9619" d="M169.745,350.934a2.293,2.293,0,1,1,2.487-2.046,2.278,2.278,0,0,1-2.487,2.046m.433-4.181a1.911,1.911,0,1,0,1.671,2.094,1.9,1.9,0,0,0-1.671-2.094" transform="translate(-154.22 -341.82)"/>
            <path id="Path_9620" data-name="Path 9620" d="M171.406,358.656a2.1,2.1,0,1,1,2.277-1.878,2.089,2.089,0,0,1-2.277,1.878" transform="translate(-152.34 -333.512)" fill="#fff"/>
            <path id="Path_9621" data-name="Path 9621" d="M171.483,358.943a2.293,2.293,0,1,1,2.487-2.046,2.278,2.278,0,0,1-2.487,2.046m.433-4.183a1.912,1.912,0,1,0,1.671,2.1,1.9,1.9,0,0,0-1.671-2.1" transform="translate(-152.437 -333.608)"/>
            <path id="Path_9622" data-name="Path 9622" d="M171.942,353.492a2.1,2.1,0,1,1,2.277-1.878,2.086,2.086,0,0,1-2.277,1.878" transform="translate(-151.791 -338.806)" fill="#fff"/>
            <path id="Path_9623" data-name="Path 9623" d="M172.019,353.78a2.293,2.293,0,1,1,2.487-2.048,2.279,2.279,0,0,1-2.487,2.048m.433-4.183a1.911,1.911,0,1,0,1.673,2.094,1.9,1.9,0,0,0-1.673-2.094" transform="translate(-151.888 -338.903)"/>
            <path id="Path_9624" data-name="Path 9624" d="M167.393,347.8a2.1,2.1,0,1,1,2.277-1.878,2.086,2.086,0,0,1-2.277,1.878" transform="translate(-156.456 -344.64)" fill="#fff"/>
            <path id="Path_9625" data-name="Path 9625" d="M167.471,348.09a2.294,2.294,0,1,1,2.487-2.048,2.279,2.279,0,0,1-2.487,2.048m.433-4.182A1.911,1.911,0,1,0,169.575,346a1.9,1.9,0,0,0-1.671-2.094" transform="translate(-156.551 -344.738)"/>
            <path id="Path_9626" data-name="Path 9626" d="M162.309,347.275a2.1,2.1,0,1,1,2.277-1.88,2.089,2.089,0,0,1-2.277,1.88" transform="translate(-161.669 -345.183)" fill="#fff"/>
            <path id="Path_9627" data-name="Path 9627" d="M162.387,347.562a2.293,2.293,0,1,1,2.487-2.046,2.279,2.279,0,0,1-2.487,2.046m.433-4.183a1.911,1.911,0,1,0,1.671,2.1,1.9,1.9,0,0,0-1.671-2.1" transform="translate(-161.765 -345.279)"/>
            <path id="Path_9628" data-name="Path 9628" d="M172.478,348.331a2.1,2.1,0,1,1,2.277-1.878,2.087,2.087,0,0,1-2.277,1.878" transform="translate(-151.241 -344.1)" fill="#fff"/>
            <path id="Path_9629" data-name="Path 9629" d="M172.555,348.616a2.293,2.293,0,1,1,2.487-2.046,2.28,2.28,0,0,1-2.487,2.046m.435-4.181a1.911,1.911,0,1,0,1.671,2.094,1.9,1.9,0,0,0-1.671-2.094" transform="translate(-151.338 -344.197)"/>
          </g>
        </g>
        <g id="Group_20042" data-name="Group 20042">
          <g id="Group_20041" data-name="Group 20041" clip-path="url(#clip-path-2)">
            <path id="Path_9631" data-name="Path 9631" d="M197.289,311.277c-2.151-.219-3.81-1.8-5.811-2.451a5.812,5.812,0,0,0-5.874,1.367c-1.329,1.205-2.477,2.973-4.332,3.382-1.989.44-3.567-.727-4.8-2.153-1.163-1.347-2.214-3.15-3.96-3.8a4.982,4.982,0,0,0-4.48.832,22.174,22.174,0,0,1-3.976,2.57,5.031,5.031,0,0,1-3.974-.411,14.58,14.58,0,0,0-3.429-1.515,3.726,3.726,0,0,0-3.522,1.732c-1.007,1.26-2.048,3.034-1.349,4.679.6,1.422,2.181,2.206,3.545,2.724a22.3,22.3,0,0,0,5.967,1.114,9.621,9.621,0,0,1,5.795,2.5c1.859,1.673,3.3,3.737,5.011,5.552a16.7,16.7,0,0,0,5.234,3.822c3.283,1.465,6.522.391,9.109-1.934,1.408-1.268,4-4.983,6.255-3.512a4.77,4.77,0,0,1,1.5,1.953Z" transform="translate(155.417 315.205)" fill="#f46d10"/>
            <path id="Path_9632" data-name="Path 9632" d="M168.009,326.255c.328-2.37,1.75-5.074,2.076-7.446a2.192,2.192,0,0,1-1.953-3.338,2.078,2.078,0,0,1,2.826-.636,6.792,6.792,0,0,1,3.719-3.016,8.323,8.323,0,0,1,5.262-.065,4.576,4.576,0,0,1,2.975,2.868,5.487,5.487,0,0,1,0,3.713,49.341,49.341,0,0,1-2.487,5.736c-.729,1.584-1.622,2.959-3.575,2.668a5.686,5.686,0,0,1-2.368-.986c-1.924.243-1.4-1.24-.31,5.13-1.554.109-5.937-2.767-6.168-4.628" transform="translate(172.032 319.287)" fill="#89d2e1"/>
            <path id="Path_9633" data-name="Path 9633" d="M174.025,331.224c-1.813-.188-5.89-2.909-6.127-4.825l0-.03,0-.03a20.961,20.961,0,0,1,1.049-3.765,22.449,22.449,0,0,0,.99-3.433,2.712,2.712,0,0,1-2.031-1.379,2.172,2.172,0,0,1,.152-2.3,2.284,2.284,0,0,1,2.927-.808,7.052,7.052,0,0,1,3.735-2.933,8.574,8.574,0,0,1,5.41-.069,4.819,4.819,0,0,1,3.117,3.006,5.7,5.7,0,0,1,.008,3.865,33.454,33.454,0,0,1-1.849,4.385c-.219.462-.437.918-.65,1.379-.751,1.637-1.736,3.119-3.82,2.8a5.9,5.9,0,0,1-2.392-.976,4.4,4.4,0,0,1-.812.008c-.061,0-.134-.01-.184-.008a7.789,7.789,0,0,0,.186.938c.17.737.454,1.973.788,3.917l.043.251-.253.016a1.715,1.715,0,0,1-.286-.006m-5.665-4.853c.247,1.671,4.063,4.193,5.657,4.389-.308-1.772-.571-2.915-.733-3.611-.2-.9-.269-1.167-.1-1.363.134-.158.33-.146.579-.132a4,4,0,0,0,.812-.014l.089-.012.073.051a5.445,5.445,0,0,0,2.269.948c1.683.263,2.526-.784,3.332-2.536.213-.462.433-.922.654-1.385a33.152,33.152,0,0,0,1.823-4.322,5.262,5.262,0,0,0,0-3.563,4.328,4.328,0,0,0-2.834-2.732,8.12,8.12,0,0,0-5.112.065,6.585,6.585,0,0,0-3.6,2.915l-.111.2-.2-.107a1.849,1.849,0,0,0-2.526.561,1.734,1.734,0,0,0-.128,1.829,2.256,2.256,0,0,0,1.894,1.15l.261,0-.036.259a20.87,20.87,0,0,1-1.049,3.765,20.883,20.883,0,0,0-1.023,3.648" transform="translate(171.914 319.17)" fill="#30394d"/>
            <path id="Path_9634" data-name="Path 9634" d="M168.921,319.162s9.4-1.308,12.9-7.324c0,0-13.034-6.8-12.9,7.324" transform="translate(173.221 318.101)" fill="#f46d10"/>
          </g>
        </g>
        <g id="Group_20060" data-name="Group 20060">
          <g id="Group_20059" data-name="Group 20059" clip-path="url(#clip-path-2)">
            <path id="Path_9639" data-name="Path 9639" d="M154.61,310.954c-5.86,11.509-14.442,31.336-36.227,44.092l4.428,1.859c13.86-8.4,24.508-18.818,34.172-33.939,0,0,.622-8.687-2.372-12.013" transform="translate(121.397 318.872)" fill="#2b313f"/>
            <path id="Path_9640" data-name="Path 9640" d="M123.14,357.454l-5.058-2.125.472-.277c20-11.711,28.834-29.4,34.68-41.113q.75-1.5,1.44-2.868l.18-.352.267.294c3.056,3.4,2.447,12.242,2.416,12.307-9.582,15-20.147,25.5-34.279,34.062Zm-3.84-2.206,3.8,1.592c13.976-8.493,24.447-18.9,33.926-33.72.047-.766.415-8.185-2.05-11.43q-.6,1.194-1.248,2.493c-5.829,11.673-14.616,29.27-34.425,41.064" transform="translate(121.089 318.63)" fill="#1f222a"/>
            <path id="Path_9641" data-name="Path 9641" d="M156.235,313.312l-17.174-2.358s-10.233,22.531-2.817,64.371c11.328,2.718,17.4-.435,28.2-5.608-.822.176-6.9-50.5-8.211-56.405" transform="translate(136.948 318.872)" fill="#2b313f"/>
            <path id="Path_9642" data-name="Path 9642" d="M144.088,376.744a33.186,33.186,0,0,1-7.782-1l-.174-.041-.03-.178c-7.344-41.443,2.734-64.306,2.838-64.533l.083-.184,17.565,2.41.043.186c.579,2.611,2.072,13.834,3.654,25.715,1.762,13.234,3.954,29.705,4.472,30.564a.227.227,0,0,0-.241-.083l.176.512-.916.439c-7.567,3.63-12.91,6.192-19.688,6.192m-7.48-1.491c10.8,2.544,16.886-.377,26.931-5.193l.679-.326c-.579-1.746-1.744-10.026-4.476-30.542-1.543-11.606-3-22.582-3.605-25.486l-16.779-2.3c-.938,2.25-9.653,24.666-2.749,63.849" transform="translate(136.821 318.721)" fill="#1f222a"/>
            <path id="Path_9643" data-name="Path 9643" d="M138.461,311.625l5.8.96L141.408,318l3.638,38.747-5.078,7.028-5.009-6.765,4.48-39.195Z" transform="translate(138.395 319.56)" fill="#fff"/>
            <path id="Path_9644" data-name="Path 9644" d="M140.112,364.4l-5.293-7.15.014-.107,4.474-39.16-1.033-6.524,6.554,1.084-3,5.677,3.64,38.767Zm-4.723-7.3,4.719,6.376,4.8-6.642-3.636-38.727,2.718-5.149-5.058-.836.926,5.852,0,.036Z" transform="translate(138.252 319.392)" fill="#1f222a"/>
            <path id="Path_9645" data-name="Path 9645" d="M142.213,320.319c-3.139-1.132-4.608-.727-6.2-5.133-.537-1.491.966-3.4.132-5.3-1.09-2.469-4.721-2.358-5.284-5.236-.839-4.26,3.089-7.188,5.817-5.463,3.666,2.319,8.989-1.13,10.67-1.011,3.765.271,6.3,4.16,8.961,6.384,1.3,1.086,4.284.9,5.045,2.437,1.379,2.785-1.167,2.951-1.15,4.371.032,3.069,1.148,9.1-1.606,10.152-3.543,1.347-7.484-3.358-12.082-2.068" transform="translate(134.076 305.768)" fill="#2b313f"/>
            <path id="Path_9646" data-name="Path 9646" d="M142.985,323.176l-.184-2.352s-5.6,2.084-6.38-2.941c-1.361-8.758-2.236-11.051.952-14.265s12.969-.739,13.52,6.68l1.08,10.747a7.983,7.983,0,0,1-3.858,2.019,11.362,11.362,0,0,1-5.128.111" transform="translate(138.633 309.935)" fill="#fff"/>
            <path id="Path_9647" data-name="Path 9647" d="M145.448,323.823a11.572,11.572,0,0,1-2.38-.245l-.2-.04-.174-2.212a6.169,6.169,0,0,1-4.561-.225,4.019,4.019,0,0,1-1.843-3.04c-.162-1.037-.316-1.983-.458-2.852-1.063-6.52-1.422-8.716,1.487-11.648,1.572-1.586,4.792-1.91,7.826-.79a8.89,8.89,0,0,1,6.161,7.642l1.09,10.873-.1.093a8.224,8.224,0,0,1-3.99,2.088,11.5,11.5,0,0,1-2.86.357m-2.068-.739a11.208,11.208,0,0,0,4.8-.148,7.714,7.714,0,0,0,3.64-1.863l-1.063-10.611a8.358,8.358,0,0,0-5.807-7.178c-2.84-1.049-5.821-.776-7.249.662-2.712,2.734-2.392,4.691-1.333,11.174.142.871.3,1.819.458,2.858a3.492,3.492,0,0,0,1.576,2.649c1.778,1.045,4.413.085,4.438.075l.34-.126Z" transform="translate(138.493 309.8)" fill="#1f222a"/>
            <path id="Path_9648" data-name="Path 9648" d="M147.1,307.335a2.733,2.733,0,0,0-3.431-1.73,2.674,2.674,0,0,0-1.774,3.346l.008.028a2.733,2.733,0,0,0,3.431,1.732,2.678,2.678,0,0,0,1.776-3.344l-.01-.032" transform="translate(145.382 313.25)" fill="#fff"/>
            <path id="Path_9649" data-name="Path 9649" d="M144.634,311.253a3.022,3.022,0,0,1-2.858-2.048,2.963,2.963,0,0,1,1.944-3.725,3.019,3.019,0,0,1,3.771,1.9l0,.008-.261.079.265-.067a2.992,2.992,0,0,1-2.864,3.848m0-5.369a2.463,2.463,0,0,0-.749.117,2.409,2.409,0,0,0-1.6,3.006,2.477,2.477,0,0,0,3.1,1.582,2.408,2.408,0,0,0,1.6-3l.251-.113-.259.087a2.474,2.474,0,0,0-2.339-1.675" transform="translate(145.246 313.111)" fill="#1f222a"/>
            <path id="Path_9650" data-name="Path 9650" d="M135.795,304.823c.464,1.393,2.052,2.125,3.534,2.295s3-.061,4.472.176,3.008,1.136,3.273,2.58a2.752,2.752,0,0,0,.286,1.155,1.135,1.135,0,0,0,1.2.365,2.007,2.007,0,0,0,1.045-.778,3.94,3.94,0,0,0,.555-3.293,6.68,6.68,0,0,0-1.756-2.933,9.012,9.012,0,0,0-5.914-2.789,7.087,7.087,0,0,0-5.906,2.591" transform="translate(139.253 309.267)" fill="#2b313f"/>
            <path id="Path_9651" data-name="Path 9651" d="M135.626,308.457c1.527,2.817-1.4,4.922-1.094,7.689.154,1.394,1.4,1.8,2.226,2.793.984,1.181.841,2.092.685,3.557-.194,1.819.46,7.4,3.583,5.5,1.225-.745,1.4-1.712,2.955-2.228,1.1-.367,2.167-.591,2.83-1.7.743-1.234.055-2.319,0-3.581-.079-1.981.932-1.78,2.19-2.87,2.192-1.892,2.281-4.405,2.279-6.992,0-2.181.492-5.118-1.987-6.255-1.618-.739-1.416-.028-1.236,1.337a13.15,13.15,0,0,1,.275,3.356c-.146,1.231-.606,2.566-1.752,3.028-1.5.616-2.325-.812-3.743-.905-1.616-.109-1.959,1.509-3.271,1.357A9.005,9.005,0,0,0,138,312.2c-.486.016-1.061.375-1.248,1.466" transform="translate(137.935 311.815)" fill="#2b313f"/>
            <path id="Path_9652" data-name="Path 9652" d="M144.542,316.8l1.677,3.618a.406.406,0,0,1-.2.541.4.4,0,0,1-.352-.006.409.409,0,0,0-.579.472l1.165,4.164-2.793-5.914a.41.41,0,0,1,.194-.543.417.417,0,0,1,.354,0l.375.186a.406.406,0,0,0,.545-.184.384.384,0,0,0,.036-.263Z" transform="translate(147.074 324.862)" fill="#fff"/>
            <path id="Path_9653" data-name="Path 9653" d="M140.335,314.6l2.218,3.316a.407.407,0,0,1-.109.563.414.414,0,0,1-.354.049.409.409,0,0,0-.514.257.426.426,0,0,0,.018.3l1.8,3.931-3.678-5.41a.407.407,0,0,1,.458-.616l.4.123a.407.407,0,0,0,.508-.269.412.412,0,0,0-.008-.261Z" transform="translate(143.199 322.608)" fill="#fff"/>
            <path id="Path_9654" data-name="Path 9654" d="M135.51,316.8l1.618,2.414a.295.295,0,0,1-.338.446.3.3,0,0,0-.375.19.291.291,0,0,0,.012.215l1.31,2.866-2.68-3.942a.3.3,0,0,1,.081-.411.306.306,0,0,1,.251-.039l.292.089a.3.3,0,0,0,.363-.385Z" transform="translate(138.446 324.862)" fill="#fff"/>
            <path id="Path_9655" data-name="Path 9655" d="M147.493,332.206l.916,3.883a.406.406,0,0,1-.3.49.4.4,0,0,1-.354-.081.407.407,0,0,0-.571.063.413.413,0,0,0-.089.284l.3,4.316-1.543-6.356a.408.408,0,0,1,.3-.492.412.412,0,0,1,.344.073l.33.257a.407.407,0,0,0,.654-.32Z" transform="translate(149.557 340.665)" fill="#fff"/>
            <path id="Path_9656" data-name="Path 9656" d="M143.143,324.261l2.71,2.925a.407.407,0,0,1-.022.575.4.4,0,0,1-.34.1.411.411,0,0,0-.468.338.406.406,0,0,0,.063.29l2.392,3.6L143,327.326a.406.406,0,0,1,.354-.681l.415.059a.406.406,0,0,0,.46-.344.413.413,0,0,0-.049-.259Z" transform="translate(146.529 332.517)" fill="#fff"/>
            <path id="Path_9657" data-name="Path 9657" d="M140.617,336.627l2.706,2.923a.407.407,0,0,1-.022.577.4.4,0,0,1-.34.1.407.407,0,0,0-.4.628l2.39,3.6-4.474-4.768a.407.407,0,0,1,.354-.683l.415.061a.409.409,0,0,0,.46-.348.415.415,0,0,0-.049-.255Z" transform="translate(143.936 345.198)" fill="#fff"/>
            <path id="Path_9658" data-name="Path 9658" d="M146,312.821c5.86,11.509,14.442,31.336,36.225,44.094l-4.426,1.857c-13.86-8.4-24.51-18.819-34.172-33.939,0,0-.622-8.687,2.372-12.013" transform="translate(147.231 320.786)" fill="#2b313f"/>
            <path id="Path_9659" data-name="Path 9659" d="M177.913,359.32l5.058-2.125-.472-.277c-20-11.711-28.834-29.4-34.68-41.113q-.75-1.5-1.44-2.866l-.18-.354-.267.3c-3.056,3.395-2.447,12.242-2.418,12.3,9.585,15.007,20.149,25.5,34.279,34.064Zm3.84-2.206-3.8,1.594c-13.978-8.493-24.447-18.9-33.926-33.722-.047-.764-.415-8.185,2.05-11.428q.6,1.191,1.248,2.491c5.829,11.673,14.616,29.27,34.425,41.064" transform="translate(147.097 320.544)" fill="#1f222a"/>
          </g>
        </g>
        <g id="Group_20066" data-name="Group 20066">
          <g id="Group_20065" data-name="Group 20065" clip-path="url(#clip-path-2)">
            <path id="Path_9662" data-name="Path 9662" d="M161.8,334.043c-1.833-.083-2.038,1.086-1.383,2.309,1.588,2.965,4.539,8.315,5.1,3.048l2.129,2.961c.61.247,1.412-.093,1.08-1.232a13.824,13.824,0,0,0-2.368-5.015c-1.314-1.475-1.444-2.117-4.553-2.072" transform="translate(164.157 342.544)" fill="#fff"/>
            <path id="Path_9663" data-name="Path 9663" d="M168.167,342.85a1.066,1.066,0,0,0,.715-.259,1.274,1.274,0,0,0,.245-1.4,14.017,14.017,0,0,0-2.426-5.118c-.152-.172-.29-.33-.415-.482-1.045-1.225-1.586-1.73-4.337-1.683-1.1-.047-1.588.342-1.8.679a2.031,2.031,0,0,0,.172,2.031c1.823,3.407,3.277,5.631,4.43,5.4.539-.1.887-.672,1.084-1.768l1.776,2.473.073.03a1.319,1.319,0,0,0,.484.1m-5.908-8.4c2.335,0,2.7.427,3.611,1.495.128.15.267.314.421.488a13.773,13.773,0,0,1,2.311,4.91c.113.389.083.685-.087.839a.586.586,0,0,1-.557.087l-2.5-3.474-.077.711c-.178,1.687-.575,1.944-.737,1.977-1,.184-3.067-3.67-3.844-5.124a1.549,1.549,0,0,1-.19-1.481c.245-.389.853-.446,1.319-.425h.018c.105,0,.211,0,.31,0" transform="translate(164.019 342.406)" fill="#30394d"/>
            <path id="Path_9664" data-name="Path 9664" d="M124.823,331.948c1.8.346,1.764,1.562.806,2.568-2.451,2.57-6.251,6.67-5.665,1.774l-2.761,2.384c-.65.1-1.351-.421-.764-1.45a13.854,13.854,0,0,1,3.474-4.322c1.62-1.128,1.9-1.724,4.91-.954" transform="translate(119.178 340.044)" fill="#fff"/>
            <path id="Path_9665" data-name="Path 9665" d="M117.182,339.1a1.113,1.113,0,0,1-.928-.454,1.27,1.27,0,0,1,.087-1.416,14,14,0,0,1,3.555-4.413c.186-.13.356-.255.514-.369,1.3-.95,1.94-1.309,4.61-.628,1.106.215,1.487.727,1.612,1.118a1.98,1.98,0,0,1-.666,1.9l-.186.194c-2.384,2.505-4.3,4.381-5.378,3.871-.468-.221-.672-.808-.628-1.833l-2.315,2-.079.012a1.3,1.3,0,0,1-.2.014m5.643-7.089a3.184,3.184,0,0,0-2.092.879c-.16.117-.334.243-.525.377a13.77,13.77,0,0,0-3.393,4.235c-.2.35-.239.646-.109.836a.6.6,0,0,0,.521.213l3.231-2.787-.083.7c-.186,1.562.122,1.884.261,1.951.812.379,3.277-2.208,4.75-3.751l.184-.2a1.5,1.5,0,0,0,.543-1.361c-.115-.361-.531-.62-1.2-.747l-.016,0a8.735,8.735,0,0,0-2.068-.342" transform="translate(119.04 339.905)" fill="#30394d"/>
            <path id="Path_9666" data-name="Path 9666" d="M162.518,338.365l8.578-15.643a2.052,2.052,0,1,1,3.593,1.985l-8.572,15.412,9.333,11.075s4.679,1.886,4.646,2.655-2.145,3.494-4.018,3.208-2.412-4.58-2.412-4.58l-10.332-9.3a3.932,3.932,0,0,1-.816-4.812" transform="translate(166.16 329.849)" fill="#89d2e1"/>
            <path id="Path_9667" data-name="Path 9667" d="M175.576,357.167c-1.432-.871-1.922-3.919-2-4.472L163.3,343.446a4.135,4.135,0,0,1-.863-5.076l8.578-15.641a2.267,2.267,0,1,1,3.97,2.192l-8.5,15.282,9.2,10.919c1.475.6,4.766,2.021,4.732,2.846a5.024,5.024,0,0,1-1.776,2.5,3.361,3.361,0,0,1-2.489.918,1.575,1.575,0,0,1-.581-.215m-12.758-18.59a3.705,3.705,0,0,0,.772,4.549l10.393,9.354.01.079c.144,1.152.828,4.183,2.23,4.4a2.961,2.961,0,0,0,2.151-.824,4.781,4.781,0,0,0,1.618-2.184c-.034-.354-2.1-1.475-4.511-2.445l-.049-.02-.036-.041-9.429-11.189,8.643-15.543a1.833,1.833,0,0,0-.837-2.558,1.84,1.84,0,0,0-2.378.784Z" transform="translate(166.049 329.74)" fill="#30394d"/>
          </g>
        </g>
        <path id="Union_3" data-name="Union 3" d="M3.27,60.756h0L0,9.457C-.295,4.255,23.968,0,54.2,0s54.495,4.255,54.2,9.457l-3.269,51.3h0C104.866,65.3,82.067,68.95,54.2,68.95S3.531,65.3,3.27,60.756Z" transform="translate(228.449 701.673)" fill="#ddeaeb"/>
      </g>
    </g>
  </g>
</svg>
