<svg xmlns="http://www.w3.org/2000/svg" xmlns:xlink="http://www.w3.org/1999/xlink" width="1107" height="1505" viewBox="0 0 1107 1505">
  <defs>
    <clipPath id="clip-path">
      <rect id="Rectangle_4677" data-name="Rectangle 4677" width="1107" height="1505" transform="translate(517 501.709)" fill="#fff" stroke="#707070" stroke-width="1"/>
    </clipPath>
    <clipPath id="clip-path-2">
      <rect id="Rectangle_3963" data-name="Rectangle 3963" width="1570" height="746.563" transform="translate(0 0)" fill="#fff" stroke="#707070" stroke-width="1" opacity="0.55"/>
    </clipPath>
  </defs>
  <g id="Component_19_1" data-name="Component 19 – 1" transform="translate(-517 -385.709)">
    <g id="Mask_Group_14155" data-name="Mask Group 14155" transform="translate(0 -116)" clip-path="url(#clip-path)">
      <g id="Group_20383" data-name="Group 20383" transform="translate(0 90.353)">
        <g id="Group_19931" data-name="Group 19931">
          <path id="Path_9378" data-name="Path 9378" d="M1036.646-14.217,95.075-67.632C9.574-7.613-6.241,64.054-12.13,100.513c-8.906,55.129,21.62,119.937,70.779,148.2,18.229,10.481,39.791,15.9,55.913,29.135,28.339,23.26,32.366,64.509,25.213,100.257S116.5,447.952,111.754,484c-7.764,58.987,17.843,120.17,65.571,156.67S293.356,687.806,352.22,667.9c56.666-19.165,104.242-64.113,163.614-70.639,60.777-6.682,115.614,28.5,166.287,59.692,63.29,38.963,130.349,74.418,204.084,90.893,45.451,10.155,93.927,12.465,140.108,4.184Z" transform="matrix(0.875, -0.485, 0.485, 0.875, 501.112, 515.01)" fill="#fff7f3"/>
          <path id="Path_13266" data-name="Path 13266" d="M1050.316,771.279l-941.57,53.416C23.244,764.676,7.429,693.008,1.54,656.549c-8.906-55.129,21.619-119.937,70.779-148.2,18.229-10.481,39.791-15.9,55.913-29.135,28.339-23.26,32.366-64.509,25.213-100.257s-23.275-69.844-28.02-105.9C117.66,214.071,143.267,152.888,191,116.389S307.026,69.256,365.89,89.163C422.556,108.328,470.132,153.277,529.5,159.8c60.777,6.682,115.614-28.5,166.287-59.692,63.29-38.963,130.349-74.418,204.084-90.893C945.328-.937,993.8-3.247,1039.984,5.034Z" transform="matrix(0.875, 0.485, -0.485, 0.875, 924.711, 735.53)" fill="#fff7f3" opacity="0.53"/>
          <path id="Path_3882" data-name="Path 3882" d="M1433.5,4.018S732.884-152.027,484.484-118.589s-96.731,270.3-101.907,305.722c-7.828,53.557,22.173,100.629,69.685,128.805,17.619,10.449,38.368,16.016,54,29.113,27.48,23.025,31.876,63.241,25.477,97.951s-21.419,67.693-25.5,102.732c-6.683,57.329,18.667,117.241,64.914,153.416s111.891,47.44,168.089,28.843c54.1-17.9,99.147-61.031,156-66.593,58.2-5.695,111.251,29.292,160.254,60.339,61.2,38.781,125.977,74.2,196.907,91.222,43.722,10.494,90.244,13.39,134.428,5.945Z" transform="translate(209.202 408.93)" fill="#e4f6f7" opacity="0.37"/>
          <path id="Path_3881" data-name="Path 3881" d="M640,949.5h-52.85c-2.709-39.392-31.414-88.176-50.878-120.861-30.456-51.143-96.6-76.834-150.085-86.51-35.572-6.435-71.9-1.746-107.889-3.3s-73.948-10.639-99.909-39.154c-29.481-32.378-37.247-82.481-39.4-129.132s-.548-95.11-16.879-137.939c-13.595-35.653-38.647-64.458-51.752-100.35-25.226-69.091-.115-151.43,44.463-206.307,16.454-20.253,35.119-37.557,55.1-52.948H640Z" transform="translate(1036.953 338.36)" fill="#f8ffff" style="mix-blend-mode: overlay;isolation: isolate"/>
        </g>
      </g>
    </g>
  </g>
</svg>
