<svg xmlns="http://www.w3.org/2000/svg" xmlns:xlink="http://www.w3.org/1999/xlink" width="1920" height="1076" viewBox="0 0 1920 1076">
  <defs>
    <clipPath id="clip-path">
      <rect id="Rectangle_4718" data-name="Rectangle 4718" width="1920" height="1076" transform="translate(0 4898)" fill="#fff" stroke="#707070" stroke-width="1"/>
    </clipPath>
  </defs>
  <g id="Mask_Group_14160" data-name="Mask Group 14160" transform="translate(0 -4898)" clip-path="url(#clip-path)">
    <g id="Group_21347" data-name="Group 21347" transform="translate(13.893 4615) rotate(14)">
      <path id="Union_37" data-name="Union 37" d="M0,176.889,133.716,1265.928c67.948,2.692,137.565-10.149,201.6-33.564,103.882-37.986,195.184-101.685,280.5-169.634,68.31-54.4,142.012-115.3,230.781-117.761,86.715-2.406,162.362,52.224,247.13,68.348,65.377,12.436,135.649-.125,193.393-32.539q6.225-3.245,12.756-7.12c323.456-191.937,502.437-190.153,661.452-75.167s377.329,66.776,377.329,66.776L2364.284,231.4,1522.17,187.435a242.086,242.086,0,0,0-8.24-47.693C1499.777,88.986,1472.295,43.325,1440.639,0Z" transform="translate(2372.767 1275.502) rotate(180)" fill="#e8f6f7" stroke="rgba(0,0,0,0)" stroke-miterlimit="10" stroke-width="1"/>
    </g>
    <g id="Group_21287" data-name="Group 21287" transform="translate(-323.541 4987.527) rotate(-3)">
      <path id="Union_37-2" data-name="Union 37" d="M-8307.274-3847.891l133.716-1089.039c67.948-2.692,137.565,10.149,201.6,33.564,103.882,37.986,195.184,101.685,280.5,169.634,68.31,54.4,142.012,115.3,230.781,117.761,86.715,2.406,162.362-52.224,247.13-68.348,65.377-12.436,135.648.125,193.392,32.539q6.225,3.245,12.756,7.12c323.456,191.938,502.437,190.153,661.452,75.167s377.329-66.776,377.329-66.776l25.627,733.864-842.114,43.969a242.086,242.086,0,0,1-8.24,47.693c-14.152,50.756-41.635,96.416-73.291,139.741Z" transform="translate(8307.274 4943)" fill="#6bbfbf" stroke="rgba(0,0,0,0)" stroke-miterlimit="10" stroke-width="1"/>
    </g>
  </g>
</svg>
