<svg id="logo" xmlns="http://www.w3.org/2000/svg" xmlns:xlink="http://www.w3.org/1999/xlink" width="184.005" height="59.022" viewBox="0 0 184.005 59.022">
  <defs>
    <linearGradient id="linear-gradient" x1="0.375" y1="0.913" x2="0.594" y2="0.187" gradientUnits="objectBoundingBox">
      <stop offset="0" stop-color="#f2674f"/>
      <stop offset="1" stop-color="#f5841f"/>
    </linearGradient>
  </defs>
  <g id="Group_14692" data-name="Group 14692">
    <circle id="Ellipse_470" data-name="Ellipse 470" cx="29.511" cy="29.511" r="29.511" fill="url(#linear-gradient)"/>
    <path id="Path_4864" data-name="Path 4864" d="M197.648,167.408l1.312,2.332v10.224h-1.312Zm13.12,2.154,1.311-2.341v12.744h-1.311Zm-15.557-6.84,1.312,2.357v15.073h-1.312Zm17.993,2.172,1.312-2.358v17.617H213.2Zm-20.617-7.045,1.313,2.368v19.749h-1.313Zm23.241,2.372,1.312-2.372v22.3h-1.312Zm-25.677-8.744h1.4l11.157,21.2h-1.4L191.4,153.849v26.3h-1.245Zm2.812,0h1.416l11.14,21.18H204.1Zm12.369,13.5,7.2-13.5h1.419l-7.894,14.806Zm1.312,2.819,8.538-16.32h1.395l-9.229,17.619Zm11.331-16.32h1.413v28.676h-1.241v-26.3l-9.877,18.823h-1.414l-11.084-21.2h1.4l10.411,19.88Z" transform="translate(-175.259 -136.303)" fill="#fff"/>
  </g>
  <g id="Group_14720" data-name="Group 14720" transform="translate(69.34 15.569)">
    <g id="Group_14719" data-name="Group 14719" transform="translate(0 0)">
      <g id="Group_14694" data-name="Group 14694" transform="translate(0.057)">
        <g id="Group_14693" data-name="Group 14693">
          <path id="Path_4865" data-name="Path 4865" d="M370.021,154.771v13.941h-2.8V162.65h-5.964v6.062h-2.785V154.771h2.785v5.648h5.964v-5.648Z" transform="translate(-358.468 -154.1)" fill="#2b313f"/>
          <path id="Path_4866" data-name="Path 4866" d="M411.843,166.5a2.675,2.675,0,0,0-1.867-.691,2.736,2.736,0,0,0-1.9.691,2.827,2.827,0,0,0-.848,2.034h5.311a2.46,2.46,0,0,0-.7-2.034m3.405,3.258h-8.016a3.015,3.015,0,0,0,.789,2.152,2.541,2.541,0,0,0,1.817.691,2.639,2.639,0,0,0,1.61-.474,2.1,2.1,0,0,0,.819-1.283h2.942a4.7,4.7,0,0,1-.928,2.054,4.843,4.843,0,0,1-1.827,1.421,6.254,6.254,0,0,1-5.321-.167A4.787,4.787,0,0,1,405.2,172.2a6.8,6.8,0,0,1,0-5.973,4.71,4.71,0,0,1,1.936-1.945,5.9,5.9,0,0,1,2.843-.671,5.77,5.77,0,0,1,2.833.671,4.74,4.74,0,0,1,1.876,1.846,5.364,5.364,0,0,1,.661,2.676,5.255,5.255,0,0,1-.1.948" transform="translate(-389.599 -160.078)" fill="#2b313f"/>
          <rect id="Rectangle_2230" data-name="Rectangle 2230" width="2.785" height="14.612" transform="translate(29.105)" fill="#2b313f"/>
          <rect id="Rectangle_2231" data-name="Rectangle 2231" width="2.785" height="14.612" transform="translate(35.799)" fill="#2b313f"/>
          <path id="Path_4867" data-name="Path 4867" d="M491.618,166.84a3.9,3.9,0,0,0,0,4.759,2.788,2.788,0,0,0,3.949,0,3.9,3.9,0,0,0,0-4.759,2.789,2.789,0,0,0-3.949,0m4.847-2.557a4.921,4.921,0,0,1,2.005,1.946,6.473,6.473,0,0,1,0,5.973,5,5,0,0,1-2.005,1.945,6.4,6.4,0,0,1-5.746,0,5,5,0,0,1-2-1.945,6.473,6.473,0,0,1,0-5.973,4.917,4.917,0,0,1,2-1.946,6.481,6.481,0,0,1,5.746,0" transform="translate(-446.045 -160.077)" fill="#2b313f"/>
          <path id="Path_4868" data-name="Path 4868" d="M548.012,155.258v13.783h-2.765v-9.616l-3.534,9.616H539.3l-3.534-9.577v9.577h-2.785V155.258h3.377l4.186,10.367,4.107-10.367Z" transform="translate(-476.473 -154.429)" fill="#2b313f"/>
          <path id="Path_4869" data-name="Path 4869" d="M593.368,166.89a3.291,3.291,0,0,0-.789,2.331,3.254,3.254,0,0,0,.789,2.32,2.991,2.991,0,0,0,4.176-.02,3.663,3.663,0,0,0,0-4.62,2.979,2.979,0,0,0-4.176-.01m3.594-2.626a3.554,3.554,0,0,1,1.4,1.757v-2.27h2.763V174.69h-2.763V172.4a3.6,3.6,0,0,1-1.4,1.767,4.152,4.152,0,0,1-2.37.662,4.694,4.694,0,0,1-2.487-.671,4.534,4.534,0,0,1-1.728-1.945,7.505,7.505,0,0,1,0-5.983,4.541,4.541,0,0,1,1.728-1.946,4.7,4.7,0,0,1,2.487-.671,4.206,4.206,0,0,1,2.37.652" transform="translate(-514.86 -160.078)" fill="#2b313f"/>
          <path id="Path_4870" data-name="Path 4870" d="M638.858,166.89a3.291,3.291,0,0,0-.789,2.331,3.254,3.254,0,0,0,.789,2.32,2.992,2.992,0,0,0,4.176-.02,3.662,3.662,0,0,0,0-4.62,2.979,2.979,0,0,0-4.176-.01m3.594-2.626a3.555,3.555,0,0,1,1.4,1.757v-2.27h2.763V174.69h-2.763V172.4a3.6,3.6,0,0,1-1.4,1.767,4.152,4.152,0,0,1-2.37.662,4.7,4.7,0,0,1-2.488-.671,4.534,4.534,0,0,1-1.727-1.945,7.5,7.5,0,0,1,0-5.983,4.542,4.542,0,0,1,1.727-1.946,4.7,4.7,0,0,1,2.488-.671,4.205,4.205,0,0,1,2.37.652" transform="translate(-545.619 -160.078)" fill="#2b313f"/>
          <path id="Path_4871" data-name="Path 4871" d="M690.577,166.454A3.816,3.816,0,0,1,689,167.895a5.472,5.472,0,0,1-2.548.543,6.606,6.606,0,0,1-2.646-.5,4.47,4.47,0,0,1-1.866-1.451,4.191,4.191,0,0,1-.8-2.211H684.1a2.265,2.265,0,0,0,.682,1.412,2.136,2.136,0,0,0,1.55.562,1.8,1.8,0,0,0,1.332-.464,1.614,1.614,0,0,0,.464-1.194,1.565,1.565,0,0,0-.376-1.077,2.739,2.739,0,0,0-.948-.681q-.573-.256-1.58-.592a15.632,15.632,0,0,1-2.132-.859,3.932,3.932,0,0,1-1.412-1.234,3.537,3.537,0,0,1-.583-2.113,3.436,3.436,0,0,1,1.294-2.833,5.316,5.316,0,0,1,3.425-1.036,5.423,5.423,0,0,1,3.525,1.066,4.023,4.023,0,0,1,1.491,2.843h-3a2.1,2.1,0,0,0-.632-1.234,1.965,1.965,0,0,0-1.4-.484,1.85,1.85,0,0,0-1.243.405,1.65,1.65,0,0,0-.109,2.192,2.777,2.777,0,0,0,.928.661,15.259,15.259,0,0,0,1.531.573,20.611,20.611,0,0,1,2.182.888,3.854,3.854,0,0,1,1.432,1.244,3.66,3.66,0,0,1,.592,2.172,3.778,3.778,0,0,1-.533,1.965" transform="translate(-576.624 -153.688)" fill="#2b313f"/>
        </g>
      </g>
      <g id="Group_14695" data-name="Group 14695" transform="translate(0 22.009)">
        <path id="Path_4872" data-name="Path 4872" d="M364.219,220.665v5.817h-.764V221.84l-1.855,4.642h-.68l-1.863-4.625v4.625h-.764v-5.817h.914l2.066,4.885,2.031-4.885Z" transform="translate(-358.292 -220.665)" fill="#526281"/>
      </g>
      <g id="Group_14697" data-name="Group 14697" transform="translate(7.454 22.017)">
        <g id="Group_14696" data-name="Group 14696">
          <path id="Path_4873" data-name="Path 4873" d="M385.012,224.535l-1.083-2.989-1.083,2.989Zm.218.6h-2.6l-.495,1.368h-.823l2.191-5.809h.865l2.182,5.809h-.822Z" transform="translate(-381.31 -220.69)" fill="#526281"/>
        </g>
      </g>
      <g id="Group_14699" data-name="Group 14699" transform="translate(14.22 21.908)">
        <g id="Group_14698" data-name="Group 14698">
          <path id="Path_4874" data-name="Path 4874" d="M402.97,223.3h1.117q1.3,0,1.3-1.141t-1.3-1.142H402.97Zm2.375,2.972-1.544-2.418h-.831v2.418h-.764v-5.918h1.947a2.109,2.109,0,0,1,1.511.483,1.691,1.691,0,0,1,.5,1.28,1.654,1.654,0,0,1-.4,1.162,1.877,1.877,0,0,1-1.166.55l1.611,2.443Z" transform="translate(-402.206 -220.353)" fill="#526281"/>
        </g>
      </g>
      <g id="Group_14700" data-name="Group 14700" transform="translate(19.869 21.908)">
        <path id="Path_4875" data-name="Path 4875" d="M421.118,223.283l2.7,2.989h-.94l-2.468-2.762v2.762h-.764v-5.918h.764V223.1l2.477-2.745h.932Z" transform="translate(-419.65 -220.353)" fill="#526281"/>
      </g>
      <g id="Group_14701" data-name="Group 14701" transform="translate(25.552 21.908)">
        <path id="Path_4876" data-name="Path 4876" d="M437.964,220.973V223h2.249v.587h-2.249v2.066h2.5v.621H437.2v-5.918h3.265v.621Z" transform="translate(-437.201 -220.352)" fill="#526281"/>
      </g>
      <g id="Group_14702" data-name="Group 14702" transform="translate(30.077 21.908)">
        <path id="Path_4877" data-name="Path 4877" d="M455.278,220.353v.621h-1.671v5.3h-.764v-5.3h-1.67v-.621Z" transform="translate(-451.173 -220.353)" fill="#526281"/>
      </g>
      <g id="Group_14703" data-name="Group 14703" transform="translate(35.693 21.908)">
        <rect id="Rectangle_2232" data-name="Rectangle 2232" width="0.763" height="5.918" fill="#526281"/>
      </g>
      <g id="Group_14704" data-name="Group 14704" transform="translate(38.438 21.908)">
        <path id="Path_4878" data-name="Path 4878" d="M481.592,226.271h-.764l-3.072-4.675v4.675h-.764v-5.918h.764l3.072,4.684v-4.684h.764Z" transform="translate(-476.993 -220.353)" fill="#526281"/>
      </g>
      <g id="Group_14705" data-name="Group 14705" transform="translate(44.816 21.849)">
        <path id="Path_4879" data-name="Path 4879" d="M501.311,220.683a2.492,2.492,0,0,1,.944,1.393h-.805a1.82,1.82,0,0,0-.7-.865,2.059,2.059,0,0,0-1.163-.327,2.091,2.091,0,0,0-1.082.282,1.958,1.958,0,0,0-.752.8,2.612,2.612,0,0,0-.273,1.226,2.645,2.645,0,0,0,.277,1.246,1.963,1.963,0,0,0,.769.806,2.226,2.226,0,0,0,1.129.281,2.129,2.129,0,0,0,1-.235,1.929,1.929,0,0,0,.743-.684,2.33,2.33,0,0,0,.349-1.053h-2.326v-.571h2.972v.7a2.936,2.936,0,0,1-.436,1.276,2.617,2.617,0,0,1-.974.907,2.857,2.857,0,0,1-1.394.336,2.941,2.941,0,0,1-1.51-.382,2.662,2.662,0,0,1-1.021-1.066,3.537,3.537,0,0,1,0-3.131,2.692,2.692,0,0,1,1.021-1.07,2.9,2.9,0,0,1,1.5-.387,2.862,2.862,0,0,1,1.734.513" transform="translate(-496.689 -220.17)" fill="#526281"/>
      </g>
      <g id="Group_14707" data-name="Group 14707" transform="translate(54.679 22.017)">
        <g id="Group_14706" data-name="Group 14706">
          <path id="Path_4880" data-name="Path 4880" d="M530.851,224.535l-1.083-2.989-1.083,2.989Zm.218.6h-2.6l-.495,1.368h-.823l2.191-5.809h.865l2.182,5.809h-.822Z" transform="translate(-527.149 -220.69)" fill="#526281"/>
        </g>
      </g>
      <g id="Group_14708" data-name="Group 14708" transform="translate(61.244 21.833)">
        <path id="Path_4881" data-name="Path 4881" d="M551.165,225.358a1.517,1.517,0,0,1-.613.588,2.079,2.079,0,0,1-1.016.226,2.432,2.432,0,0,1-1.045-.214,1.851,1.851,0,0,1-.73-.587,1.658,1.658,0,0,1-.315-.852h.815a1.147,1.147,0,0,0,.591.886,1.308,1.308,0,0,0,.659.155,1.046,1.046,0,0,0,.773-.268.934.934,0,0,0,.268-.688.889.889,0,0,0-.189-.588,1.327,1.327,0,0,0-.466-.356,6.279,6.279,0,0,0-.755-.282,7.5,7.5,0,0,1-.9-.348,1.553,1.553,0,0,1-.579-.491,1.438,1.438,0,0,1-.239-.865,1.5,1.5,0,0,1,.223-.815,1.454,1.454,0,0,1,.638-.545,2.3,2.3,0,0,1,.977-.193,2.11,2.11,0,0,1,1.386.424,1.628,1.628,0,0,1,.6,1.079h-.824a1.1,1.1,0,0,0-.36-.621,1.139,1.139,0,0,0-.8-.269,1.09,1.09,0,0,0-.738.239.845.845,0,0,0-.278.676.836.836,0,0,0,.18.558,1.262,1.262,0,0,0,.449.336,7.6,7.6,0,0,0,.739.273,7.4,7.4,0,0,1,.919.353,1.548,1.548,0,0,1,.592.507,1.524,1.524,0,0,1,.244.9,1.579,1.579,0,0,1-.2.78" transform="translate(-547.421 -220.12)" fill="#526281"/>
      </g>
      <g id="Group_14710" data-name="Group 14710" transform="translate(69.344 22.017)">
        <g id="Group_14709" data-name="Group 14709">
          <path id="Path_4882" data-name="Path 4882" d="M576.137,224.535l-1.083-2.989-1.083,2.989Zm.218.6h-2.6l-.495,1.368h-.823l2.191-5.809h.865l2.182,5.809h-.822Z" transform="translate(-572.435 -220.69)" fill="#526281"/>
        </g>
      </g>
      <g id="Group_14711" data-name="Group 14711" transform="translate(78.737 21.833)">
        <path id="Path_4883" data-name="Path 4883" d="M605.186,225.358a1.517,1.517,0,0,1-.613.588,2.078,2.078,0,0,1-1.015.226,2.428,2.428,0,0,1-1.045-.214,1.851,1.851,0,0,1-.731-.587,1.661,1.661,0,0,1-.315-.852h.815a1.149,1.149,0,0,0,.591.886,1.307,1.307,0,0,0,.659.155,1.045,1.045,0,0,0,.772-.268.932.932,0,0,0,.268-.688.891.891,0,0,0-.189-.588,1.327,1.327,0,0,0-.466-.356,6.271,6.271,0,0,0-.755-.282,7.517,7.517,0,0,1-.9-.348,1.553,1.553,0,0,1-.579-.491,1.431,1.431,0,0,1-.239-.865,1.5,1.5,0,0,1,.223-.815,1.455,1.455,0,0,1,.638-.545,2.3,2.3,0,0,1,.977-.193,2.111,2.111,0,0,1,1.386.424,1.627,1.627,0,0,1,.6,1.079h-.823a1.105,1.105,0,0,0-.36-.621,1.139,1.139,0,0,0-.8-.269,1.09,1.09,0,0,0-.738.239.957.957,0,0,0-.1,1.234,1.254,1.254,0,0,0,.449.336,7.584,7.584,0,0,0,.739.273,7.4,7.4,0,0,1,.919.353,1.55,1.55,0,0,1,.592.507,1.524,1.524,0,0,1,.243.9,1.578,1.578,0,0,1-.2.78" transform="translate(-601.442 -220.12)" fill="#526281"/>
      </g>
      <g id="Group_14712" data-name="Group 14712" transform="translate(84.463 21.908)">
        <path id="Path_4884" data-name="Path 4884" d="M619.887,220.973V223h2.249v.587h-2.249v2.066h2.5v.621h-3.266v-5.918h3.266v.621Z" transform="translate(-619.123 -220.352)" fill="#526281"/>
      </g>
      <g id="Group_14714" data-name="Group 14714" transform="translate(89.465 21.908)">
        <g id="Group_14713" data-name="Group 14713">
          <path id="Path_4885" data-name="Path 4885" d="M635.337,223.3h1.117q1.3,0,1.3-1.141t-1.3-1.142h-1.117Zm2.375,2.972-1.544-2.418h-.831v2.418h-.764v-5.918h1.947a2.108,2.108,0,0,1,1.511.483,1.691,1.691,0,0,1,.5,1.28,1.654,1.654,0,0,1-.4,1.162,1.877,1.877,0,0,1-1.166.55l1.611,2.443Z" transform="translate(-634.573 -220.353)" fill="#526281"/>
        </g>
      </g>
      <g id="Group_14715" data-name="Group 14715" transform="translate(94.661 21.908)">
        <path id="Path_4886" data-name="Path 4886" d="M651.457,220.353l1.8,5.071,1.829-5.071h.831l-2.174,5.918h-.966l-2.166-5.918Z" transform="translate(-650.617 -220.353)" fill="#526281"/>
      </g>
      <g id="Group_14716" data-name="Group 14716" transform="translate(101.494 21.908)">
        <rect id="Rectangle_2233" data-name="Rectangle 2233" width="0.763" height="5.918" fill="#526281"/>
      </g>
      <g id="Group_14717" data-name="Group 14717" transform="translate(104.037 21.849)">
        <path id="Path_4887" data-name="Path 4887" d="M684.181,220.7a2.721,2.721,0,0,1,.974,1.457h-.806a1.967,1.967,0,0,0-.731-.936,2.117,2.117,0,0,0-1.234-.348,1.934,1.934,0,0,0-1.036.282,1.953,1.953,0,0,0-.722.806,2.707,2.707,0,0,0-.264,1.229,2.662,2.662,0,0,0,.264,1.218,1.962,1.962,0,0,0,.722.8,1.942,1.942,0,0,0,1.036.281,2.117,2.117,0,0,0,1.234-.348,1.968,1.968,0,0,0,.731-.936h.806a2.714,2.714,0,0,1-.974,1.456,2.881,2.881,0,0,1-1.788.533,2.8,2.8,0,0,1-1.469-.382,2.64,2.64,0,0,1-1-1.065,3.329,3.329,0,0,1-.356-1.558,3.373,3.373,0,0,1,.356-1.57,2.637,2.637,0,0,1,1-1.07,2.8,2.8,0,0,1,1.469-.382,2.887,2.887,0,0,1,1.788.533" transform="translate(-679.573 -220.171)" fill="#526281"/>
      </g>
      <g id="Group_14718" data-name="Group 14718" transform="translate(111.399 21.908)">
        <path id="Path_4888" data-name="Path 4888" d="M703.072,220.973V223h2.249v.587h-2.249v2.066h2.5v.621h-3.265v-5.918h3.265v.621Z" transform="translate(-702.308 -220.352)" fill="#526281"/>
      </g>
    </g>
  </g>
</svg>
